<svg width="140" height="160" viewBox="0 0 140 160" fill="none" xmlns="http://www.w3.org/2000/svg">
    <path d="M68.3254 115.716C90.1893 115.716 107.913 97.992 107.913 76.1281C107.913 54.2642 90.1893 36.54 68.3254 36.54C46.4615 36.54 28.7373 54.2642 28.7373 76.1281C28.7373 97.992 46.4615 115.716 68.3254 115.716Z" fill="#EFEFF4"/>
    <path d="M74.3365 158.478L107.851 147.403C109.607 146.821 109.607 144.038 107.851 143.46L70.2494 131.032C69.9106 130.919 69.5502 130.919 69.2114 131.032L31.6094 143.46C29.8542 144.042 29.8542 146.825 31.6094 147.403L65.1243 158.478C68.1302 159.472 71.3271 159.472 74.3365 158.478Z" fill="#272B32"/>
    <path d="M74.3365 139.119L107.851 128.335C109.607 127.769 109.607 125.059 107.851 124.496L70.2494 112.395C69.9106 112.285 69.5502 112.285 69.2114 112.395L31.6094 124.496C29.8542 125.063 29.8542 127.772 31.6094 128.335L65.1243 139.119C68.1302 140.086 71.3271 140.086 74.3365 139.119Z" fill="#BFC7D6"/>
    <path d="M74.3365 121.209L107.851 110.154C109.607 109.574 109.607 106.796 107.851 106.219L74.3365 95.1647C71.3307 94.173 68.1338 94.173 65.1243 95.1647L31.6094 106.219C29.8542 106.8 29.8542 109.578 31.6094 110.154L65.1243 121.209C68.1302 122.201 71.3271 122.201 74.3365 121.209Z" fill="#0061FF"/>
    <path d="M4.75272 100.424C7.01298 100.424 8.84529 98.5921 8.84529 96.3318C8.84529 94.0716 7.01298 92.2393 4.75272 92.2393C2.49246 92.2393 0.660156 94.0716 0.660156 96.3318C0.660156 98.5921 2.49246 100.424 4.75272 100.424Z" fill="#D5DAE1"/>
    <path d="M23.3026 11.0466C24.5355 11.0466 25.5349 10.0472 25.5349 8.81434C25.5349 7.58147 24.5355 6.58203 23.3026 6.58203C22.0698 6.58203 21.0703 7.58147 21.0703 8.81434C21.0703 10.0472 22.0698 11.0466 23.3026 11.0466Z" fill="#D5DAE1"/>
    <path d="M118.159 67.6833C119.597 67.6833 120.763 66.5173 120.763 65.079C120.763 63.6406 119.597 62.4746 118.159 62.4746C116.721 62.4746 115.555 63.6406 115.555 65.079C115.555 66.5173 116.721 67.6833 118.159 67.6833Z" fill="#D5DAE1"/>
    <path d="M133.668 139.862C136.955 139.862 139.62 137.197 139.62 133.909C139.62 130.621 136.955 127.956 133.668 127.956C130.38 127.956 127.715 130.621 127.715 133.909C127.715 137.197 130.38 139.862 133.668 139.862Z" fill="#D5DAE1"/>
    <path d="M65.2955 72.7425C46.3524 72.7425 28.7825 62.4942 19.4397 45.9972C17.7702 43.0532 18.8045 39.3109 21.7529 37.6415C24.6969 35.972 28.4392 37.0063 30.1086 39.9546C37.2799 52.6192 50.7641 60.4814 65.2998 60.4814C87.5819 60.4814 105.714 42.3536 105.714 20.0673C105.714 19.4708 105.701 18.8785 105.675 18.2863C105.529 14.9045 108.152 12.0463 111.533 11.9004C114.911 11.7416 117.773 14.3766 117.919 17.7584C117.954 18.5223 117.971 19.2991 117.971 20.0673C117.971 49.1086 94.3411 72.7382 65.2998 72.7382L65.2955 72.7425Z" fill="white" stroke="#272B32" stroke-linecap="round" stroke-linejoin="round"/>
    <path d="M111.796 18.0283C111.826 18.7064 111.839 19.3888 111.839 20.0711C111.839 45.7736 91.0029 66.6136 65.2962 66.6136C47.9195 66.6136 32.7658 57.0906 24.7705 42.9754" stroke="#272B32" stroke-linecap="round" stroke-linejoin="round"/>
    <path d="M92.1351 100.016L99.624 107.033L101.478 96.9393L92.1351 100.016Z" fill="#E7ECF3" stroke="#272B32" stroke-linecap="round" stroke-linejoin="round"/>
    <path opacity="0.16" d="M94.5602 102.694L101.118 100.535L101.77 97.0115C101.813 96.784 101.594 96.5952 101.375 96.6681L92.0368 99.7452C91.8265 99.8139 91.7664 100.084 91.9295 100.239L94.5645 102.698L94.5602 102.694Z" fill="#324559"/>
    <path d="M76.211 22.4021L68.7418 24.829C67.2811 25.3036 66.4817 26.8725 66.9563 28.3332L89.691 98.3035C90.1656 99.7642 91.7345 100.564 93.1952 100.089L100.664 97.662C102.125 97.1874 102.925 95.6185 102.45 94.1578L79.7153 24.1876C79.2406 22.7269 77.6718 21.9275 76.211 22.4021Z" fill="white" stroke="#272B32" stroke-linecap="round" stroke-linejoin="round"/>
    <path d="M47.6773 100.016L40.1884 107.033L38.3345 96.9393L47.6773 100.016Z" fill="#E7ECF3" stroke="#272B32" stroke-linecap="round" stroke-linejoin="round"/>
    <path opacity="0.16" d="M45.2529 102.694L38.6954 100.535L38.043 97.0115C38.0001 96.784 38.219 96.5952 38.4379 96.6681L47.7764 99.7452C47.9867 99.8139 48.0468 100.084 47.8837 100.239L45.2486 102.698L45.2529 102.694Z" fill="#324559"/>
    <path d="M39.1488 97.6559L46.6181 100.083C48.0788 100.557 49.6477 99.7581 50.1223 98.2973L72.857 28.3271C73.3316 26.8664 72.5322 25.2975 71.0715 24.8229L63.6023 22.396C62.1416 21.9213 60.5727 22.7207 60.098 24.1814L37.3633 94.1517C36.8887 95.6124 37.6881 97.1813 39.1488 97.6559Z" fill="white" stroke="#272B32" stroke-linecap="round" stroke-linejoin="round"/>
    <path d="M69.9054 38.6331C80.5736 38.6331 89.2219 29.9848 89.2219 19.3165C89.2219 8.64831 80.5736 0 69.9054 0C59.2372 0 50.5889 8.64831 50.5889 19.3165C50.5889 29.9848 59.2372 38.6331 69.9054 38.6331Z" fill="#0061FF"/>
    <path d="M85.5009 78.1072C93.4529 78.1072 99.8993 71.6609 99.8993 63.7089C99.8993 55.7569 93.4529 49.3105 85.5009 49.3105C77.5489 49.3105 71.1025 55.7569 71.1025 63.7089C71.1025 71.6609 77.5489 78.1072 85.5009 78.1072Z" fill="#FF7C10"/>
    <path d="M53.8681 75.5917C59.6822 75.5917 64.3955 70.8785 64.3955 65.0644C64.3955 59.2504 59.6822 54.5371 53.8681 54.5371C48.0541 54.5371 43.3408 59.2504 43.3408 65.0644C43.3408 70.8785 48.0541 75.5917 53.8681 75.5917Z" fill="#91A3AC"/>
</svg>
