<svg xmlns="http://www.w3.org/2000/svg" width="50" height="34" viewBox="0 0 50 34" fill="none"><path fill="#0047BA" d="M8.192 32.992h4.495c.072 0 .13-.059.13-.131v-1.32a.13.13 0 0 0-.13-.13H8.194c-3.108 0-5.628-2.55-5.628-5.695V8.276c0-3.144 2.52-5.693 5.627-5.693h17.24c3.108 0 5.628 2.549 5.628 5.693v1.911a.13.13 0 0 0 .13.132h1.304a.13.13 0 0 0 .13-.132v-1.91c0-4.02-3.22-7.277-7.192-7.277H8.192C4.22 1 1 4.258 1 8.276v17.44c0 4.019 3.22 7.276 7.192 7.276Z"/><path fill="#0047BA" d="M24.81 22.61v-8.969c0-.092.04-.131.13-.131h1.304c.092 0 .13.04.13.131v8.97c0 .092-.038.131-.13.131h-1.303c-.09 0-.13-.04-.13-.132Z"/><path fill="#0047BA" fill-rule="evenodd" d="M22.064 20.113a.137.137 0 0 1 .13-.103h1.282c.05 0 .09.047.083.097-.162 1.044-.79 1.828-1.87 2.382-1.685.866-3.613.288-4.527-1.535-.915-1.822-.192-3.761 1.458-4.61 1.907-.978 3.755-.064 4.616 1.653l.097.194a.14.14 0 0 1-.06.187l-4.415 2.267a.008.008 0 0 0-.003.012c.513.723 1.351.998 2.209.557.542-.279.869-.63 1-1.1Zm-.755-2.217c-.527-.521-1.23-.702-2.052-.28a1.768 1.768 0 0 0-.952 1.823c0 .005.006.008.01.006l2.993-1.537c.004-.002.005-.008.002-.012Z" clip-rule="evenodd"/><path fill="#0047BA" d="m6.704 16.398 1.903 6.212c.026.105.091.132.17.132h1.42c.092 0 .144-.04.17-.132l1.187-4.049 1.186 4.05c.026.092.078.131.17.131h1.42c.079 0 .144-.026.17-.132l1.903-6.212c.04-.132.04-.158.04-.184 0-.066-.053-.093-.105-.093h-1.343c-.117 0-.157.04-.182.132l-1.173 4.445-1.264-4.129c-.027-.092-.066-.131-.17-.131h-1.304c-.104 0-.144.04-.17.131l-1.264 4.129-1.174-4.445c-.026-.092-.065-.132-.182-.132H6.769c-.052 0-.104.027-.104.093 0 .026 0 .052.039.184ZM27.913 13.641v8.97c0 .092.04.131.13.131h1.304c.091 0 .13-.04.13-.132v-8.969c0-.092-.039-.131-.13-.131h-1.304c-.091 0-.13.04-.13.131Z"/><path fill="#0047BA" fill-rule="evenodd" d="M32.643 32.736v-.41c.496.41 1.095.673 1.878.672 1.76 0 2.972-1.318 2.972-3.442 0-2.123-1.212-3.442-2.972-3.442-.717 0-1.317.211-1.878.66v-3.007c0-.092-.039-.132-.13-.132H31.21c-.09 0-.13.04-.13.132v8.969c0 .092.04.132.13.132h1.304c.091 0 .13-.04.13-.132Zm1.565-5.197c1.03 0 1.642.884 1.642 2.018s-.612 2.018-1.642 2.019c-1.03 0-1.643-.884-1.643-2.019 0-1.134.612-2.018 1.643-2.018Z" clip-rule="evenodd"/><path fill="#0047BA" d="M16.01 29.557c0-2.07 1.472-3.442 3.415-3.442 1.72 0 2.907 1.121 3.076 2.427.014.105-.013.145-.09.145h-1.278c-.091 0-.143-.013-.182-.119-.235-.672-.809-1.029-1.552-1.029-1.03 0-1.747.726-1.747 2.018 0 1.293.717 2.019 1.747 2.019.743 0 1.317-.357 1.552-1.03.038-.105.09-.118.182-.118h1.277c.078 0 .105.04.091.145C22.32 31.906 21.146 33 19.425 33c-1.943 0-3.416-1.372-3.416-3.443ZM23.674 30.77V26.38c0-.093.04-.132.13-.132h1.304c.092 0 .13.04.13.132v3.825c0 .99.405 1.372 1.122 1.372.821 0 1.565-.634 1.565-2.203v-2.994c0-.093.039-.132.13-.132h1.303c.092 0 .13.04.13.132v6.357c0 .092-.038.132-.13.132h-1.303c-.091 0-.13-.04-.13-.132v-.475c-.535.449-1.134.739-1.969.739-1.421 0-2.282-.858-2.282-2.23Z"/><path fill="#0047BA" fill-rule="evenodd" d="M38.353 29.557c0-2.044 1.513-3.442 3.364-3.442 2.138 0 3.376 1.662 3.376 3.588v.224c0 .092-.039.132-.13.132h-4.968c.13.883.756 1.517 1.721 1.517.756 0 1.265-.251 1.604-.818.065-.106.091-.119.182-.119h1.33c.065 0 .09.04.09.092 0 .027 0 .053-.025.132-.56 1.45-1.629 2.136-3.194 2.136-1.89 0-3.35-1.397-3.35-3.442Zm5.071-.817c-.234-.713-.782-1.2-1.708-1.2-.743 0-1.408.448-1.668 1.2h3.376Z" clip-rule="evenodd"/><path fill="#0047BA" d="M45.406 27.16v-.867h-.292c-.01 0-.015-.004-.015-.014v-.146c0-.01.004-.014.015-.014h.772c.01 0 .015.004.015.014v.146c0 .01-.005.014-.015.014h-.292v.867c0 .01-.005.014-.015.014h-.158c-.01.001-.015-.004-.015-.014ZM46.014 27.16v-1.026c0-.01.004-.015.014-.015h.18c.011 0 .02.004.024.015l.275.632.274-.632c.004-.01.013-.015.024-.015h.18c.01 0 .015.004.015.015v1.026c0 .01-.004.014-.015.014h-.155c-.01 0-.014-.004-.014-.014v-.707l-.227.528c-.005.011-.012.017-.021.017h-.123c-.009 0-.016-.006-.02-.017l-.227-.528v.707c0 .01-.005.014-.015.014h-.155c-.01.001-.014-.004-.014-.014Z"/></svg>
