<svg
      xmlns="http://www.w3.org/2000/svg"
      className={clsx(classExtend)}
      fill="none"
      viewBox="0 0 24 24"
    >
      <path fill="#F8FCFF" d="M21 12a9 9 0 11-18 0 9 9 0 0118 0z"></path>
      <path
        fill="#F8FCFF"
        d="M9.813 9.502a2.248 2.248 0 014.369.75c0 1.499-2.249 2.248-2.249 2.248"
      ></path>
      <path
        fill="#272B32"
        fillRule="evenodd"
        d="M12 3.6a8.4 8.4 0 100 16.8 8.4 8.4 0 000-16.8zM2.4 12a9.6 9.6 0 1119.2 0 9.6 9.6 0 01-19.2 0zm9.812-3.376A1.648 1.648 0 0010.38 9.7a.6.6 0 01-1.133-.398 2.848 2.848 0 015.536.949c0 1.068-.793 1.786-1.392 2.185a5.878 5.878 0 01-1.23.62l-.025.008-.008.003h-.003l-.19-.568.19.569a.6.6 0 01-.381-1.138l.015-.005a3.383 3.383 0 00.283-.115c.19-.084.44-.21.684-.372.526-.35.857-.756.857-1.187a1.65 1.65 0 00-1.37-1.628zm-.851 6.876a.6.6 0 01.6-.6h.01a.6.6 0 110 1.2h-.01a.6.6 0 01-.6-.6z"
        clipRule="evenodd"
      ></path>
    </svg>