<svg xmlns="http://www.w3.org/2000/svg" fill="none" viewBox="0 0 24 24">
      <path
        fill="#F8FCFF"
        d="M16.5 9.45c0-1.114-.474-2.182-1.318-2.97A4.668 4.668 0 0012 5.25a4.668 4.668 0 00-3.182 1.23C7.974 7.268 7.5 8.336 7.5 9.45c0 2.015-.507 3.438-1.104 4.415-.579.947-.868 1.42-.857 1.543.012.138.039.186.15.269.1.073.572.073 1.516.073h9.59c.944 0 1.416 0 1.515-.073.112-.083.14-.131.151-.27.011-.122-.278-.595-.857-1.542-.597-.977-1.104-2.4-1.104-4.415z"
      ></path>
      <path
        fill="#272B32"
        fillRule="evenodd"
        d="M8.477 6.115A5.168 5.168 0 0112 4.75c1.315 0 2.583.487 3.523 1.365C16.464 6.993 17 8.192 17 9.45c0 1.926.483 3.258 1.031 4.154l.006.01c.284.465.504.825.652 1.084.073.13.136.246.18.343.022.05.044.104.061.16a.67.67 0 01.03.25.864.864 0 01-.1.357.863.863 0 01-.253.271.67.67 0 01-.212.102 1.14 1.14 0 01-.16.033 3.527 3.527 0 01-.347.027c-.258.009-.619.009-1.08.009H7.192c-.461 0-.822 0-1.08-.01a3.526 3.526 0 01-.347-.026 1.167 1.167 0 01-.16-.033.67.67 0 01-.212-.102.863.863 0 01-.252-.271.863.863 0 01-.1-.357.67.67 0 01.029-.25 1.3 1.3 0 01.061-.16c.045-.097.107-.213.18-.343.148-.259.368-.619.652-1.084l.006-.01C6.516 12.708 7 11.376 7 9.45c0-1.258.536-2.457 1.477-3.335zM12 5.75a4.168 4.168 0 00-2.84 1.096C8.411 7.543 8 8.48 8 9.45c0 2.103-.53 3.617-1.178 4.676a46.315 46.315 0 00-.669 1.115c.237.009.578.009 1.052.009h9.59c.474 0 .815 0 1.052-.009a23.3 23.3 0 00-.028-.049 45.36 45.36 0 00-.641-1.066C16.53 13.067 16 11.553 16 9.45c0-.97-.412-1.907-1.16-2.604A4.168 4.168 0 0012 5.75zm-2.75 13a.5.5 0 01.5-.5h4.5a.5.5 0 010 1h-4.5a.5.5 0 01-.5-.5z"
        clipRule="evenodd"
      ></path>
    </svg>