<svg width="14" height="16" viewBox="0 0 14 16" fill="none" xmlns="http://www.w3.org/2000/svg">
    <path d="M11.5002 5.45C11.5002 4.33609 11.0261 3.2678 10.1822 2.48015C9.3383 1.6925 8.1937 1.25 7.00023 1.25C5.80675 1.25 4.66216 1.6925 3.81825 2.48015C2.97433 3.2678 2.50023 4.33609 2.50023 5.45C2.50023 7.46466 1.99308 8.88765 1.39582 9.86494C0.817348 10.8115 0.528112 11.2847 0.538863 11.4077C0.550943 11.5458 0.578197 11.5944 0.689751 11.6767C0.789037 11.75 1.26095 11.75 2.20477 11.75H11.7957C12.7395 11.75 13.2114 11.75 13.3107 11.6767C13.4223 11.5944 13.4495 11.5458 13.4616 11.4077C13.4723 11.2847 13.1831 10.8115 12.6046 9.86494C12.0074 8.88766 11.5002 7.46466 11.5002 5.45Z" fill="#FBFDFF"/>
    <path d="M4.75023 14.75H9.25023M11.5002 5.45C11.5002 4.33609 11.0261 3.2678 10.1822 2.48015C9.3383 1.6925 8.1937 1.25 7.00023 1.25C5.80675 1.25 4.66216 1.6925 3.81825 2.48015C2.97433 3.2678 2.50023 4.33609 2.50023 5.45C2.50023 7.46466 1.99308 8.88765 1.39582 9.86494C0.817348 10.8115 0.528112 11.2847 0.538863 11.4077C0.550943 11.5458 0.578197 11.5944 0.689751 11.6767C0.789037 11.75 1.26095 11.75 2.20477 11.75H11.7957C12.7395 11.75 13.2114 11.75 13.3107 11.6767C13.4223 11.5944 13.4495 11.5458 13.4616 11.4077C13.4723 11.2847 13.1831 10.8115 12.6046 9.86494C12.0074 8.88766 11.5002 7.46466 11.5002 5.45Z" stroke="#272B32" stroke-linecap="round" stroke-linejoin="round"/>
</svg>
