<svg width="20" height="20" viewBox="0 0 20 20" fill="none" xmlns="http://www.w3.org/2000/svg">
<path d="M15 17.5V18C15.2761 18 15.5 17.7761 15.5 17.5H15ZM5 17.5H4.5C4.5 17.7761 4.72386 18 5 18V17.5ZM14.545 2.59083L14.318 3.03633L14.545 2.59083ZM14.9092 2.95501L14.4637 3.182L14.9092 2.95501ZM5.45501 2.59083L5.682 3.03633L5.45501 2.59083ZM5.09083 2.95501L5.53633 3.182L5.09083 2.95501ZM7.5 5.33333C7.22386 5.33333 7 5.55719 7 5.83333C7 6.10948 7.22386 6.33333 7.5 6.33333V5.33333ZM8.33333 6.33333C8.60948 6.33333 8.83333 6.10948 8.83333 5.83333C8.83333 5.55719 8.60948 5.33333 8.33333 5.33333V6.33333ZM7.5 7.83333C7.22386 7.83333 7 8.05719 7 8.33333C7 8.60948 7.22386 8.83333 7.5 8.83333V7.83333ZM8.33333 8.83333C8.60948 8.83333 8.83333 8.60948 8.83333 8.33333C8.83333 8.05719 8.60948 7.83333 8.33333 7.83333V8.83333ZM11.6667 7.83333C11.3905 7.83333 11.1667 8.05719 11.1667 8.33333C11.1667 8.60948 11.3905 8.83333 11.6667 8.83333V7.83333ZM12.5 8.83333C12.7761 8.83333 13 8.60948 13 8.33333C13 8.05719 12.7761 7.83333 12.5 7.83333V8.83333ZM11.6667 10.3333C11.3905 10.3333 11.1667 10.5572 11.1667 10.8333C11.1667 11.1095 11.3905 11.3333 11.6667 11.3333V10.3333ZM12.5 11.3333C12.7761 11.3333 13 11.1095 13 10.8333C13 10.5572 12.7761 10.3333 12.5 10.3333V11.3333ZM7.5 10.3333C7.22386 10.3333 7 10.5572 7 10.8333C7 11.1095 7.22386 11.3333 7.5 11.3333V10.3333ZM8.33333 11.3333C8.60948 11.3333 8.83333 11.1095 8.83333 10.8333C8.83333 10.5572 8.60948 10.3333 8.33333 10.3333V11.3333ZM11.6667 5.33333C11.3905 5.33333 11.1667 5.55719 11.1667 5.83333C11.1667 6.10948 11.3905 6.33333 11.6667 6.33333V5.33333ZM12.5 6.33333C12.7761 6.33333 13 6.10948 13 5.83333C13 5.55719 12.7761 5.33333 12.5 5.33333V6.33333ZM6.33333 3H13.6667V2H6.33333V3ZM14.5 3.83333V17.5H15.5V3.83333H14.5ZM15 17H5V18H15V17ZM5.5 17.5V3.83333H4.5V17.5H5.5ZM13.6667 3C13.9083 3 14.0594 3.00039 14.1733 3.00969C14.2813 3.01852 14.3111 3.03282 14.318 3.03633L14.772 2.14532C14.6006 2.05801 14.4246 2.02689 14.2547 2.01301C14.0907 1.99961 13.8918 2 13.6667 2V3ZM15.5 3.83333C15.5 3.60823 15.5004 3.40933 15.487 3.24529C15.4731 3.07541 15.442 2.89938 15.3547 2.72801L14.4637 3.182C14.4672 3.1889 14.4815 3.21868 14.4903 3.32672C14.4996 3.44059 14.5 3.59173 14.5 3.83333H15.5ZM14.318 3.03633C14.3807 3.06829 14.4317 3.11928 14.4637 3.182L15.3547 2.72801C15.2268 2.47713 15.0229 2.27316 14.772 2.14532L14.318 3.03633ZM6.33333 2C6.10823 2 5.90933 1.99961 5.74529 2.01301C5.57541 2.02689 5.39938 2.05801 5.22801 2.14532L5.682 3.03633C5.6889 3.03282 5.71868 3.01852 5.82672 3.00969C5.94059 3.00039 6.09173 3 6.33333 3V2ZM5.5 3.83333C5.5 3.59173 5.50039 3.44059 5.50969 3.32672C5.51852 3.21868 5.53282 3.1889 5.53633 3.182L4.64532 2.72801C4.55801 2.89938 4.52689 3.07541 4.51301 3.24529C4.49961 3.40933 4.5 3.60823 4.5 3.83333H5.5ZM5.22801 2.14532C4.97713 2.27316 4.77316 2.47713 4.64532 2.72801L5.53633 3.182C5.56829 3.11928 5.61928 3.06829 5.682 3.03633L5.22801 2.14532ZM7.5 6.33333H8.33333V5.33333H7.5V6.33333ZM7.5 8.83333H8.33333V7.83333H7.5V8.83333ZM11.6667 8.83333H12.5V7.83333H11.6667V8.83333ZM11.6667 11.3333H12.5V10.3333H11.6667V11.3333ZM7.5 11.3333H8.33333V10.3333H7.5V11.3333ZM11.6667 6.33333H12.5V5.33333H11.6667V6.33333ZM11.1667 15V17.5H12.1667V15H11.1667ZM8.83333 17.5V15H7.83333V17.5H8.83333ZM10 13.8333C10.6443 13.8333 11.1667 14.3557 11.1667 15H12.1667C12.1667 13.8034 11.1966 12.8333 10 12.8333V13.8333ZM10 12.8333C8.80338 12.8333 7.83333 13.8034 7.83333 15H8.83333C8.83333 14.3557 9.35567 13.8333 10 13.8333V12.8333Z" fill="#131A29"/>
</svg>
