<svg width="21" height="20" viewBox="0 0 21 20" fill="none" xmlns="http://www.w3.org/2000/svg">
	<path d="M10.7844 10.8335C11.2546 10.8335 11.6358 10.4604 11.6358 10.0002C11.6358 9.53993 11.2546 9.16683 10.7844 9.16683C10.3143 9.16683 9.93311 9.53993 9.93311 10.0002C9.93311 10.4604 10.3143 10.8335 10.7844 10.8335Z" fill="#272B32"/>
	<path d="M10.7844 5.00016C11.2546 5.00016 11.6358 4.62707 11.6358 4.16683C11.6358 3.70659 11.2546 3.3335 10.7844 3.3335C10.3143 3.3335 9.93311 3.70659 9.93311 4.16683C9.93311 4.62707 10.3143 5.00016 10.7844 5.00016Z" fill="#272B32"/>
	<path d="M10.7844 16.6668C11.2546 16.6668 11.6358 16.2937 11.6358 15.8335C11.6358 15.3733 11.2546 15.0002 10.7844 15.0002C10.3143 15.0002 9.93311 15.3733 9.93311 15.8335C9.93311 16.2937 10.3143 16.6668 10.7844 16.6668Z" fill="#272B32"/>
	<path d="M10.7844 10.8335C11.2546 10.8335 11.6358 10.4604 11.6358 10.0002C11.6358 9.53993 11.2546 9.16683 10.7844 9.16683C10.3143 9.16683 9.93311 9.53993 9.93311 10.0002C9.93311 10.4604 10.3143 10.8335 10.7844 10.8335Z" stroke="#272B32" stroke-width="1.5" stroke-linecap="round" stroke-linejoin="round"/>
	<path d="M10.7844 5.00016C11.2546 5.00016 11.6358 4.62707 11.6358 4.16683C11.6358 3.70659 11.2546 3.3335 10.7844 3.3335C10.3143 3.3335 9.93311 3.70659 9.93311 4.16683C9.93311 4.62707 10.3143 5.00016 10.7844 5.00016Z" stroke="#272B32" stroke-width="1.5" stroke-linecap="round" stroke-linejoin="round"/>
	<path d="M10.7844 16.6668C11.2546 16.6668 11.6358 16.2937 11.6358 15.8335C11.6358 15.3733 11.2546 15.0002 10.7844 15.0002C10.3143 15.0002 9.93311 15.3733 9.93311 15.8335C9.93311 16.2937 10.3143 16.6668 10.7844 16.6668Z" stroke="#272B32" stroke-width="1.5" stroke-linecap="round" stroke-linejoin="round"/>
</svg>