<svg width="14" height="17" viewBox="0 0 14 17" fill="none" xmlns="http://www.w3.org/2000/svg">
    <path d="M11.5002 6.45C11.5002 5.33609 11.0261 4.2678 10.1822 3.48015C9.3383 2.6925 8.1937 2.25 7.00023 2.25C5.80675 2.25 4.66216 2.6925 3.81825 3.48015C2.97433 4.2678 2.50023 5.33609 2.50023 6.45C2.50023 8.46466 1.99308 9.88765 1.39582 10.8649C0.817348 11.8115 0.528112 12.2847 0.538863 12.4077C0.550943 12.5458 0.578197 12.5944 0.689751 12.6767C0.789037 12.75 1.26095 12.75 2.20477 12.75H11.7957C12.7395 12.75 13.2114 12.75 13.3107 12.6767C13.4223 12.5944 13.4495 12.5458 13.4616 12.4077C13.4723 12.2847 13.1831 11.8115 12.6046 10.8649C12.0074 9.88766 11.5002 8.46466 11.5002 6.45Z" fill="#FBFDFF"/>
    <path d="M4.75023 15.75H9.25023M11.5002 6.45C11.5002 5.33609 11.0261 4.2678 10.1822 3.48015C9.3383 2.6925 8.1937 2.25 7.00023 2.25C5.80675 2.25 4.66216 2.6925 3.81825 3.48015C2.97433 4.2678 2.50023 5.33609 2.50023 6.45C2.50023 8.46466 1.99308 9.88765 1.39582 10.8649C0.817348 11.8115 0.528112 12.2847 0.538863 12.4077C0.550943 12.5458 0.578197 12.5944 0.689751 12.6767C0.789037 12.75 1.26095 12.75 2.20477 12.75H11.7957C12.7395 12.75 13.2114 12.75 13.3107 12.6767C13.4223 12.5944 13.4495 12.5458 13.4616 12.4077C13.4723 12.2847 13.1831 11.8115 12.6046 10.8649C12.0074 9.88766 11.5002 8.46466 11.5002 6.45Z" stroke="#272B32" stroke-linecap="round" stroke-linejoin="round"/>
    <circle cx="10" cy="3" r="3" fill="#FF6F42"/>
</svg>
