<svg width="19" height="22" viewBox="0 0 19 22" fill="none" xmlns="http://www.w3.org/2000/svg">
<g clip-path="url(#clip0_1212_1373)">
<path d="M5.73971 14.0576C5.87002 14.2376 6.03756 14.4561 6.24233 14.6843C6.47502 14.9414 6.75115 15.2114 7.0614 15.4171L5.89794 16.2206L5.28674 14.4561L5.73971 14.0576Z" fill="white"/>
<path d="M4.76561 14.8452L5.58158 17.2075L7.44931 15.9187L7.6758 16.5068L7.46793 19.2837H0.620605V17.9981C0.620605 17.1625 2.01985 16.1019 4.76561 14.8452Z" fill="white"/>
<path d="M6.2052 12.801C6.53717 12.9842 6.89707 13.1192 7.27868 13.1996C7.49586 13.3795 7.76578 13.4984 8.06673 13.4984C8.36768 13.4984 8.6376 13.3763 8.85478 13.1996C9.23639 13.1192 9.59628 12.9842 9.92826 12.801V13.6302C9.80726 13.8006 9.63972 14.0223 9.44116 14.2441C9.02852 14.7005 8.48557 15.1054 8.06673 15.1054C7.64788 15.1054 7.10494 14.7005 6.6923 14.2441C6.49063 14.0223 6.3231 13.8006 6.2052 13.6302V12.801Z" fill="white"/>
<path d="M10.1795 3.9082C10.2539 3.93713 10.4525 4.00141 10.741 4.29066C11.0792 4.63134 11.4236 5.17771 11.4236 6.10653V8.13131L11.8921 7.84848C11.9727 7.80027 12.0441 7.75849 12.0968 7.72957C12.103 7.72635 12.1061 7.72635 12.1092 7.72314C12.252 7.73921 12.3543 7.83884 12.3543 7.97061C12.3543 7.99632 12.3171 8.18273 12.2706 8.34985C12.2457 8.43342 12.2209 8.51698 12.2023 8.59411C12.1806 8.67125 12.162 8.72267 12.162 8.83837C12.162 8.92515 12.0937 8.99907 11.9882 8.99907H11.4329L11.4174 9.30439C11.3336 10.9628 10.1546 12.3094 8.61577 12.5955L8.5289 12.6115L8.46374 12.6758C8.34274 12.7915 8.18762 12.859 8.01698 12.859C7.84634 12.859 7.69121 12.7915 7.56711 12.6758L7.50195 12.6147L7.41508 12.5987C5.87622 12.3126 4.69725 10.9628 4.61348 9.30761L4.59797 9.00228H4.04261C3.93713 9.00228 3.86887 8.92515 3.86887 8.84159C3.86887 8.7291 3.84715 8.67446 3.82854 8.59733C3.80682 8.52019 3.7851 8.43663 3.76028 8.35307C3.71374 8.18594 3.67651 7.99632 3.67651 7.97382C3.67651 7.84527 3.7789 7.74242 3.92161 7.72635C3.92782 7.72635 3.92782 7.72957 3.93403 7.73278C3.98677 7.76171 4.05813 7.80349 4.13879 7.8517L4.60728 8.13452V7.08999C4.60728 6.28651 4.99199 5.74978 5.51012 5.37376C6.02824 4.99773 6.68909 4.82417 7.08932 4.82417C8.20003 4.82417 9.0222 4.57027 9.56825 4.31316C9.97468 4.12032 10.0802 4.00462 10.1919 3.91142L10.1795 3.9082Z" fill="white"/>
<path d="M7.67265 0C6.17102 0 4.82141 0.851691 3.841 1.67767C2.8606 2.50687 2.23699 3.33606 2.23699 3.33606L1.95776 3.70888L2.39522 3.84386C2.39522 3.84386 2.56586 3.89207 2.76752 4.1074C2.96919 4.32274 3.18637 4.68912 3.18637 5.38333C3.18637 6.28323 3.31978 7.00958 3.38493 7.31812C3.21119 7.48203 3.0995 7.71343 3.0995 7.97055C3.0995 8.17945 3.15844 8.35622 3.20808 8.53298C3.23291 8.61976 3.25773 8.70332 3.27324 8.76439C3.28875 8.82545 3.29185 8.88652 3.29185 8.83831C3.29185 9.28504 3.65795 9.64179 4.08611 9.64179H4.10472C4.24123 10.7474 4.78418 11.718 5.58153 12.3801V13.3507L4.63836 14.1959C2.46658 15.1794 -0.00305176 16.4971 -0.00305176 17.998V19.9264H10.1671C10.074 19.7175 9.99025 19.5053 9.91889 19.2836H8.65926L8.45139 16.5067L8.712 15.835L9.6769 16.5035C9.70792 16.2721 9.75136 16.0439 9.8072 15.8222L9.14326 15.3626C9.42249 15.1665 9.67379 14.9223 9.88787 14.6844C10.0895 14.4595 10.2571 14.2409 10.3874 14.0609L10.496 14.1574C10.6046 13.9742 10.7225 13.7974 10.8497 13.6271L10.5456 13.3539V12.3833C11.3399 11.7244 11.8828 10.7506 12.0193 9.645H12.0379C12.4661 9.645 12.8322 9.28826 12.8322 8.84152C12.8322 8.88652 12.8353 8.82867 12.8508 8.7676C12.8663 8.70654 12.8911 8.62297 12.916 8.5362C12.9656 8.36265 13.0245 8.18267 13.0245 7.97376C13.0245 7.71022 12.9097 7.47882 12.7329 7.31491C12.7888 6.97744 13.0245 5.52475 13.0245 4.50272C13.0245 3.34892 12.6088 2.51972 12.0441 2.00871C11.5384 1.54911 10.9458 1.36271 10.4184 1.32414C10.3346 1.18594 10.1826 0.967393 9.87236 0.713493C9.42559 0.353532 8.7089 0.00321393 7.66334 0.00321393L7.67265 0ZM7.67265 0.642786C8.5848 0.642786 9.14946 0.935254 9.49695 1.21808C9.84443 1.50091 9.95923 1.74838 9.95923 1.74838L10.0461 1.92836H10.2385C10.6511 1.92836 11.2065 2.09227 11.6408 2.48758C12.0752 2.8829 12.4102 3.49997 12.4102 4.4995C12.4102 5.39619 12.2024 6.70426 12.1434 7.07065C12.1434 7.07065 12.1403 7.07065 12.1372 7.07065C12.1124 7.07065 12.1155 7.07707 12.1 7.08029V6.10647C12.1 5.0073 11.6656 4.2681 11.2313 3.82779C10.7969 3.38748 10.3377 3.23 10.3377 3.23L10.1609 3.16894L10.0244 3.30392C10.0244 3.30392 9.82892 3.50318 9.35733 3.72495C8.88575 3.94671 8.15665 4.17811 7.13591 4.17811C6.57745 4.17811 5.84215 4.3838 5.20302 4.84339C4.567 5.30298 4.03646 6.05826 4.03336 7.08029C4.01475 7.08029 4.02095 7.07065 3.99303 7.07065C3.98682 7.07065 3.97752 7.07065 3.97131 7.07065C3.90926 6.75889 3.80688 6.15468 3.80688 5.38012C3.80688 4.53807 3.51524 3.97885 3.21119 3.65424C3.08398 3.51604 3.05296 3.53854 2.94127 3.47104C3.15534 3.21072 3.55247 2.7447 4.23193 2.17262C5.15338 1.39485 6.40061 0.636358 7.66955 0.636358L7.67265 0.642786ZM10.2385 3.90814C10.3129 3.93706 10.5115 4.00134 10.8 4.2906C11.1382 4.63127 11.4826 5.17764 11.4826 6.10647V8.13124L11.9511 7.84842C12.0317 7.80021 12.1031 7.75843 12.1558 7.7295C12.162 7.72629 12.1651 7.72629 12.1682 7.72307C12.311 7.73914 12.4133 7.83878 12.4133 7.97055C12.4133 7.99626 12.3761 8.18267 12.3296 8.34979C12.3048 8.43335 12.2799 8.51691 12.2613 8.59405C12.2396 8.67118 12.221 8.72261 12.221 8.83831C12.221 8.92508 12.1527 8.999 12.0472 8.999H11.4919L11.4764 9.30433C11.3926 10.9627 10.2136 12.3094 8.67477 12.5954L8.5879 12.6115L8.52275 12.6757C8.40175 12.7914 8.24662 12.8589 8.07598 12.8589C7.90534 12.8589 7.75021 12.7914 7.62611 12.6757L7.56096 12.6147L7.47409 12.5986C5.93522 12.3126 4.75626 10.9627 4.67249 9.30754L4.65697 9.00222H4.10162C3.99613 9.00222 3.92788 8.92508 3.92788 8.84152C3.92788 8.72903 3.90616 8.6744 3.88754 8.59726C3.86582 8.52013 3.84411 8.43657 3.81929 8.353C3.77275 8.18588 3.73552 7.99626 3.73552 7.97376C3.73552 7.8452 3.8379 7.74236 3.98062 7.72629C3.98682 7.72629 3.98682 7.7295 3.99303 7.73272C4.04577 7.76164 4.11713 7.80342 4.1978 7.85163L4.66628 8.13446V7.08993C4.66628 6.28645 5.051 5.74972 5.56912 5.37369C6.08725 4.99766 6.74809 4.82411 7.14832 4.82411C8.25903 4.82411 9.08121 4.57021 9.62726 4.31309C10.0337 4.12026 10.1392 4.00456 10.2509 3.91135L10.2385 3.90814ZM6.36027 7.71343C6.10276 7.71343 5.89489 7.92877 5.89489 8.19552C5.89489 8.46228 6.10276 8.67761 6.36027 8.67761C6.61778 8.67761 6.82565 8.46228 6.82565 8.19552C6.82565 7.92877 6.61778 7.71343 6.36027 7.71343ZM9.77308 7.71343C9.51556 7.71343 9.30769 7.92877 9.30769 8.19552C9.30769 8.46228 9.51556 8.67761 9.77308 8.67761C10.0306 8.67761 10.2385 8.46228 10.2385 8.19552C10.2385 7.92877 10.0306 7.71343 9.77308 7.71343ZM6.20515 12.8011C6.53712 12.9843 6.89701 13.1193 7.27863 13.1996C7.4958 13.3796 7.76573 13.4985 8.06667 13.4985C8.36762 13.4985 8.63754 13.3764 8.85472 13.1996C9.23633 13.1193 9.59623 12.9843 9.9282 12.8011V13.6303C9.8072 13.8006 9.63967 14.0224 9.4411 14.2441C9.02846 14.7005 8.48552 15.1055 8.06667 15.1055C7.64783 15.1055 7.10488 14.7005 6.69225 14.2441C6.49058 14.0224 6.32304 13.8006 6.20515 13.6303V12.8011ZM5.73976 14.0577C5.87007 14.2377 6.03761 14.4563 6.24238 14.6844C6.47507 14.9416 6.75119 15.2115 7.06145 15.4172L5.89799 16.2207L5.28679 14.4563L5.73976 14.0577ZM4.76556 14.8484L5.58153 17.2106L7.44927 15.9218L7.67575 16.51L7.46788 19.2868H0.62056V18.0012C0.62056 17.1656 2.01981 16.105 4.76556 14.8484ZM1.55132 18.0012C1.38068 18.0012 1.24107 18.1458 1.24107 18.3226C1.24107 18.4994 1.38068 18.644 1.55132 18.644C1.72196 18.644 1.86158 18.4994 1.86158 18.3226C1.86158 18.1458 1.72196 18.0012 1.55132 18.0012ZM2.79234 18.0012C2.6217 18.0012 2.48209 18.1458 2.48209 18.3226C2.48209 18.4994 2.6217 18.644 2.79234 18.644C2.96298 18.644 3.1026 18.4994 3.1026 18.3226C3.1026 18.1458 2.96298 18.0012 2.79234 18.0012ZM4.03336 18.0012C3.86272 18.0012 3.72311 18.1458 3.72311 18.3226C3.72311 18.4994 3.86272 18.644 4.03336 18.644C4.204 18.644 4.34362 18.4994 4.34362 18.3226C4.34362 18.1458 4.204 18.0012 4.03336 18.0012ZM5.27438 18.0012C5.10374 18.0012 4.96413 18.1458 4.96413 18.3226C4.96413 18.4994 5.10374 18.644 5.27438 18.644C5.44502 18.644 5.58464 18.4994 5.58464 18.3226C5.58464 18.1458 5.44502 18.0012 5.27438 18.0012ZM6.5154 18.0012C6.34476 18.0012 6.20515 18.1458 6.20515 18.3226C6.20515 18.4994 6.34476 18.644 6.5154 18.644C6.68604 18.644 6.82565 18.4994 6.82565 18.3226C6.82565 18.1458 6.68604 18.0012 6.5154 18.0012Z" fill="black"/>
<path d="M7.67267 0.687824C8.58482 0.687824 9.14948 0.980292 9.49697 1.26312C9.84445 1.54594 9.95925 1.79342 9.95925 1.79342L10.0461 1.9734H10.2385C10.6511 1.9734 11.2065 2.13731 11.6408 2.53262C12.0752 2.92793 12.4103 3.54501 12.4103 4.54454C12.4103 5.44123 12.2024 6.7493 12.1434 7.11568C12.1434 7.11568 12.1403 7.11568 12.1372 7.11568C12.1124 7.11568 12.1155 7.12211 12.1 7.12533V6.15151C12.1 5.05234 11.6656 4.31314 11.2313 3.87283C10.7969 3.43252 10.3378 3.27504 10.3378 3.27504L10.1609 3.21397L10.0244 3.34896C10.0244 3.34896 9.82894 3.54822 9.35735 3.76998C8.88577 3.99174 8.15667 4.22315 7.13593 4.22315C6.57747 4.22315 5.84217 4.42884 5.20304 4.88843C4.56702 5.34802 4.03648 6.1033 4.03338 7.12533C4.01477 7.12533 4.02097 7.11568 3.99305 7.11568C3.98684 7.11568 3.97754 7.11568 3.97133 7.11568C3.90928 6.80393 3.8069 6.19971 3.8069 5.42516C3.8069 4.58311 3.51526 4.02388 3.21121 3.69928C3.084 3.56108 3.05298 3.58358 2.94128 3.51608C3.15536 3.25575 3.55249 2.78973 4.23194 2.21766C5.1534 1.43988 6.40062 0.681396 7.66957 0.681396L7.67267 0.687824Z" fill="white"/>
<path d="M14.4641 21.212C16.7979 21.212 18.6898 19.2522 18.6898 16.8346C18.6898 14.4171 16.7979 12.4573 14.4641 12.4573C12.1304 12.4573 10.2385 14.4171 10.2385 16.8346C10.2385 19.2522 12.1304 21.212 14.4641 21.212Z" fill="white" stroke="black" stroke-width="0.55" stroke-miterlimit="10"/>
<path d="M16.6576 19.6564C16.549 19.5439 16.549 19.3607 16.6576 19.2482C16.7662 19.1357 16.943 19.1357 17.0516 19.2482L17.5728 19.7881C17.6876 19.6596 17.7962 19.5214 17.8955 19.3768L17.4084 18.8722C17.1012 18.554 16.6017 18.554 16.2946 18.8722C15.9874 19.1904 15.9874 19.7078 16.2946 20.026L16.7569 20.5049C16.8996 20.4084 17.0392 20.3024 17.1695 20.1899L16.6545 19.6564H16.6576Z" fill="black"/>
<path d="M14.8891 19.3864C14.8302 19.3253 14.7464 19.2996 14.6657 19.3124C13.8466 19.4635 13.0059 19.1903 12.4195 18.5829C11.83 17.9722 11.5725 17.0916 11.7152 16.256L12.9097 17.4934C13.3192 17.9176 13.9894 17.9176 14.3989 17.4934L14.9636 16.9084C15.3762 16.481 15.3762 15.7932 14.9636 15.3657L13.7691 14.1284C14.5789 13.9805 15.4258 14.2473 16.0153 14.8579C16.6017 15.4654 16.8654 16.3363 16.7196 17.1848C16.7041 17.2684 16.732 17.3552 16.791 17.4162L18.1995 18.8753C18.2833 18.7082 18.3547 18.5379 18.4198 18.3579L17.2408 17.1366C17.4518 15.5039 16.4156 13.9741 14.8643 13.627C14.3058 13.5017 13.7288 13.5402 13.192 13.7395C13.0152 13.8038 12.9655 14.0352 13.0989 14.1734L14.6037 15.7321C14.8177 15.9539 14.8177 16.3106 14.6037 16.5324L14.039 17.1173C13.8249 17.3391 13.4805 17.3391 13.2665 17.1173L11.7617 15.5586C11.6314 15.4236 11.4049 15.475 11.3429 15.655C11.1505 16.211 11.1133 16.8088 11.2343 17.3873C11.5694 18.9975 13.0493 20.0677 14.6223 19.8492L15.7392 21.0062C15.916 20.9483 16.0867 20.8744 16.2542 20.7941L14.8922 19.3831L14.8891 19.3864Z" fill="black"/>
</g>
<defs>
<clipPath id="clip0_1212_1373">
<rect width="19" height="21.5333" fill="white"/>
</clipPath>
</defs>
</svg>
