<svg width="14" height="15" viewBox="0 0 14 15" fill="none" xmlns="http://www.w3.org/2000/svg">
<path d="M9.29193 3.20756L11.1749 5.09578M0.990234 13.5055C1.0742 12.9177 1.12099 12.3063 1.31709 11.7429C1.43007 11.4183 1.5844 11.1097 1.77627 10.8245C1.99251 10.5032 2.27236 10.2234 2.83206 9.66366L10.6063 1.89321C11.127 1.37251 11.9712 1.37251 12.4919 1.89321C13.0126 2.41391 13.0126 3.25813 12.4919 3.77883L4.59799 11.669C4.12375 12.1432 3.88663 12.3803 3.61807 12.5723C3.37964 12.7428 3.1232 12.8866 2.85337 13.001C2.26413 13.2509 1.61108 13.3559 0.990234 13.5055Z" stroke="#272B32" stroke-width="1.5" stroke-linejoin="round"/>
</svg>
