<svg width="22" height="18" viewBox="0 0 22 18" fill="none" xmlns="http://www.w3.org/2000/svg">
<g clip-path="url(#clip0_1141_1264)">
<path d="M15.6413 1.64233C16.3502 1.64233 16.7627 1.89626 17.0133 2.14055C17.2638 2.38483 17.3372 2.60341 17.3372 2.60341L17.4013 2.79305H17.5938C17.9177 2.79305 18.2477 2.90555 18.5044 3.20126C18.7611 3.49698 18.9627 3.99198 18.9627 4.80841C18.9627 5.45126 18.7947 6.84948 18.7244 7.40233L18.6969 7.61126L18.8772 7.70126C18.9322 7.72698 18.9627 7.77198 18.9627 7.82662C18.9627 7.82983 18.9383 7.97126 18.9016 8.09662C18.8833 8.16091 18.865 8.22198 18.8497 8.27983C18.8344 8.33769 18.8191 8.37626 18.8191 8.47269C18.8191 8.50805 18.7916 8.54341 18.7366 8.54341H18.1408V8.93876C18.1408 9.78733 17.7527 10.533 17.1569 11.0023L17.0469 11.0891V12.7734L17.2302 12.8409C17.2302 12.8409 18.3761 13.2555 19.5158 13.8823C20.0841 14.1973 20.6494 14.5638 21.0588 14.9463C21.4683 15.3288 21.6944 15.708 21.6944 16.0198V16.5952H9.66467V16.0198C9.66467 15.708 9.89078 15.3288 10.3002 14.9463C10.7097 14.567 11.275 14.1973 11.8433 13.8823C12.983 13.2555 14.1288 12.8409 14.1288 12.8409L14.3122 12.7734V11.0891L14.2022 11.0023C13.6063 10.5298 13.2183 9.78412 13.2183 8.93555V8.54019H12.6225C12.5675 8.54019 12.54 8.50483 12.54 8.46948C12.54 8.37305 12.5247 8.33448 12.5094 8.27662C12.4941 8.21876 12.4758 8.15769 12.4575 8.09341C12.4238 7.97126 12.3963 7.82983 12.3963 7.82341C12.3963 7.77198 12.4269 7.72376 12.4788 7.69805L12.6591 7.60805L12.6316 7.39912C12.5613 6.85591 12.3933 5.49305 12.3933 4.80519C12.3933 3.83448 12.7355 3.05983 13.3069 2.51019C13.8783 1.96055 14.688 1.64233 15.6352 1.64233H15.6413Z" fill="#8FEDFF"/>
<path d="M6.16917 1.64258C6.87806 1.64258 7.29056 1.89651 7.54112 2.14079C7.79167 2.38508 7.865 2.60365 7.865 2.60365L7.92917 2.79329H8.12167C8.44556 2.79329 8.77556 2.90579 9.03223 3.20151C9.28889 3.49722 9.49056 3.99222 9.49056 4.80865C9.49056 5.45151 9.32251 6.84972 9.25223 7.40258L9.22473 7.61151L9.40501 7.70151C9.46001 7.72722 9.49056 7.77222 9.49056 7.82686C9.49056 7.83008 9.46612 7.97151 9.42945 8.09686C9.41112 8.16115 9.39278 8.22222 9.37751 8.28008C9.36223 8.33794 9.34695 8.37651 9.34695 8.47294C9.34695 8.50829 9.31945 8.54365 9.26445 8.54365H8.66862V8.93901C8.66862 9.78758 8.28056 10.5333 7.68473 11.0026L7.57473 11.0894V12.7736L7.75806 12.8411C7.75806 12.8411 8.90389 13.2558 10.0436 13.8826C10.6119 14.1976 11.1772 14.564 11.5867 14.9465C11.9961 15.329 12.2222 15.7083 12.2222 16.0201V16.5954H0.192505V16.0201C0.192505 15.7083 0.418616 15.329 0.82806 14.9465C1.2375 14.5672 1.80278 14.1976 2.37112 13.8826C3.51084 13.2558 4.65667 12.8411 4.65667 12.8411L4.84 12.7736V11.0894L4.73 11.0026C4.13417 10.5301 3.74612 9.78436 3.74612 8.93579V8.54043H3.15028C3.09528 8.54043 3.06778 8.50508 3.06778 8.46972C3.06778 8.37329 3.0525 8.33472 3.03723 8.27686C3.02195 8.21901 3.00362 8.15794 2.98528 8.09365C2.95167 7.97151 2.92417 7.83008 2.92417 7.82365C2.92417 7.77222 2.95473 7.72401 3.00667 7.69829L3.18695 7.60829L3.15945 7.39936C3.08917 6.85615 2.92112 5.49329 2.92112 4.80544C2.92112 3.83472 3.26334 3.06008 3.83473 2.51044C4.40612 1.96079 5.21584 1.64258 6.16306 1.64258H6.16917Z" fill="#01C9F1"/>
<path d="M10.9572 0.642822C11.7516 0.642822 12.2099 0.925679 12.491 1.19889C12.7691 1.47211 12.8547 1.71639 12.8547 1.71639L12.928 1.92854H13.1419C13.5055 1.92854 13.8722 2.05389 14.1594 2.38175C14.4466 2.70961 14.6697 3.26568 14.6697 4.17854C14.6697 4.89854 14.4833 6.46068 14.4008 7.07782L14.3702 7.31247L14.5719 7.41211C14.633 7.44104 14.6666 7.49247 14.6666 7.55354C14.6666 7.55997 14.6391 7.71747 14.5994 7.85568C14.578 7.92639 14.5597 7.99389 14.5413 8.06139C14.526 8.12568 14.5077 8.17068 14.5077 8.27997C14.5077 8.31854 14.4772 8.36032 14.416 8.36032H13.7499V8.80389C13.7499 9.75211 13.316 10.5846 12.6499 11.1118L12.5277 11.2082V13.0918L12.7355 13.1657C12.7355 13.1657 14.0188 13.6285 15.2899 14.3293C15.9255 14.6796 16.558 15.0943 17.0133 15.5185C17.4685 15.946 17.7222 16.3703 17.7222 16.7175V17.3603H4.27771V16.7175C4.27771 16.3671 4.53132 15.9428 4.9866 15.5185C5.44188 15.0943 6.07438 14.6796 6.70993 14.3293C7.98104 13.6285 9.26438 13.1657 9.26438 13.1657L9.47215 13.0918V11.2082L9.34993 11.1118C8.68382 10.5846 8.24993 9.74889 8.24993 8.80389V8.36032H7.58382C7.52271 8.36032 7.49215 8.32175 7.49215 8.27997C7.49215 8.17068 7.47382 8.12889 7.45854 8.06139C7.44021 7.99711 7.42188 7.92639 7.40049 7.85568C7.36382 7.71747 7.33327 7.55997 7.33327 7.55354C7.33327 7.49568 7.36688 7.44104 7.42493 7.41211L7.6266 7.31247L7.59604 7.07782C7.5166 6.47032 7.33021 4.94675 7.33021 4.17854C7.33021 3.09532 7.71215 2.22747 8.35077 1.61354C8.98938 0.999608 9.89382 0.642822 10.9541 0.642822H10.9572Z" fill="white"/>
<path d="M10.9572 4.04575e-05C9.76556 4.04575e-05 8.70528 0.408255 7.94139 1.14111C7.7825 1.2954 7.63889 1.46575 7.5075 1.64575C7.19583 1.44647 6.77417 1.28897 6.22722 1.28897C5.2525 1.28897 4.38167 1.62325 3.75222 2.23075C3.12583 2.83825 2.75 3.71575 2.75 4.74111C2.75 5.40968 2.91194 6.61825 3.00056 7.28361C2.86 7.40897 2.75 7.56968 2.75 7.78183C2.75 7.95861 2.79583 8.07433 2.8325 8.19004C2.85083 8.25111 2.86611 8.30254 2.87528 8.34111C2.8875 8.37968 2.88444 8.42147 2.88444 8.35718C2.88444 8.66897 3.11972 8.8779 3.39167 8.9454C3.46194 9.78754 3.84694 10.5268 4.43056 11.0347V12.3075C4.26861 12.3654 3.40389 12.6547 2.37417 13.1915C1.81194 13.484 1.24361 13.8279 0.7975 14.22C0.354444 14.609 0 15.0654 0 15.6183V16.7111H3.66667V17.9968H18.3333V16.7111H22V15.6183C22 15.0654 21.6456 14.6122 21.2025 14.22C20.7594 13.8279 20.1911 13.484 19.6258 13.1915C18.5931 12.6547 17.7314 12.3622 17.5694 12.3075V11.0347C18.1531 10.5268 18.5381 9.78433 18.6083 8.9454C18.8803 8.8779 19.1156 8.66897 19.1156 8.35718C19.1156 8.42147 19.1156 8.37968 19.1247 8.34111C19.1339 8.30254 19.1522 8.2479 19.1675 8.19004C19.2011 8.07111 19.25 7.9554 19.25 7.78183C19.25 7.56968 19.14 7.40897 18.9994 7.28361C19.0881 6.60861 19.25 5.37754 19.25 4.74111C19.25 3.89575 19.0239 3.26575 18.6725 2.85111C18.3608 2.49111 17.9636 2.3304 17.5817 2.28861C17.5267 2.18575 17.4808 2.0604 17.2486 1.84825C16.9706 1.59754 16.5428 1.35325 15.95 1.29861C15.9317 1.29861 15.9133 1.28575 15.895 1.28575C15.8828 1.28575 15.8736 1.29218 15.8614 1.29218C15.8094 1.29218 15.7606 1.28575 15.7056 1.28575C15.1586 1.28575 14.6483 1.39504 14.19 1.59433C13.9242 1.43361 13.6339 1.35325 13.3497 1.32433C13.2764 1.17968 13.1572 0.96754 12.9097 0.726469C12.5308 0.356826 11.8983 -0.00317383 10.9603 -0.00317383L10.9572 4.04575e-05ZM10.9572 0.642898C11.7517 0.642898 12.21 0.925755 12.4911 1.19897C12.7692 1.47218 12.8547 1.71647 12.8547 1.71647L12.9281 1.92861H13.1419C13.5056 1.92861 13.8722 2.05397 14.1594 2.38183C14.4467 2.70968 14.6697 3.26575 14.6697 4.17861C14.6697 4.89861 14.4833 6.46075 14.4008 7.0779L14.3703 7.31254L14.5719 7.41218C14.6331 7.44111 14.6667 7.49254 14.6667 7.55361C14.6667 7.56004 14.6392 7.71754 14.5994 7.85575C14.5781 7.92647 14.5597 7.99397 14.5414 8.06147C14.5261 8.12575 14.5078 8.17075 14.5078 8.28004C14.5078 8.31861 14.4772 8.3604 14.4161 8.3604H13.75V8.80397C13.75 9.75218 13.3161 10.5847 12.65 11.1118L12.5278 11.2083V13.0918L12.7356 13.1658C12.7356 13.1658 14.0189 13.6286 15.29 14.3293C15.9256 14.6797 16.5581 15.0943 17.0133 15.5186C17.4686 15.9461 17.7222 16.3704 17.7222 16.7175V17.3604H4.27778V16.7175C4.27778 16.3672 4.53139 15.9429 4.98667 15.5186C5.44194 15.0943 6.07444 14.6797 6.71 14.3293C7.98111 13.6286 9.26444 13.1658 9.26444 13.1658L9.47222 13.0918V11.2083L9.35 11.1118C8.68389 10.5847 8.25 9.74897 8.25 8.80397V8.3604H7.58389C7.52278 8.3604 7.49222 8.32183 7.49222 8.28004C7.49222 8.17075 7.47389 8.12897 7.45861 8.06147C7.44028 7.99718 7.42194 7.92647 7.40056 7.85575C7.36389 7.71754 7.33333 7.56004 7.33333 7.55361C7.33333 7.49575 7.36694 7.44111 7.425 7.41218L7.62667 7.31254L7.59611 7.0779C7.51667 6.4704 7.33028 4.94683 7.33028 4.17861C7.33028 3.0954 7.71222 2.22754 8.35083 1.61361C8.98944 0.999683 9.89389 0.642898 10.9542 0.642898H10.9572ZM6.22722 1.92861C6.65806 1.92861 6.96056 2.04433 7.18056 2.18254C7.00333 2.5329 6.875 2.9154 6.79861 3.33004C6.75278 3.38468 6.72222 3.4554 6.72222 3.53575C6.72222 3.58397 6.73444 3.62897 6.74972 3.66754C6.73139 3.83468 6.72222 4.00504 6.72222 4.17861C6.72222 4.49361 6.74972 4.88254 6.78639 5.2779C6.74972 5.32933 6.72222 5.39361 6.72222 5.46433C6.72222 5.55754 6.76194 5.64111 6.82306 5.69897C6.875 6.19718 6.93611 6.67933 6.97889 7.00075C6.83528 7.1454 6.72222 7.32861 6.72222 7.55361C6.72222 7.74325 6.77417 7.89111 6.81389 8.03575C6.83528 8.10968 6.85361 8.17718 6.86583 8.22861C6.87806 8.28004 6.88111 8.32825 6.88111 8.27683C6.88111 8.67861 7.20806 9.00004 7.58389 9.00004H7.66028C7.67861 9.34397 7.74889 9.67183 7.85278 9.98361C7.7275 10.0254 7.63583 10.1411 7.63583 10.2858C7.63583 10.4625 7.77333 10.6072 7.94139 10.6072C8.0025 10.6072 8.0575 10.5847 8.10333 10.5525C8.23167 10.7872 8.38444 11.0058 8.56167 11.2018C8.55861 11.2179 8.5525 11.234 8.5525 11.25C8.5525 11.4268 8.69 11.5715 8.85806 11.5715V12.6354C8.65944 12.7093 8.06361 12.9343 7.30583 13.3008C7.32111 13.2622 7.33028 13.2204 7.33028 13.1754C7.33028 12.9986 7.19278 12.854 7.02472 12.854C6.85667 12.854 6.71917 12.9986 6.71917 13.1754C6.71917 13.3233 6.81694 13.4454 6.94833 13.4808C6.77417 13.5675 6.60611 13.6511 6.42278 13.7508C6.36167 13.7861 6.30361 13.8183 6.24556 13.8536C6.20278 13.8311 6.15694 13.815 6.10806 13.815C5.94611 13.815 5.81778 13.9468 5.80861 14.114C5.3625 14.3904 4.93472 14.6925 4.58028 15.0268C4.24417 15.3418 3.96 15.6858 3.80111 16.065H2.74694C2.74694 15.8883 2.60944 15.7436 2.44139 15.7436C2.27333 15.7436 2.13583 15.8883 2.13583 16.065H0.916667C0.916667 15.8883 0.779167 15.7436 0.611111 15.7436V15.615C0.611111 15.374 0.806667 15.0461 1.18861 14.7086C1.45444 14.474 1.79361 14.2458 2.15722 14.0336C2.14806 14.0658 2.13889 14.0979 2.13889 14.1365C2.13889 14.3133 2.27639 14.4579 2.44444 14.4579C2.6125 14.4579 2.75 14.3133 2.75 14.1365C2.75 13.9886 2.65222 13.8665 2.52083 13.8311C2.56361 13.8086 2.60333 13.7861 2.64306 13.7636C2.85083 13.6543 3.0525 13.5611 3.25111 13.4679C3.28472 13.484 3.32139 13.4904 3.36111 13.4904C3.48944 13.4904 3.59639 13.41 3.64222 13.2911C4.2625 13.0243 4.74222 12.854 4.76667 12.8475H5.04167V11.5136C5.0875 11.5425 5.13639 11.5618 5.19444 11.5618C5.3625 11.5618 5.5 11.4172 5.5 11.2404C5.5 11.0636 5.3625 10.919 5.19444 10.919C5.13639 10.919 5.0875 10.9383 5.04167 10.9672V10.7229L4.91639 10.6265C4.79417 10.53 4.68111 10.4208 4.57722 10.305C4.57722 10.2922 4.58333 10.2858 4.58333 10.2761C4.58333 10.1186 4.47333 9.99325 4.32972 9.96754C4.10361 9.59468 3.97222 9.15111 3.97222 8.6754V8.35075H3.52917C3.4925 8.35075 3.49556 8.3379 3.49556 8.35075C3.49556 8.24468 3.47722 8.20933 3.46194 8.15468C3.44667 8.10004 3.43139 8.0454 3.41306 7.99075C3.37944 7.88147 3.35806 7.7529 3.35806 7.77218C3.35806 7.75611 3.36722 7.73361 3.41611 7.71754L3.6575 7.63075L3.64222 7.50861C3.6575 7.47004 3.66667 7.42825 3.66667 7.38325C3.66667 7.31254 3.63917 7.24825 3.6025 7.19683C3.55361 6.82075 3.48639 6.29361 3.43444 5.76325C3.56583 5.7279 3.66667 5.60575 3.66667 5.4579C3.66667 5.28754 3.54139 5.15254 3.3825 5.1429C3.37333 4.99504 3.36111 4.83754 3.36111 4.73147C3.36111 4.4004 3.40389 4.09825 3.48944 3.82183C3.59333 3.7704 3.66667 3.66111 3.66667 3.52933C3.66667 3.49075 3.6575 3.4554 3.64528 3.42004C3.75528 3.18861 3.89889 2.97968 4.06694 2.79968C4.12194 2.85433 4.19528 2.88968 4.27472 2.88968C4.44278 2.88968 4.58028 2.74504 4.58028 2.56825C4.58028 2.50718 4.55889 2.45254 4.53139 2.40433C4.99278 2.09897 5.56722 1.9254 6.22417 1.9254L6.22722 1.92861ZM3.97222 8.35718C3.97222 8.53397 4.10972 8.67861 4.27778 8.67861C4.44583 8.67861 4.58333 8.53397 4.58333 8.35718C4.58333 8.1804 4.44583 8.03575 4.27778 8.03575C4.10972 8.03575 3.97222 8.1804 3.97222 8.35718ZM15.6994 1.92861C16.2067 1.92861 16.5306 2.08933 16.7536 2.2629C16.6131 2.28861 16.5 2.41397 16.5 2.57147C16.5 2.74825 16.6375 2.8929 16.8056 2.8929C16.9522 2.8929 17.0714 2.7804 17.0989 2.63575C17.1142 2.66468 17.1386 2.70325 17.1386 2.70325L17.2211 2.8929H17.4167C17.6856 2.8929 17.9789 3.00218 18.2142 3.27861C18.3822 3.47468 18.5289 3.76718 18.5961 4.18504C18.4494 4.20754 18.3333 4.33611 18.3333 4.49683C18.3333 4.67361 18.4678 4.81504 18.6328 4.81825C18.6267 5.12683 18.5808 5.6154 18.5258 6.12647C18.4128 6.17468 18.3333 6.28718 18.3333 6.4254C18.3333 6.53147 18.3853 6.62147 18.4586 6.67933C18.4281 6.9204 18.3975 7.2129 18.3761 7.37361L18.3425 7.63718L18.5839 7.72397C18.6328 7.74004 18.6419 7.76254 18.6419 7.77861C18.6419 7.75933 18.6206 7.8879 18.5869 7.99718C18.5808 8.01325 18.5747 8.03254 18.5717 8.05183C18.4372 8.08397 18.3364 8.20611 18.3364 8.35718H18.0308V8.68183C18.0308 8.84575 18.0125 9.00325 17.9819 9.15754C17.9269 9.06433 17.8353 9.00004 17.7253 9.00004C17.5572 9.00004 17.4197 9.14468 17.4197 9.32147C17.4197 9.49825 17.5572 9.6429 17.7253 9.6429C17.7711 9.6429 17.8139 9.63004 17.8536 9.61397C17.6886 10.0254 17.4258 10.379 17.0867 10.6393L16.9614 10.7358V11.9443C16.9156 11.9154 16.8667 11.8961 16.8086 11.8961C16.6406 11.8961 16.5031 12.0408 16.5031 12.2175C16.5031 12.3943 16.6406 12.539 16.8086 12.539C16.8667 12.539 16.9156 12.5197 16.9614 12.4908V12.8604H17.2364C17.2364 12.8604 17.4258 12.9343 17.5053 12.96C17.4533 13.0179 17.4197 13.095 17.4197 13.1818C17.4197 13.3586 17.5572 13.5033 17.7253 13.5033C17.8933 13.5033 18.0308 13.3586 18.0308 13.1818C18.0308 13.1754 18.0278 13.169 18.0278 13.1625C18.4067 13.3168 18.8772 13.5225 19.36 13.7733C19.6472 13.9211 19.9283 14.085 20.1911 14.2554C20.2339 14.3775 20.3439 14.4675 20.4753 14.4675C20.4814 14.4675 20.4875 14.4643 20.4936 14.4643C20.6097 14.5479 20.7136 14.6347 20.8114 14.7183C20.9275 14.8211 21.0192 14.9208 21.1017 15.0204C21.0925 15.0493 21.0833 15.0783 21.0833 15.1104C21.0833 15.2743 21.1994 15.4029 21.3492 15.4222C21.3736 15.4961 21.3889 15.5604 21.3889 15.6215V16.0715H20.7778C20.7778 15.8947 20.6403 15.75 20.4722 15.75C20.3042 15.75 20.1667 15.8947 20.1667 16.0715H18.9444C18.9444 15.8947 18.8069 15.75 18.6389 15.75C18.4708 15.75 18.3333 15.8947 18.3333 16.0715H18.1958C18.0981 15.84 17.9575 15.6215 17.7833 15.4158C17.9208 15.3868 18.0278 15.2615 18.0278 15.1072C18.0278 14.9304 17.8903 14.7858 17.7222 14.7858C17.5756 14.7858 17.4564 14.8983 17.4289 15.0429C17.4258 15.0429 17.4228 15.0365 17.4197 15.0333C16.9003 14.5511 16.2342 14.1204 15.5742 13.7572C15.1281 13.5129 14.7217 13.3168 14.3581 13.1497C14.3428 12.9858 14.2175 12.8572 14.0586 12.8572C13.9883 12.8572 13.9242 12.8861 13.8722 12.9311C13.53 12.7865 13.2581 12.6772 13.1419 12.6354V12.5358C13.31 12.5358 13.4475 12.3911 13.4475 12.2143C13.4475 12.0375 13.31 11.8929 13.1419 11.8929V11.5008C13.7042 11.009 14.1014 10.3308 14.2633 9.55933C14.3244 9.50147 14.3642 9.4179 14.3642 9.32468C14.3642 9.26683 14.3489 9.21861 14.3214 9.17361C14.3275 9.11575 14.3367 9.06111 14.3397 9.00325H14.4161C14.6575 9.00325 14.8744 8.87147 15.0028 8.6754C15.1556 8.65933 15.2808 8.52754 15.2808 8.3604C15.2808 8.26075 15.235 8.17397 15.1678 8.11611C15.1739 8.0904 15.18 8.07111 15.1892 8.03897C15.2289 7.89433 15.2808 7.74647 15.2808 7.55683C15.2808 7.32861 15.1678 7.14861 15.0242 7.00397C15.0333 6.93647 15.0456 6.81433 15.0578 6.73718C15.1861 6.69861 15.2839 6.57968 15.2839 6.43183C15.2839 6.30968 15.2197 6.21004 15.125 6.1554C15.2044 5.47718 15.2839 4.72504 15.2839 4.18183C15.2839 3.67075 15.2197 3.23361 15.1036 2.86718C15.2106 2.81575 15.2839 2.70647 15.2839 2.57468C15.2839 2.3979 15.1464 2.25325 14.9783 2.25325C14.9325 2.25325 14.8867 2.26611 14.8469 2.28861C14.8042 2.21468 14.7583 2.14718 14.7125 2.0829C15.0181 1.98647 15.3481 1.93183 15.7025 1.93183L15.6994 1.92861ZM6.11111 2.25004C5.94306 2.25004 5.80556 2.39468 5.80556 2.57147C5.80556 2.74825 5.94306 2.8929 6.11111 2.8929C6.27917 2.8929 6.41667 2.74825 6.41667 2.57147C6.41667 2.39468 6.27917 2.25004 6.11111 2.25004ZM5.19444 3.21433C5.02639 3.21433 4.88889 3.35897 4.88889 3.53575C4.88889 3.71254 5.02639 3.85718 5.19444 3.85718C5.3625 3.85718 5.5 3.71254 5.5 3.53575C5.5 3.35897 5.3625 3.21433 5.19444 3.21433ZM15.8889 3.21433C15.7208 3.21433 15.5833 3.35897 15.5833 3.53575C15.5833 3.71254 15.7208 3.85718 15.8889 3.85718C16.0569 3.85718 16.1944 3.71254 16.1944 3.53575C16.1944 3.35897 16.0569 3.21433 15.8889 3.21433ZM17.7222 3.21433C17.5542 3.21433 17.4167 3.35897 17.4167 3.53575C17.4167 3.71254 17.5542 3.85718 17.7222 3.85718C17.8903 3.85718 18.0278 3.71254 18.0278 3.53575C18.0278 3.35897 17.8903 3.21433 17.7222 3.21433ZM4.27778 4.17861C4.10972 4.17861 3.97222 4.32325 3.97222 4.50004C3.97222 4.67683 4.10972 4.82147 4.27778 4.82147C4.44583 4.82147 4.58333 4.67683 4.58333 4.50004C4.58333 4.32325 4.44583 4.17861 4.27778 4.17861ZM6.11111 4.17861C5.94306 4.17861 5.80556 4.32325 5.80556 4.50004C5.80556 4.67683 5.94306 4.82147 6.11111 4.82147C6.27917 4.82147 6.41667 4.67683 6.41667 4.50004C6.41667 4.32325 6.27917 4.17861 6.11111 4.17861ZM16.8056 4.17861C16.6375 4.17861 16.5 4.32325 16.5 4.50004C16.5 4.67683 16.6375 4.82147 16.8056 4.82147C16.9736 4.82147 17.1111 4.67683 17.1111 4.50004C17.1111 4.32325 16.9736 4.17861 16.8056 4.17861ZM5.19444 5.1429C5.02639 5.1429 4.88889 5.28754 4.88889 5.46433C4.88889 5.64111 5.02639 5.78575 5.19444 5.78575C5.3625 5.78575 5.5 5.64111 5.5 5.46433C5.5 5.28754 5.3625 5.1429 5.19444 5.1429ZM15.8889 5.1429C15.7208 5.1429 15.5833 5.28754 15.5833 5.46433C15.5833 5.64111 15.7208 5.78575 15.8889 5.78575C16.0569 5.78575 16.1944 5.64111 16.1944 5.46433C16.1944 5.28754 16.0569 5.1429 15.8889 5.1429ZM17.7222 5.1429C17.5542 5.1429 17.4167 5.28754 17.4167 5.46433C17.4167 5.64111 17.5542 5.78575 17.7222 5.78575C17.8903 5.78575 18.0278 5.64111 18.0278 5.46433C18.0278 5.28754 17.8903 5.1429 17.7222 5.1429ZM4.27778 6.10718C4.10972 6.10718 3.97222 6.25183 3.97222 6.42861C3.97222 6.6054 4.10972 6.75004 4.27778 6.75004C4.44583 6.75004 4.58333 6.6054 4.58333 6.42861C4.58333 6.25183 4.44583 6.10718 4.27778 6.10718ZM6.11111 6.10718C5.94306 6.10718 5.80556 6.25183 5.80556 6.42861C5.80556 6.6054 5.94306 6.75004 6.11111 6.75004C6.27917 6.75004 6.41667 6.6054 6.41667 6.42861C6.41667 6.25183 6.27917 6.10718 6.11111 6.10718ZM16.8056 6.10718C16.6375 6.10718 16.5 6.25183 16.5 6.42861C16.5 6.6054 16.6375 6.75004 16.8056 6.75004C16.9736 6.75004 17.1111 6.6054 17.1111 6.42861C17.1111 6.25183 16.9736 6.10718 16.8056 6.10718ZM5.19444 7.07147C5.02639 7.07147 4.88889 7.21611 4.88889 7.3929C4.88889 7.56968 5.02639 7.71433 5.19444 7.71433C5.3625 7.71433 5.5 7.56968 5.5 7.3929C5.5 7.21611 5.3625 7.07147 5.19444 7.07147ZM15.8889 7.07147C15.7208 7.07147 15.5833 7.21611 15.5833 7.3929C15.5833 7.56968 15.7208 7.71433 15.8889 7.71433C16.0569 7.71433 16.1944 7.56968 16.1944 7.3929C16.1944 7.21611 16.0569 7.07147 15.8889 7.07147ZM17.7222 7.07147C17.5542 7.07147 17.4167 7.21611 17.4167 7.3929C17.4167 7.56968 17.5542 7.71433 17.7222 7.71433C17.8903 7.71433 18.0278 7.56968 18.0278 7.3929C18.0278 7.21611 17.8903 7.07147 17.7222 7.07147ZM6.11111 8.03575C5.94306 8.03575 5.80556 8.1804 5.80556 8.35718C5.80556 8.53397 5.94306 8.67861 6.11111 8.67861C6.27917 8.67861 6.41667 8.53397 6.41667 8.35718C6.41667 8.1804 6.27917 8.03575 6.11111 8.03575ZM16.8056 8.03575C16.6375 8.03575 16.5 8.1804 16.5 8.35718C16.5 8.53397 16.6375 8.67861 16.8056 8.67861C16.9736 8.67861 17.1111 8.53397 17.1111 8.35718C17.1111 8.1804 16.9736 8.03575 16.8056 8.03575ZM5.19444 9.00004C5.02639 9.00004 4.88889 9.14468 4.88889 9.32147C4.88889 9.49825 5.02639 9.6429 5.19444 9.6429C5.3625 9.6429 5.5 9.49825 5.5 9.32147C5.5 9.14468 5.3625 9.00004 5.19444 9.00004ZM7.02778 9.00004C6.85972 9.00004 6.72222 9.14468 6.72222 9.32147C6.72222 9.49825 6.85972 9.6429 7.02778 9.6429C7.19583 9.6429 7.33333 9.49825 7.33333 9.32147C7.33333 9.14468 7.19583 9.00004 7.02778 9.00004ZM15.8889 9.00004C15.7208 9.00004 15.5833 9.14468 15.5833 9.32147C15.5833 9.49825 15.7208 9.6429 15.8889 9.6429C16.0569 9.6429 16.1944 9.49825 16.1944 9.32147C16.1944 9.14468 16.0569 9.00004 15.8889 9.00004ZM6.11111 9.96433C5.94306 9.96433 5.80556 10.109 5.80556 10.2858C5.80556 10.4625 5.94306 10.6072 6.11111 10.6072C6.27917 10.6072 6.41667 10.4625 6.41667 10.2858C6.41667 10.109 6.27917 9.96433 6.11111 9.96433ZM14.9722 9.96433C14.8042 9.96433 14.6667 10.109 14.6667 10.2858C14.6667 10.4625 14.8042 10.6072 14.9722 10.6072C15.1403 10.6072 15.2778 10.4625 15.2778 10.2858C15.2778 10.109 15.1403 9.96433 14.9722 9.96433ZM16.8056 9.96433C16.6375 9.96433 16.5 10.109 16.5 10.2858C16.5 10.4625 16.6375 10.6072 16.8056 10.6072C16.9736 10.6072 17.1111 10.4625 17.1111 10.2858C17.1111 10.109 16.9736 9.96433 16.8056 9.96433ZM7.02778 10.9286C6.85972 10.9286 6.72222 11.0733 6.72222 11.25C6.72222 11.4268 6.85972 11.5715 7.02778 11.5715C7.19583 11.5715 7.33333 11.4268 7.33333 11.25C7.33333 11.0733 7.19583 10.9286 7.02778 10.9286ZM14.0556 10.9286C13.8875 10.9286 13.75 11.0733 13.75 11.25C13.75 11.4268 13.8875 11.5715 14.0556 11.5715C14.2236 11.5715 14.3611 11.4268 14.3611 11.25C14.3611 11.0733 14.2236 10.9286 14.0556 10.9286ZM15.8889 10.9286C15.7208 10.9286 15.5833 11.0733 15.5833 11.25C15.5833 11.4268 15.7208 11.5715 15.8889 11.5715C16.0569 11.5715 16.1944 11.4268 16.1944 11.25C16.1944 11.0733 16.0569 10.9286 15.8889 10.9286ZM6.11111 11.8929C5.94306 11.8929 5.80556 12.0375 5.80556 12.2143C5.80556 12.3911 5.94306 12.5358 6.11111 12.5358C6.27917 12.5358 6.41667 12.3911 6.41667 12.2143C6.41667 12.0375 6.27917 11.8929 6.11111 11.8929ZM7.94444 11.8929C7.77639 11.8929 7.63889 12.0375 7.63889 12.2143C7.63889 12.3911 7.77639 12.5358 7.94444 12.5358C8.1125 12.5358 8.25 12.3911 8.25 12.2143C8.25 12.0375 8.1125 11.8929 7.94444 11.8929ZM14.9722 11.8929C14.8042 11.8929 14.6667 12.0375 14.6667 12.2143C14.6667 12.3911 14.8042 12.5358 14.9722 12.5358C15.1403 12.5358 15.2778 12.3911 15.2778 12.2143C15.2778 12.0375 15.1403 11.8929 14.9722 11.8929ZM5.19444 12.8572C5.02639 12.8572 4.88889 13.0018 4.88889 13.1786C4.88889 13.3554 5.02639 13.5 5.19444 13.5C5.3625 13.5 5.5 13.3554 5.5 13.1786C5.5 13.0018 5.3625 12.8572 5.19444 12.8572ZM15.8889 12.8572C15.7208 12.8572 15.5833 13.0018 15.5833 13.1786C15.5833 13.3554 15.7208 13.5 15.8889 13.5C16.0569 13.5 16.1944 13.3554 16.1944 13.1786C16.1944 13.0018 16.0569 12.8572 15.8889 12.8572ZM4.27778 13.8215C4.10972 13.8215 3.97222 13.9661 3.97222 14.1429C3.97222 14.3197 4.10972 14.4643 4.27778 14.4643C4.44583 14.4643 4.58333 14.3197 4.58333 14.1429C4.58333 13.9661 4.44583 13.8215 4.27778 13.8215ZM16.8056 13.8215C16.6375 13.8215 16.5 13.9661 16.5 14.1429C16.5 14.3197 16.6375 14.4643 16.8056 14.4643C16.9736 14.4643 17.1111 14.3197 17.1111 14.1429C17.1111 13.9661 16.9736 13.8215 16.8056 13.8215ZM18.6389 13.8215C18.4708 13.8215 18.3333 13.9661 18.3333 14.1429C18.3333 14.3197 18.4708 14.4643 18.6389 14.4643C18.8069 14.4643 18.9444 14.3197 18.9444 14.1429C18.9444 13.9661 18.8069 13.8215 18.6389 13.8215ZM1.52778 14.7858C1.35972 14.7858 1.22222 14.9304 1.22222 15.1072C1.22222 15.284 1.35972 15.4286 1.52778 15.4286C1.69583 15.4286 1.83333 15.284 1.83333 15.1072C1.83333 14.9304 1.69583 14.7858 1.52778 14.7858ZM3.36111 14.7858C3.19306 14.7858 3.05556 14.9304 3.05556 15.1072C3.05556 15.284 3.19306 15.4286 3.36111 15.4286C3.52917 15.4286 3.66667 15.284 3.66667 15.1072C3.66667 14.9304 3.52917 14.7858 3.36111 14.7858ZM19.5556 14.7858C19.3875 14.7858 19.25 14.9304 19.25 15.1072C19.25 15.284 19.3875 15.4286 19.5556 15.4286C19.7236 15.4286 19.8611 15.284 19.8611 15.1072C19.8611 14.9304 19.7236 14.7858 19.5556 14.7858Z" fill="black"/>
</g>
<defs>
<clipPath id="clip0_1141_1264">
<rect width="22" height="18" fill="white"/>
</clipPath>
</defs>
</svg>
