<svg width="22" height="17" viewBox="0 0 22 17" fill="none" xmlns="http://www.w3.org/2000/svg">
<g clip-path="url(#clip0_1141_1243)">
<path d="M10.9573 0.604492C11.7517 0.604492 12.2101 0.870426 12.4912 1.12729C12.7692 1.38416 12.8548 1.61383 12.8548 1.61383L12.9281 1.81328H13.142C13.5056 1.81328 13.8723 1.93114 14.1595 2.23938C14.4467 2.54762 14.6698 3.07043 14.6698 3.92867C14.6698 4.60559 14.4834 6.07427 14.4009 6.65449L14.3703 6.8751L14.572 6.96878C14.6331 6.99598 14.6667 7.04433 14.6667 7.10174C14.6667 7.10779 14.6392 7.25587 14.5995 7.38581C14.5781 7.45229 14.5598 7.51576 14.5414 7.57922C14.5262 7.63966 14.5078 7.68196 14.5078 7.78471C14.5078 7.82098 14.4773 7.86026 14.4162 7.86026H13.7501V8.27729C13.7501 9.16878 13.3162 9.95147 12.6501 10.4471L12.5278 10.5377V12.3086L12.7356 12.3781C12.7356 12.3781 14.0189 12.8133 15.2901 13.4721C15.9256 13.8015 16.5581 14.1913 17.0134 14.5902C17.4687 14.9921 17.7223 15.391 17.7223 15.7174V16.3218H4.27783V15.7174C4.27783 15.388 4.53144 14.9891 4.98672 14.5902C5.442 14.1913 6.0745 13.8015 6.71005 13.4721C7.98116 12.8133 9.2645 12.3781 9.2645 12.3781L9.47228 12.3086V10.5377L9.35005 10.4471C8.68394 9.95147 8.25005 9.16576 8.25005 8.27729V7.86026H7.58394C7.52283 7.86026 7.49228 7.824 7.49228 7.78471C7.49228 7.68196 7.47394 7.64268 7.45867 7.57922C7.44033 7.51878 7.422 7.45229 7.40061 7.38581C7.36394 7.25587 7.33339 7.10779 7.33339 7.10174C7.33339 7.04735 7.367 6.99598 7.42505 6.96878L7.62672 6.8751L7.59617 6.65449C7.51672 6.08334 7.33033 4.65092 7.33033 3.92867C7.33033 2.91026 7.71228 2.09433 8.35089 1.51713C8.9895 0.939932 9.89394 0.604492 10.9542 0.604492H10.9573Z" fill="white"/>
<path d="M10.9572 9.22903e-05C9.76556 9.22903e-05 8.70528 0.383883 7.94139 1.07289C7.7825 1.21795 7.63889 1.37811 7.5075 1.54734C7.19583 1.35998 6.77417 1.21191 6.22722 1.21191C5.2525 1.21191 4.38167 1.52619 3.75222 2.09735C3.12583 2.6685 2.75 3.4935 2.75 4.45751C2.75 5.08608 2.91194 6.22234 3.00056 6.84789C2.86 6.96575 2.75 7.11685 2.75 7.3163C2.75 7.48251 2.79583 7.5913 2.8325 7.70009C2.85083 7.75751 2.86611 7.80586 2.87528 7.84212C2.8875 7.87839 2.88444 7.91767 2.88444 7.85723C2.88444 8.15037 3.11972 8.3468 3.39167 8.41026C3.46194 9.20201 3.84694 9.89707 4.43056 10.3745V11.5712C4.26861 11.6256 3.40389 11.8976 2.37417 12.4023C1.81194 12.6773 1.24361 13.0006 0.7975 13.3693C0.354444 13.735 0 14.1641 0 14.6839V15.7114H3.66667V16.9201H18.3333V15.7114H22V14.6839C22 14.1641 21.6456 13.738 21.2025 13.3693C20.7594 13.0006 20.1911 12.6773 19.6258 12.4023C18.5931 11.8976 17.7314 11.6226 17.5694 11.5712V10.3745C18.1531 9.89707 18.5381 9.19899 18.6083 8.41026C18.8803 8.3468 19.1156 8.15037 19.1156 7.85723C19.1156 7.91767 19.1156 7.87839 19.1247 7.84212C19.1339 7.80586 19.1522 7.75449 19.1675 7.70009C19.2011 7.58828 19.25 7.47949 19.25 7.3163C19.25 7.11685 19.14 6.96575 18.9994 6.84789C19.0881 6.21328 19.25 5.05586 19.25 4.45751C19.25 3.66273 19.0239 3.07042 18.6725 2.68059C18.3608 2.34213 17.9636 2.19103 17.5817 2.15174C17.5267 2.05504 17.4808 1.93718 17.2486 1.73773C16.9706 1.50202 16.5428 1.27235 15.95 1.22097C15.9317 1.22097 15.9133 1.20888 15.895 1.20888C15.8828 1.20888 15.8736 1.21493 15.8614 1.21493C15.8094 1.21493 15.7606 1.20888 15.7056 1.20888C15.1586 1.20888 14.6483 1.31163 14.19 1.49899C13.9242 1.34789 13.6339 1.27234 13.3497 1.24515C13.2764 1.10916 13.1572 0.909708 12.9097 0.683059C12.5308 0.335532 11.8983 -0.00292969 10.9603 -0.00292969L10.9572 9.22903e-05ZM10.9572 0.604488C11.7517 0.604488 12.21 0.870422 12.4911 1.12729C12.7692 1.38416 12.8547 1.61383 12.8547 1.61383L12.9281 1.81328H13.1419C13.5056 1.81328 13.8722 1.93114 14.1594 2.23938C14.4467 2.54762 14.6697 3.07042 14.6697 3.92866C14.6697 4.60559 14.4833 6.07427 14.4008 6.65449L14.3703 6.87509L14.5719 6.96877C14.6331 6.99597 14.6667 7.04432 14.6667 7.10174C14.6667 7.10778 14.6392 7.25586 14.5994 7.38581C14.5781 7.45229 14.5597 7.51575 14.5414 7.57921C14.5261 7.63965 14.5078 7.68196 14.5078 7.78471C14.5078 7.82097 14.4772 7.86026 14.4161 7.86026H13.75V8.27729C13.75 9.16877 13.3161 9.95146 12.65 10.4471L12.5278 10.5377V12.3086L12.7356 12.3781C12.7356 12.3781 14.0189 12.8133 15.29 13.4721C15.9256 13.8015 16.5581 14.1913 17.0133 14.5902C17.4686 14.9921 17.7222 15.391 17.7222 15.7174V16.3218H4.27778V15.7174C4.27778 15.388 4.53139 14.9891 4.98667 14.5902C5.44194 14.1913 6.07444 13.8015 6.71 13.4721C7.98111 12.8133 9.26444 12.3781 9.26444 12.3781L9.47222 12.3086V10.5377L9.35 10.4471C8.68389 9.95146 8.25 9.16575 8.25 8.27729V7.86026H7.58389C7.52278 7.86026 7.49222 7.82399 7.49222 7.78471C7.49222 7.68196 7.47389 7.64267 7.45861 7.57921C7.44028 7.51877 7.42194 7.45229 7.40056 7.38581C7.36389 7.25586 7.33333 7.10778 7.33333 7.10174C7.33333 7.04734 7.36694 6.99597 7.425 6.96877L7.62667 6.87509L7.59611 6.65449C7.51667 6.08333 7.33028 4.65092 7.33028 3.92866C7.33028 2.91026 7.71222 2.09432 8.35083 1.51713C8.98944 0.939927 9.89389 0.604488 10.9542 0.604488H10.9572ZM6.22722 1.81328C6.65806 1.81328 6.96056 1.92207 7.18056 2.05202C7.00333 2.38141 6.875 2.74103 6.79861 3.13086C6.75278 3.18224 6.72222 3.24872 6.72222 3.32427C6.72222 3.3696 6.73444 3.41191 6.74972 3.44817C6.73139 3.60531 6.72222 3.76548 6.72222 3.92866C6.72222 4.22482 6.74972 4.59048 6.78639 4.96218C6.74972 5.01053 6.72222 5.07097 6.72222 5.13745C6.72222 5.22509 6.76194 5.30366 6.82306 5.35806C6.875 5.82647 6.93611 6.27976 6.97889 6.58196C6.83528 6.71795 6.72222 6.8902 6.72222 7.10174C6.72222 7.28004 6.77417 7.41905 6.81389 7.55504C6.83528 7.62454 6.85361 7.688 6.86583 7.73636C6.87806 7.78471 6.88111 7.83004 6.88111 7.78169C6.88111 8.15943 7.20806 8.46163 7.58389 8.46163H7.66028C7.67861 8.78498 7.74889 9.09322 7.85278 9.38636C7.7275 9.42564 7.63583 9.53443 7.63583 9.67042C7.63583 9.83663 7.77333 9.97262 7.94139 9.97262C8.0025 9.97262 8.0575 9.95147 8.10333 9.92125C8.23167 10.1418 8.38444 10.3473 8.56167 10.5317C8.55861 10.5468 8.5525 10.5619 8.5525 10.577C8.5525 10.7432 8.69 10.8792 8.85806 10.8792V11.8795C8.65944 11.949 8.06361 12.1605 7.30583 12.505C7.32111 12.4688 7.33028 12.4295 7.33028 12.3872C7.33028 12.221 7.19278 12.085 7.02472 12.085C6.85667 12.085 6.71917 12.221 6.71917 12.3872C6.71917 12.5262 6.81694 12.641 6.94833 12.6743C6.77417 12.7559 6.60611 12.8344 6.42278 12.9281C6.36167 12.9614 6.30361 12.9916 6.24556 13.0248C6.20278 13.0037 6.15694 12.9886 6.10806 12.9886C5.94611 12.9886 5.81778 13.1125 5.80861 13.2696C5.3625 13.5295 4.93472 13.8136 4.58028 14.1278C4.24417 14.424 3.96 14.7473 3.80111 15.1039H2.74694C2.74694 14.9377 2.60944 14.8017 2.44139 14.8017C2.27333 14.8017 2.13583 14.9377 2.13583 15.1039H0.916667C0.916667 14.9377 0.779167 14.8017 0.611111 14.8017V14.6809C0.611111 14.4542 0.806667 14.146 1.18861 13.8287C1.45444 13.6081 1.79361 13.3935 2.15722 13.194C2.14806 13.2243 2.13889 13.2545 2.13889 13.2908C2.13889 13.457 2.27639 13.5929 2.44444 13.5929C2.6125 13.5929 2.75 13.457 2.75 13.2908C2.75 13.1517 2.65222 13.0369 2.52083 13.0037C2.56361 12.9825 2.60333 12.9614 2.64306 12.9402C2.85083 12.8375 3.0525 12.7498 3.25111 12.6622C3.28472 12.6773 3.32139 12.6833 3.36111 12.6833C3.48944 12.6833 3.59639 12.6078 3.64222 12.496C4.2625 12.2451 4.74222 12.085 4.76667 12.0789H5.04167V10.8248C5.0875 10.852 5.13639 10.8701 5.19444 10.8701C5.3625 10.8701 5.5 10.7342 5.5 10.5679C5.5 10.4017 5.3625 10.2658 5.19444 10.2658C5.13639 10.2658 5.0875 10.2839 5.04167 10.3111V10.0814L4.91639 9.99075C4.79417 9.90009 4.68111 9.79734 4.57722 9.68855C4.57722 9.67647 4.58333 9.67042 4.58333 9.66136C4.58333 9.51328 4.47333 9.39542 4.32972 9.37125C4.10361 9.0207 3.97222 8.60366 3.97222 8.15641V7.85119H3.52917C3.4925 7.85119 3.49556 7.8391 3.49556 7.85119C3.49556 7.75147 3.47722 7.71822 3.46194 7.66685C3.44667 7.61548 3.43139 7.5641 3.41306 7.51273C3.37944 7.40998 3.35806 7.2891 3.35806 7.30723C3.35806 7.29212 3.36722 7.27097 3.41611 7.25586L3.6575 7.17427L3.64222 7.05943C3.6575 7.02317 3.66667 6.98388 3.66667 6.94158C3.66667 6.87509 3.63917 6.81465 3.6025 6.7663C3.55361 6.41273 3.48639 5.91713 3.43444 5.4185C3.56583 5.38526 3.66667 5.27042 3.66667 5.13141C3.66667 4.97125 3.54139 4.84432 3.3825 4.83526C3.37333 4.69625 3.36111 4.54817 3.36111 4.44844C3.36111 4.13718 3.40389 3.85311 3.48944 3.59322C3.59333 3.54487 3.66667 3.44213 3.66667 3.31822C3.66667 3.28196 3.6575 3.24872 3.64528 3.21548C3.75528 2.99789 3.89889 2.80147 4.06694 2.63224C4.12194 2.68361 4.19528 2.71685 4.27472 2.71685C4.44278 2.71685 4.58028 2.58086 4.58028 2.41465C4.58028 2.35723 4.55889 2.30586 4.53139 2.26053C4.99278 1.97344 5.56722 1.81026 6.22417 1.81026L6.22722 1.81328ZM3.97222 7.85723C3.97222 8.02344 4.10972 8.15943 4.27778 8.15943C4.44583 8.15943 4.58333 8.02344 4.58333 7.85723C4.58333 7.69103 4.44583 7.55504 4.27778 7.55504C4.10972 7.55504 3.97222 7.69103 3.97222 7.85723ZM15.6994 1.81328C16.2067 1.81328 16.5306 1.96438 16.7536 2.12756C16.6131 2.15174 16.5 2.2696 16.5 2.41767C16.5 2.58388 16.6375 2.71987 16.8056 2.71987C16.9522 2.71987 17.0714 2.6141 17.0989 2.47811C17.1142 2.50531 17.1386 2.54158 17.1386 2.54158L17.2211 2.71987H17.4167C17.6856 2.71987 17.9789 2.82262 18.2142 3.08251C18.3822 3.26685 18.5289 3.54185 18.5961 3.93471C18.4494 3.95586 18.3333 4.07674 18.3333 4.22784C18.3333 4.39405 18.4678 4.52702 18.6328 4.53004C18.6267 4.82015 18.5808 5.27949 18.5258 5.75998C18.4128 5.80531 18.3333 5.91108 18.3333 6.04103C18.3333 6.14075 18.3853 6.22537 18.4586 6.27976C18.4281 6.50641 18.3975 6.78141 18.3761 6.93251L18.3425 7.18031L18.5839 7.26191C18.6328 7.27702 18.6419 7.29817 18.6419 7.31328C18.6419 7.29515 18.6206 7.41603 18.5869 7.51877C18.5808 7.53388 18.5747 7.55201 18.5717 7.57015C18.4372 7.60037 18.3364 7.7152 18.3364 7.85723H18.0308V8.16245C18.0308 8.31658 18.0125 8.46465 17.9819 8.60971C17.9269 8.52207 17.8353 8.46163 17.7253 8.46163C17.5572 8.46163 17.4197 8.59762 17.4197 8.76383C17.4197 8.93004 17.5572 9.06603 17.7253 9.06603C17.7711 9.06603 17.8139 9.05394 17.8536 9.03883C17.6886 9.42564 17.4258 9.75806 17.0867 10.0028L16.9614 10.0935V11.2298C16.9156 11.2026 16.8667 11.1844 16.8086 11.1844C16.6406 11.1844 16.5031 11.3204 16.5031 11.4866C16.5031 11.6528 16.6406 11.7888 16.8086 11.7888C16.8667 11.7888 16.9156 11.7707 16.9614 11.7435V12.091H17.2364C17.2364 12.091 17.4258 12.1605 17.5053 12.1847C17.4533 12.2391 17.4197 12.3116 17.4197 12.3932C17.4197 12.5594 17.5572 12.6954 17.7253 12.6954C17.8933 12.6954 18.0308 12.5594 18.0308 12.3932C18.0308 12.3872 18.0278 12.3811 18.0278 12.3751C18.4067 12.5201 18.8772 12.7136 19.36 12.9493C19.6472 13.0883 19.9283 13.2424 20.1911 13.4026C20.2339 13.5174 20.3439 13.602 20.4753 13.602C20.4814 13.602 20.4875 13.599 20.4936 13.599C20.6097 13.6776 20.7136 13.7592 20.8114 13.8377C20.9275 13.9344 21.0192 14.0281 21.1017 14.1218C21.0925 14.149 21.0833 14.1762 21.0833 14.2064C21.0833 14.3605 21.1994 14.4814 21.3492 14.4995C21.3736 14.569 21.3889 14.6295 21.3889 14.6869V15.11H20.7778C20.7778 14.9438 20.6403 14.8078 20.4722 14.8078C20.3042 14.8078 20.1667 14.9438 20.1667 15.11H18.9444C18.9444 14.9438 18.8069 14.8078 18.6389 14.8078C18.4708 14.8078 18.3333 14.9438 18.3333 15.11H18.1958C18.0981 14.8924 17.9575 14.6869 17.7833 14.4935C17.9208 14.4663 18.0278 14.3484 18.0278 14.2034C18.0278 14.0372 17.8903 13.9012 17.7222 13.9012C17.5756 13.9012 17.4564 14.007 17.4289 14.1429C17.4258 14.1429 17.4228 14.1369 17.4197 14.1339C16.9003 13.6806 16.2342 13.2756 15.5742 12.9342C15.1281 12.7045 14.7217 12.5201 14.3581 12.363C14.3428 12.2089 14.2175 12.088 14.0586 12.088C13.9883 12.088 13.9242 12.1152 13.8722 12.1575C13.53 12.0215 13.2581 11.9188 13.1419 11.8795V11.7858C13.31 11.7858 13.4475 11.6498 13.4475 11.4836C13.4475 11.3174 13.31 11.1814 13.1419 11.1814V10.8127C13.7042 10.3504 14.1014 9.71273 14.2633 8.98745C14.3244 8.93306 14.3642 8.85449 14.3642 8.76685C14.3642 8.71245 14.3489 8.66712 14.3214 8.62482C14.3275 8.57042 14.3367 8.51905 14.3397 8.46465H14.4161C14.6575 8.46465 14.8744 8.34075 15.0028 8.15641C15.1556 8.1413 15.2808 8.0174 15.2808 7.86026C15.2808 7.76658 15.235 7.68498 15.1678 7.63059C15.1739 7.60641 15.18 7.58828 15.1892 7.55806C15.2289 7.42207 15.2808 7.28306 15.2808 7.10476C15.2808 6.8902 15.1678 6.72097 15.0242 6.58498C15.0333 6.52152 15.0456 6.40668 15.0578 6.33416C15.1861 6.29789 15.2839 6.18608 15.2839 6.04707C15.2839 5.93223 15.2197 5.83855 15.125 5.78718C15.2044 5.14954 15.2839 4.4424 15.2839 3.93169C15.2839 3.45119 15.2197 3.0402 15.1036 2.6957C15.2106 2.64735 15.2839 2.5446 15.2839 2.4207C15.2839 2.25449 15.1464 2.1185 14.9783 2.1185C14.9325 2.1185 14.8867 2.13059 14.8469 2.15174C14.8042 2.08224 14.7583 2.01877 14.7125 1.95833C15.0181 1.86767 15.3481 1.8163 15.7025 1.8163L15.6994 1.81328ZM6.11111 2.11548C5.94306 2.11548 5.80556 2.25147 5.80556 2.41767C5.80556 2.58388 5.94306 2.71987 6.11111 2.71987C6.27917 2.71987 6.41667 2.58388 6.41667 2.41767C6.41667 2.25147 6.27917 2.11548 6.11111 2.11548ZM5.19444 3.02207C5.02639 3.02207 4.88889 3.15806 4.88889 3.32427C4.88889 3.49048 5.02639 3.62647 5.19444 3.62647C5.3625 3.62647 5.5 3.49048 5.5 3.32427C5.5 3.15806 5.3625 3.02207 5.19444 3.02207ZM15.8889 3.02207C15.7208 3.02207 15.5833 3.15806 15.5833 3.32427C15.5833 3.49048 15.7208 3.62647 15.8889 3.62647C16.0569 3.62647 16.1944 3.49048 16.1944 3.32427C16.1944 3.15806 16.0569 3.02207 15.8889 3.02207ZM17.7222 3.02207C17.5542 3.02207 17.4167 3.15806 17.4167 3.32427C17.4167 3.49048 17.5542 3.62647 17.7222 3.62647C17.8903 3.62647 18.0278 3.49048 18.0278 3.32427C18.0278 3.15806 17.8903 3.02207 17.7222 3.02207ZM4.27778 3.92866C4.10972 3.92866 3.97222 4.06465 3.97222 4.23086C3.97222 4.39707 4.10972 4.53306 4.27778 4.53306C4.44583 4.53306 4.58333 4.39707 4.58333 4.23086C4.58333 4.06465 4.44583 3.92866 4.27778 3.92866ZM6.11111 3.92866C5.94306 3.92866 5.80556 4.06465 5.80556 4.23086C5.80556 4.39707 5.94306 4.53306 6.11111 4.53306C6.27917 4.53306 6.41667 4.39707 6.41667 4.23086C6.41667 4.06465 6.27917 3.92866 6.11111 3.92866ZM16.8056 3.92866C16.6375 3.92866 16.5 4.06465 16.5 4.23086C16.5 4.39707 16.6375 4.53306 16.8056 4.53306C16.9736 4.53306 17.1111 4.39707 17.1111 4.23086C17.1111 4.06465 16.9736 3.92866 16.8056 3.92866ZM5.19444 4.83526C5.02639 4.83526 4.88889 4.97125 4.88889 5.13745C4.88889 5.30366 5.02639 5.43965 5.19444 5.43965C5.3625 5.43965 5.5 5.30366 5.5 5.13745C5.5 4.97125 5.3625 4.83526 5.19444 4.83526ZM15.8889 4.83526C15.7208 4.83526 15.5833 4.97125 15.5833 5.13745C15.5833 5.30366 15.7208 5.43965 15.8889 5.43965C16.0569 5.43965 16.1944 5.30366 16.1944 5.13745C16.1944 4.97125 16.0569 4.83526 15.8889 4.83526ZM17.7222 4.83526C17.5542 4.83526 17.4167 4.97125 17.4167 5.13745C17.4167 5.30366 17.5542 5.43965 17.7222 5.43965C17.8903 5.43965 18.0278 5.30366 18.0278 5.13745C18.0278 4.97125 17.8903 4.83526 17.7222 4.83526ZM4.27778 5.74185C4.10972 5.74185 3.97222 5.87784 3.97222 6.04405C3.97222 6.21026 4.10972 6.34625 4.27778 6.34625C4.44583 6.34625 4.58333 6.21026 4.58333 6.04405C4.58333 5.87784 4.44583 5.74185 4.27778 5.74185ZM6.11111 5.74185C5.94306 5.74185 5.80556 5.87784 5.80556 6.04405C5.80556 6.21026 5.94306 6.34625 6.11111 6.34625C6.27917 6.34625 6.41667 6.21026 6.41667 6.04405C6.41667 5.87784 6.27917 5.74185 6.11111 5.74185ZM16.8056 5.74185C16.6375 5.74185 16.5 5.87784 16.5 6.04405C16.5 6.21026 16.6375 6.34625 16.8056 6.34625C16.9736 6.34625 17.1111 6.21026 17.1111 6.04405C17.1111 5.87784 16.9736 5.74185 16.8056 5.74185ZM5.19444 6.64844C5.02639 6.64844 4.88889 6.78443 4.88889 6.95064C4.88889 7.11685 5.02639 7.25284 5.19444 7.25284C5.3625 7.25284 5.5 7.11685 5.5 6.95064C5.5 6.78443 5.3625 6.64844 5.19444 6.64844ZM15.8889 6.64844C15.7208 6.64844 15.5833 6.78443 15.5833 6.95064C15.5833 7.11685 15.7208 7.25284 15.8889 7.25284C16.0569 7.25284 16.1944 7.11685 16.1944 6.95064C16.1944 6.78443 16.0569 6.64844 15.8889 6.64844ZM17.7222 6.64844C17.5542 6.64844 17.4167 6.78443 17.4167 6.95064C17.4167 7.11685 17.5542 7.25284 17.7222 7.25284C17.8903 7.25284 18.0278 7.11685 18.0278 6.95064C18.0278 6.78443 17.8903 6.64844 17.7222 6.64844ZM6.11111 7.55504C5.94306 7.55504 5.80556 7.69103 5.80556 7.85723C5.80556 8.02344 5.94306 8.15943 6.11111 8.15943C6.27917 8.15943 6.41667 8.02344 6.41667 7.85723C6.41667 7.69103 6.27917 7.55504 6.11111 7.55504ZM16.8056 7.55504C16.6375 7.55504 16.5 7.69103 16.5 7.85723C16.5 8.02344 16.6375 8.15943 16.8056 8.15943C16.9736 8.15943 17.1111 8.02344 17.1111 7.85723C17.1111 7.69103 16.9736 7.55504 16.8056 7.55504ZM5.19444 8.46163C5.02639 8.46163 4.88889 8.59762 4.88889 8.76383C4.88889 8.93004 5.02639 9.06603 5.19444 9.06603C5.3625 9.06603 5.5 8.93004 5.5 8.76383C5.5 8.59762 5.3625 8.46163 5.19444 8.46163ZM7.02778 8.46163C6.85972 8.46163 6.72222 8.59762 6.72222 8.76383C6.72222 8.93004 6.85972 9.06603 7.02778 9.06603C7.19583 9.06603 7.33333 8.93004 7.33333 8.76383C7.33333 8.59762 7.19583 8.46163 7.02778 8.46163ZM15.8889 8.46163C15.7208 8.46163 15.5833 8.59762 15.5833 8.76383C15.5833 8.93004 15.7208 9.06603 15.8889 9.06603C16.0569 9.06603 16.1944 8.93004 16.1944 8.76383C16.1944 8.59762 16.0569 8.46163 15.8889 8.46163ZM6.11111 9.36822C5.94306 9.36822 5.80556 9.50421 5.80556 9.67042C5.80556 9.83663 5.94306 9.97262 6.11111 9.97262C6.27917 9.97262 6.41667 9.83663 6.41667 9.67042C6.41667 9.50421 6.27917 9.36822 6.11111 9.36822ZM14.9722 9.36822C14.8042 9.36822 14.6667 9.50421 14.6667 9.67042C14.6667 9.83663 14.8042 9.97262 14.9722 9.97262C15.1403 9.97262 15.2778 9.83663 15.2778 9.67042C15.2778 9.50421 15.1403 9.36822 14.9722 9.36822ZM16.8056 9.36822C16.6375 9.36822 16.5 9.50421 16.5 9.67042C16.5 9.83663 16.6375 9.97262 16.8056 9.97262C16.9736 9.97262 17.1111 9.83663 17.1111 9.67042C17.1111 9.50421 16.9736 9.36822 16.8056 9.36822ZM7.02778 10.2748C6.85972 10.2748 6.72222 10.4108 6.72222 10.577C6.72222 10.7432 6.85972 10.8792 7.02778 10.8792C7.19583 10.8792 7.33333 10.7432 7.33333 10.577C7.33333 10.4108 7.19583 10.2748 7.02778 10.2748ZM14.0556 10.2748C13.8875 10.2748 13.75 10.4108 13.75 10.577C13.75 10.7432 13.8875 10.8792 14.0556 10.8792C14.2236 10.8792 14.3611 10.7432 14.3611 10.577C14.3611 10.4108 14.2236 10.2748 14.0556 10.2748ZM15.8889 10.2748C15.7208 10.2748 15.5833 10.4108 15.5833 10.577C15.5833 10.7432 15.7208 10.8792 15.8889 10.8792C16.0569 10.8792 16.1944 10.7432 16.1944 10.577C16.1944 10.4108 16.0569 10.2748 15.8889 10.2748ZM6.11111 11.1814C5.94306 11.1814 5.80556 11.3174 5.80556 11.4836C5.80556 11.6498 5.94306 11.7858 6.11111 11.7858C6.27917 11.7858 6.41667 11.6498 6.41667 11.4836C6.41667 11.3174 6.27917 11.1814 6.11111 11.1814ZM7.94444 11.1814C7.77639 11.1814 7.63889 11.3174 7.63889 11.4836C7.63889 11.6498 7.77639 11.7858 7.94444 11.7858C8.1125 11.7858 8.25 11.6498 8.25 11.4836C8.25 11.3174 8.1125 11.1814 7.94444 11.1814ZM14.9722 11.1814C14.8042 11.1814 14.6667 11.3174 14.6667 11.4836C14.6667 11.6498 14.8042 11.7858 14.9722 11.7858C15.1403 11.7858 15.2778 11.6498 15.2778 11.4836C15.2778 11.3174 15.1403 11.1814 14.9722 11.1814ZM5.19444 12.088C5.02639 12.088 4.88889 12.224 4.88889 12.3902C4.88889 12.5564 5.02639 12.6924 5.19444 12.6924C5.3625 12.6924 5.5 12.5564 5.5 12.3902C5.5 12.224 5.3625 12.088 5.19444 12.088ZM15.8889 12.088C15.7208 12.088 15.5833 12.224 15.5833 12.3902C15.5833 12.5564 15.7208 12.6924 15.8889 12.6924C16.0569 12.6924 16.1944 12.5564 16.1944 12.3902C16.1944 12.224 16.0569 12.088 15.8889 12.088ZM4.27778 12.9946C4.10972 12.9946 3.97222 13.1306 3.97222 13.2968C3.97222 13.463 4.10972 13.599 4.27778 13.599C4.44583 13.599 4.58333 13.463 4.58333 13.2968C4.58333 13.1306 4.44583 12.9946 4.27778 12.9946ZM16.8056 12.9946C16.6375 12.9946 16.5 13.1306 16.5 13.2968C16.5 13.463 16.6375 13.599 16.8056 13.599C16.9736 13.599 17.1111 13.463 17.1111 13.2968C17.1111 13.1306 16.9736 12.9946 16.8056 12.9946ZM18.6389 12.9946C18.4708 12.9946 18.3333 13.1306 18.3333 13.2968C18.3333 13.463 18.4708 13.599 18.6389 13.599C18.8069 13.599 18.9444 13.463 18.9444 13.2968C18.9444 13.1306 18.8069 12.9946 18.6389 12.9946ZM1.52778 13.9012C1.35972 13.9012 1.22222 14.0372 1.22222 14.2034C1.22222 14.3696 1.35972 14.5056 1.52778 14.5056C1.69583 14.5056 1.83333 14.3696 1.83333 14.2034C1.83333 14.0372 1.69583 13.9012 1.52778 13.9012ZM3.36111 13.9012C3.19306 13.9012 3.05556 14.0372 3.05556 14.2034C3.05556 14.3696 3.19306 14.5056 3.36111 14.5056C3.52917 14.5056 3.66667 14.3696 3.66667 14.2034C3.66667 14.0372 3.52917 13.9012 3.36111 13.9012ZM19.5556 13.9012C19.3875 13.9012 19.25 14.0372 19.25 14.2034C19.25 14.3696 19.3875 14.5056 19.5556 14.5056C19.7236 14.5056 19.8611 14.3696 19.8611 14.2034C19.8611 14.0372 19.7236 13.9012 19.5556 13.9012Z" fill="black"/>
</g>
<defs>
<clipPath id="clip0_1141_1243">
<rect width="22" height="16.9231" fill="white"/>
</clipPath>
</defs>
</svg>
