<svg xmlns="http://www.w3.org/2000/svg" width="51" height="50" viewBox="0 0 51 50" fill="none"><g clip-path="url(#wellcube-logo-id-a)"><path fill="url(#wellcube-logo-linear-gradient)" d="M44.519 0H6.48A5.981 5.981 0 0 0 .5 5.981V44.02A5.981 5.981 0 0 0 6.481 50H44.52a5.981 5.981 0 0 0 5.981-5.981V5.98A5.981 5.981 0 0 0 44.519 0Z"/><path fill="#fff" d="M18.216 35.996h-3.16c-2.793 0-5.056-2.238-5.056-5.001V19C10 16.238 12.262 14 15.056 14h12.12c2.792 0 5.055 2.238 5.055 5.001v1.313c0 .048-.042.09-.091.09h-.918a.092.092 0 0 1-.09-.09V19c0-2.163-1.77-3.914-3.957-3.914h-12.12c-2.182 0-3.956 1.755-3.956 3.914v11.99c0 2.163 1.77 3.914 3.957 3.914h3.16c.05 0 .091.041.091.09v.908a.093.093 0 0 1-.09.093Z"/><path fill="#fff" fill-rule="evenodd" d="M32.246 35.539v.281c0 .064-.027.09-.091.09h-.917c-.065 0-.091-.026-.091-.09v-6.167c0-.064.026-.09.09-.09h.918c.064 0 .09.026.09.09v2.066a2.047 2.047 0 0 1 1.32-.454c1.239 0 2.088.907 2.088 2.365 0 1.459-.853 2.366-2.088 2.366a2.004 2.004 0 0 1-1.32-.457Zm2.255-1.905c0-.78-.432-1.387-1.156-1.387s-1.156.608-1.156 1.387c0 .78.432 1.388 1.156 1.388.727 0 1.156-.608 1.156-1.388Z" clip-rule="evenodd"/><path fill="#fff" d="M22.953 31.269c-1.368 0-2.402.94-2.402 2.365 0 1.421 1.038 2.366 2.402 2.366 1.21 0 2.035-.754 2.164-1.668.008-.075-.007-.102-.064-.102h-.898c-.065 0-.103.012-.13.083-.166.465-.568.709-1.09.709-.724 0-1.229-.5-1.229-1.388 0-.888.505-1.387 1.228-1.387.523 0 .925.248 1.092.709.026.075.064.082.129.082h.898c.057 0 .072-.03.064-.101-.121-.896-.955-1.668-2.164-1.668ZM25.94 31.448v3.019c0 .944.606 1.533 1.603 1.533.587 0 1.008-.199 1.383-.506v.326c0 .064.026.09.09.09h.918c.064 0 .09-.026.09-.09v-4.372c0-.063-.026-.09-.09-.09h-.917c-.065 0-.091.027-.091.09v2.059c0 1.08-.523 1.515-1.1 1.515-.503 0-.787-.267-.787-.945v-2.628c0-.064-.027-.09-.091-.09h-.917c-.065 0-.091.026-.091.09Z"/><path fill="#fff" fill-rule="evenodd" d="M38.628 31.269c-1.3 0-2.365.96-2.365 2.365 0 1.406 1.023 2.366 2.353 2.366 1.103 0 1.853-.472 2.248-1.47.019-.052.019-.07.019-.09 0-.037-.02-.063-.065-.063h-.936c-.064 0-.083.01-.129.082-.235.39-.595.563-1.125.563-.679 0-1.118-.435-1.21-1.043h3.491c.065 0 .091-.026.091-.09v-.154c0-1.323-.868-2.466-2.372-2.466Zm-.004.978c.652 0 1.034.334 1.201.825H37.45a1.228 1.228 0 0 1 1.175-.825Z" clip-rule="evenodd"/><path fill="#fff" d="M26.74 22.69v6.168c0 .064.03.09.09.09h.917c.065 0 .091-.026.091-.09V22.69c0-.063-.026-.09-.09-.09h-.918c-.064 0-.09.027-.09.09Z"/><path fill="#fff" fill-rule="evenodd" d="M24.901 27.07c-.041 0-.08.03-.09.07-.092.323-.323.567-.706.758-.602.304-1.193.113-1.553-.382v-.008l3.103-1.56a.09.09 0 0 0 .042-.127l-.068-.135c-.607-1.18-1.906-1.81-3.244-1.136-1.16.581-1.668 1.916-1.027 3.168.644 1.252 1.997 1.65 3.183 1.054.758-.383 1.201-.919 1.315-1.639.004-.034-.023-.067-.057-.067l-.898.004Zm-2.065-1.646c.576-.289 1.072-.165 1.444.19.003.005 0 .008 0 .008l-2.104 1.058c-.003 0-.007 0-.007-.004-.072-.54.204-1.02.667-1.252Z" clip-rule="evenodd"/><path fill="#fff" d="m15.347 28.858-1.338-4.27c-.026-.09-.026-.11-.026-.128 0-.045.038-.064.072-.064h.944c.083 0 .11.027.128.09l.827 3.056.89-2.838c.02-.064.046-.09.118-.09h.917c.072 0 .102.026.117.09l.89 2.838.827-3.056c.019-.063.046-.09.129-.09h.944c.037 0 .072.02.072.064 0 .019 0 .038-.027.128l-1.338 4.27c-.019.071-.064.09-.117.09h-1c-.065 0-.103-.026-.118-.09l-.834-2.786-.834 2.786c-.019.064-.056.09-.117.09h-1c-.061 0-.107-.019-.126-.09ZM28.922 28.858V22.69c0-.063.027-.09.091-.09h.917c.065 0 .091.027.091.09v6.168c0 .064-.026.09-.09.09h-.918c-.064 0-.09-.026-.09-.09Z"/></g><defs><linearGradient id="wellcube-logo-linear-gradient" x1=".5" x2="50.5" y1="0" y2="50" gradientUnits="userSpaceOnUse"><stop stop-color="#0061FF"/><stop offset="1" stop-color="#0047BA"/></linearGradient><clipPath id="wellcube-logo-id-a"><path fill="#fff" d="M0 0h51v50H0z"/></clipPath></defs></svg>
