<svg width="40" height="40" viewBox="0 0 40 40" fill="none" xmlns="http://www.w3.org/2000/svg">
<g clip-path="url(#clip0_176_1662)">
<g filter="url(#filter0_ddd_176_1662)">
<circle cx="20" cy="20" r="20" fill="#ECF4FA"/>
<circle cx="20" cy="20" r="19.5" stroke="#F3FAFC"/>
</g>
<path d="M25 27.5V28C25.2761 28 25.5 27.7761 25.5 27.5H25ZM15 27.5H14.5C14.5 27.7761 14.7239 28 15 28V27.5ZM24.545 12.5908L24.318 13.0363L24.545 12.5908ZM24.9092 12.955L24.4637 13.182L24.9092 12.955ZM15.455 12.5908L15.682 13.0363L15.455 12.5908ZM15.0908 12.955L15.5363 13.182L15.0908 12.955ZM17.5 15.3333C17.2239 15.3333 17 15.5572 17 15.8333C17 16.1095 17.2239 16.3333 17.5 16.3333V15.3333ZM18.3333 16.3333C18.6095 16.3333 18.8333 16.1095 18.8333 15.8333C18.8333 15.5572 18.6095 15.3333 18.3333 15.3333V16.3333ZM17.5 17.8333C17.2239 17.8333 17 18.0572 17 18.3333C17 18.6095 17.2239 18.8333 17.5 18.8333V17.8333ZM18.3333 18.8333C18.6095 18.8333 18.8333 18.6095 18.8333 18.3333C18.8333 18.0572 18.6095 17.8333 18.3333 17.8333V18.8333ZM21.6667 17.8333C21.3905 17.8333 21.1667 18.0572 21.1667 18.3333C21.1667 18.6095 21.3905 18.8333 21.6667 18.8333V17.8333ZM22.5 18.8333C22.7761 18.8333 23 18.6095 23 18.3333C23 18.0572 22.7761 17.8333 22.5 17.8333V18.8333ZM21.6667 20.3333C21.3905 20.3333 21.1667 20.5572 21.1667 20.8333C21.1667 21.1095 21.3905 21.3333 21.6667 21.3333V20.3333ZM22.5 21.3333C22.7761 21.3333 23 21.1095 23 20.8333C23 20.5572 22.7761 20.3333 22.5 20.3333V21.3333ZM17.5 20.3333C17.2239 20.3333 17 20.5572 17 20.8333C17 21.1095 17.2239 21.3333 17.5 21.3333V20.3333ZM18.3333 21.3333C18.6095 21.3333 18.8333 21.1095 18.8333 20.8333C18.8333 20.5572 18.6095 20.3333 18.3333 20.3333V21.3333ZM21.6667 15.3333C21.3905 15.3333 21.1667 15.5572 21.1667 15.8333C21.1667 16.1095 21.3905 16.3333 21.6667 16.3333V15.3333ZM22.5 16.3333C22.7761 16.3333 23 16.1095 23 15.8333C23 15.5572 22.7761 15.3333 22.5 15.3333V16.3333ZM16.3333 13H23.6667V12H16.3333V13ZM24.5 13.8333V27.5H25.5V13.8333H24.5ZM25 27H15V28H25V27ZM15.5 27.5V13.8333H14.5V27.5H15.5ZM23.6667 13C23.9083 13 24.0594 13.0004 24.1733 13.0097C24.2813 13.0185 24.3111 13.0328 24.318 13.0363L24.772 12.1453C24.6006 12.058 24.4246 12.0269 24.2547 12.013C24.0907 11.9996 23.8918 12 23.6667 12V13ZM25.5 13.8333C25.5 13.6082 25.5004 13.4093 25.487 13.2453C25.4731 13.0754 25.442 12.8994 25.3547 12.728L24.4637 13.182C24.4672 13.1889 24.4815 13.2187 24.4903 13.3267C24.4996 13.4406 24.5 13.5917 24.5 13.8333H25.5ZM24.318 13.0363C24.3807 13.0683 24.4317 13.1193 24.4637 13.182L25.3547 12.728C25.2268 12.4771 25.0229 12.2732 24.772 12.1453L24.318 13.0363ZM16.3333 12C16.1082 12 15.9093 11.9996 15.7453 12.013C15.5754 12.0269 15.3994 12.058 15.228 12.1453L15.682 13.0363C15.6889 13.0328 15.7187 13.0185 15.8267 13.0097C15.9406 13.0004 16.0917 13 16.3333 13V12ZM15.5 13.8333C15.5 13.5917 15.5004 13.4406 15.5097 13.3267C15.5185 13.2187 15.5328 13.1889 15.5363 13.182L14.6453 12.728C14.558 12.8994 14.5269 13.0754 14.513 13.2453C14.4996 13.4093 14.5 13.6082 14.5 13.8333H15.5ZM15.228 12.1453C14.9771 12.2732 14.7732 12.4771 14.6453 12.728L15.5363 13.182C15.5683 13.1193 15.6193 13.0683 15.682 13.0363L15.228 12.1453ZM17.5 16.3333H18.3333V15.3333H17.5V16.3333ZM17.5 18.8333H18.3333V17.8333H17.5V18.8333ZM21.6667 18.8333H22.5V17.8333H21.6667V18.8333ZM21.6667 21.3333H22.5V20.3333H21.6667V21.3333ZM17.5 21.3333H18.3333V20.3333H17.5V21.3333ZM21.6667 16.3333H22.5V15.3333H21.6667V16.3333ZM21.1667 25V27.5H22.1667V25H21.1667ZM18.8333 27.5V25H17.8333V27.5H18.8333ZM20 23.8333C20.6443 23.8333 21.1667 24.3557 21.1667 25H22.1667C22.1667 23.8034 21.1966 22.8333 20 22.8333V23.8333ZM20 22.8333C18.8034 22.8333 17.8333 23.8034 17.8333 25H18.8333C18.8333 24.3557 19.3557 23.8333 20 23.8333V22.8333Z" fill="#131A29"/>
</g>
<defs>
<filter id="filter0_ddd_176_1662" x="-20" y="-20" width="72" height="75" filterUnits="userSpaceOnUse" color-interpolation-filters="sRGB">
<feFlood flood-opacity="0" result="BackgroundImageFix"/>
<feColorMatrix in="SourceAlpha" type="matrix" values="0 0 0 0 0 0 0 0 0 0 0 0 0 0 0 0 0 0 127 0" result="hardAlpha"/>
<feOffset dx="2" dy="5"/>
<feGaussianBlur stdDeviation="5"/>
<feColorMatrix type="matrix" values="0 0 0 0 0.806215 0 0 0 0 0.853688 0 0 0 0 0.891667 0 0 0 0.75 0"/>
<feBlend mode="normal" in2="BackgroundImageFix" result="effect1_dropShadow_176_1662"/>
<feColorMatrix in="SourceAlpha" type="matrix" values="0 0 0 0 0 0 0 0 0 0 0 0 0 0 0 0 0 0 127 0" result="hardAlpha"/>
<feOffset dx="-5" dy="-5"/>
<feGaussianBlur stdDeviation="7.5"/>
<feColorMatrix type="matrix" values="0 0 0 0 1 0 0 0 0 1 0 0 0 0 1 0 0 0 0.8 0"/>
<feBlend mode="normal" in2="effect1_dropShadow_176_1662" result="effect2_dropShadow_176_1662"/>
<feColorMatrix in="SourceAlpha" type="matrix" values="0 0 0 0 0 0 0 0 0 0 0 0 0 0 0 0 0 0 127 0" result="hardAlpha"/>
<feOffset dx="-7" dy="-7"/>
<feGaussianBlur stdDeviation="6"/>
<feColorMatrix type="matrix" values="0 0 0 0 1 0 0 0 0 1 0 0 0 0 1 0 0 0 0.5 0"/>
<feBlend mode="normal" in2="effect2_dropShadow_176_1662" result="effect3_dropShadow_176_1662"/>
<feBlend mode="normal" in="SourceGraphic" in2="effect3_dropShadow_176_1662" result="shape"/>
</filter>
<clipPath id="clip0_176_1662">
<rect width="40" height="40" fill="white"/>
</clipPath>
</defs>
</svg>
