<svg width="72" height="75" viewBox="0 0 72 75" fill="none" xmlns="http://www.w3.org/2000/svg">
    <g filter="url(#filter0_ddd_27_1041)">
        <circle cx="40" cy="40" r="20" fill="#ECF4FA"/>
        <circle cx="40" cy="40" r="19.5" stroke="#F3FAFC"/>
    </g>
    <g clip-path="url(#clip0_27_1041)">
        <path d="M45.2254 40.9858H45.8807L46.2593 41.9013L46.405 41.9351C47.037 42.0872 47.6108 42.4084 48.0652 42.8619L48.17 42.9661L49.1778 42.8253L49.504 43.3746L48.8749 44.1492L48.9157 44.2872C49.006 44.5943 49.0526 44.907 49.0526 45.214C49.0526 45.5211 49.006 45.8337 48.9157 46.1408L48.8749 46.2788L49.504 47.0534L49.1778 47.6027L48.17 47.4619L48.0652 47.5661C47.6108 48.0196 47.0399 48.338 46.405 48.4929L46.2593 48.5267L45.8807 49.4422H45.2254L44.8467 48.5267L44.704 48.4929C44.072 48.3408 43.4982 48.0196 43.0438 47.5661L42.939 47.4619L41.9312 47.6027L41.605 47.0534L42.2341 46.2788L42.1933 46.1408C42.103 45.8337 42.0564 45.5211 42.0564 45.214C42.0564 44.907 42.103 44.5943 42.1933 44.2872L42.2341 44.1492L41.605 43.3746L41.9312 42.8253L42.939 42.9661L43.0438 42.8619C43.4982 42.4112 44.0691 42.0901 44.704 41.9351L44.8467 41.9013L45.2254 40.9858V40.9858Z" fill="white"/>
        <path d="M36.3881 42.3213C36.5105 42.479 36.6677 42.6706 36.86 42.8706C37.0784 43.0959 37.3376 43.3326 37.6289 43.5128L36.5367 44.2171L35.9629 42.6706L36.3881 42.3213V42.3213Z" fill="white"/>
        <path d="M35.4738 43.0112L36.2398 45.0817L37.9932 43.9521L38.2058 44.4676L38.0107 46.9014H31.5825V45.7746C31.5825 45.0422 32.8961 44.1126 35.4738 43.0112Z" fill="white"/>
        <path d="M36.8252 41.2197C37.1368 41.3803 37.4747 41.4986 37.833 41.569C38.0368 41.7268 38.2902 41.831 38.5728 41.831C38.8553 41.831 39.1087 41.724 39.3126 41.569C39.6708 41.4986 40.0087 41.3803 40.3203 41.2197V41.9465C40.2067 42.0958 40.0495 42.2901 39.8631 42.4845C39.4757 42.8845 38.966 43.2394 38.5728 43.2394C38.1796 43.2394 37.6699 42.8845 37.2825 42.4845C37.0932 42.2901 36.9359 42.0958 36.8252 41.9465V41.2197Z" fill="white"/>
        <path d="M40.5565 33.4253C40.6264 33.4506 40.8128 33.507 41.0837 33.7605C41.4012 34.0591 41.7245 34.538 41.7245 35.3521V37.1267L42.1643 36.8788C42.24 36.8366 42.307 36.7999 42.3565 36.7746C42.3623 36.7718 42.3653 36.7718 42.3682 36.769C42.5021 36.783 42.5983 36.8704 42.5983 36.9859C42.5983 37.0084 42.5633 37.1718 42.5196 37.3183C42.4963 37.3915 42.473 37.4647 42.4555 37.5323C42.4352 37.5999 42.4177 37.645 42.4177 37.7464C42.4177 37.8225 42.3536 37.8873 42.2546 37.8873H41.7332L41.7187 38.1549C41.64 39.6084 40.5332 40.7887 39.0886 41.0394L39.007 41.0535L38.9458 41.1098C38.8322 41.2112 38.6866 41.2704 38.5264 41.2704C38.3662 41.2704 38.2206 41.2112 38.1041 41.1098L38.0429 41.0563L37.9614 41.0422C36.5167 40.7915 35.4099 39.6084 35.3313 38.1577L35.3167 37.8901H34.7953C34.6963 37.8901 34.6322 37.8225 34.6322 37.7492C34.6322 37.6506 34.6119 37.6028 34.5944 37.5352C34.574 37.4675 34.5536 37.3943 34.5303 37.3211C34.4866 37.1746 34.4517 37.0084 34.4517 36.9887C34.4517 36.876 34.5478 36.7859 34.6818 36.7718C34.6876 36.7718 34.6876 36.7746 34.6934 36.7774C34.7429 36.8028 34.8099 36.8394 34.8856 36.8816L35.3254 37.1295V36.214C35.3254 35.5098 35.6866 35.0394 36.173 34.7098C36.6594 34.3802 37.2798 34.2281 37.6555 34.2281C38.6983 34.2281 39.4701 34.0056 39.9827 33.7802C40.3643 33.6112 40.4633 33.5098 40.5682 33.4281L40.5565 33.4253Z" fill="white"/>
        <path d="M38.2029 30C36.7932 30 35.5262 30.7465 34.6058 31.4704C33.6854 32.1972 33.1 32.9239 33.1 32.9239L32.8378 33.2507L33.2485 33.369C33.2485 33.369 33.4087 33.4113 33.598 33.6C33.7874 33.7887 33.9912 34.1099 33.9912 34.7183C33.9912 35.507 34.1165 36.1437 34.1777 36.4141C34.0145 36.5577 33.9097 36.7606 33.9097 36.9859C33.9097 37.169 33.965 37.3239 34.0116 37.4789C34.0349 37.5549 34.0582 37.6282 34.0728 37.6817C34.0874 37.7352 34.0903 37.7887 34.0903 37.7465C34.0903 38.138 34.434 38.4507 34.8359 38.4507H34.8534C34.9815 39.4197 35.4912 40.2704 36.2398 40.8507V41.7014L35.3544 42.4423C33.3155 43.3042 30.9971 44.4592 30.9971 45.7746V47.4648H40.5446C40.4573 47.2817 40.3786 47.0958 40.3116 46.9014H39.1291L38.934 44.4676L39.1786 43.8789L40.0844 44.4648C40.1136 44.262 40.1544 44.062 40.2068 43.8676L39.5835 43.4648C39.8456 43.293 40.0815 43.0789 40.2825 42.8704C40.4718 42.6732 40.6291 42.4817 40.7514 42.3239L40.8534 42.4085C40.9553 42.2479 41.066 42.093 41.1854 41.9437L40.9 41.7042V40.8535C41.6456 40.2761 42.1553 39.4225 42.2835 38.4535H42.301C42.7029 38.4535 43.0466 38.1408 43.0466 37.7493C43.0466 37.7887 43.0495 37.738 43.0641 37.6845C43.0786 37.631 43.1019 37.5577 43.1252 37.4817C43.1718 37.3296 43.2272 37.1718 43.2272 36.9887C43.2272 36.7577 43.1194 36.5549 42.9534 36.4113C43.0058 36.1155 43.2272 34.8423 43.2272 33.9465C43.2272 32.9352 42.8369 32.2085 42.3068 31.7606C41.832 31.3577 41.2757 31.1944 40.7806 31.1606C40.7019 31.0394 40.5592 30.8479 40.2679 30.6254C39.8485 30.3099 39.1757 30.0028 38.1942 30.0028L38.2029 30ZM38.2029 30.5634C39.0592 30.5634 39.5893 30.8197 39.9155 31.0676C40.2417 31.3155 40.3495 31.5324 40.3495 31.5324L40.4311 31.6901H40.6116C40.999 31.6901 41.5204 31.8338 41.9281 32.1803C42.3359 32.5268 42.6505 33.0676 42.6505 33.9437C42.6505 34.7296 42.4553 35.8761 42.4 36.1972C42.4 36.1972 42.3971 36.1972 42.3942 36.1972C42.3709 36.1972 42.3738 36.2028 42.3592 36.2056V35.3521C42.3592 34.3887 41.9514 33.7408 41.5437 33.3549C41.1359 32.969 40.7048 32.831 40.7048 32.831L40.5388 32.7775L40.4107 32.8958C40.4107 32.8958 40.2272 33.0704 39.7844 33.2648C39.3417 33.4592 38.6573 33.662 37.699 33.662C37.1747 33.662 36.4844 33.8423 35.8844 34.2451C35.2874 34.6479 34.7893 35.3099 34.7864 36.2056C34.7689 36.2056 34.7747 36.1972 34.7485 36.1972C34.7427 36.1972 34.734 36.1972 34.7281 36.1972C34.6699 35.9239 34.5738 35.3944 34.5738 34.7155C34.5738 33.9775 34.3 33.4873 34.0145 33.2028C33.8951 33.0817 33.866 33.1014 33.7611 33.0423C33.9621 32.8141 34.3349 32.4056 34.9728 31.9042C35.8378 31.2225 37.0087 30.5577 38.2 30.5577L38.2029 30.5634ZM40.6116 33.4254C40.6815 33.4507 40.8679 33.507 41.1388 33.7606C41.4563 34.0592 41.7796 34.538 41.7796 35.3521V37.1268L42.2194 36.8789C42.2951 36.8366 42.3621 36.8 42.4116 36.7746C42.4175 36.7718 42.4204 36.7718 42.4233 36.769C42.5573 36.7831 42.6534 36.8704 42.6534 36.9859C42.6534 37.0085 42.6184 37.1718 42.5747 37.3183C42.5514 37.3915 42.5281 37.4648 42.5107 37.5324C42.4903 37.6 42.4728 37.6451 42.4728 37.7465C42.4728 37.8225 42.4087 37.8873 42.3097 37.8873H41.7883L41.7738 38.1549C41.6951 39.6085 40.5883 40.7887 39.1437 41.0394L39.0621 41.0535L39.001 41.1099C38.8874 41.2113 38.7417 41.2704 38.5815 41.2704C38.4213 41.2704 38.2757 41.2113 38.1592 41.1099L38.098 41.0563L38.0165 41.0423C36.5718 40.7915 35.465 39.6085 35.3864 38.1577L35.3718 37.8901H34.8505C34.7514 37.8901 34.6874 37.8225 34.6874 37.7493C34.6874 37.6507 34.667 37.6028 34.6495 37.5352C34.6291 37.4676 34.6087 37.3944 34.5854 37.3211C34.5417 37.1746 34.5068 37.0085 34.5068 36.9887C34.5068 36.8761 34.6029 36.7859 34.7369 36.7718C34.7427 36.7718 34.7427 36.7746 34.7485 36.7775C34.798 36.8028 34.865 36.8394 34.9408 36.8817L35.3806 37.1296V36.2141C35.3806 35.5099 35.7417 35.0394 36.2281 34.7099C36.7145 34.3803 37.3349 34.2282 37.7107 34.2282C38.7534 34.2282 39.5252 34.0056 40.0378 33.7803C40.4194 33.6113 40.5184 33.5099 40.6233 33.4282L40.6116 33.4254ZM36.9709 36.7606C36.7291 36.7606 36.534 36.9493 36.534 37.1831C36.534 37.4169 36.7291 37.6056 36.9709 37.6056C37.2126 37.6056 37.4077 37.4169 37.4077 37.1831C37.4077 36.9493 37.2126 36.7606 36.9709 36.7606ZM40.1747 36.7606C39.933 36.7606 39.7378 36.9493 39.7378 37.1831C39.7378 37.4169 39.933 37.6056 40.1747 37.6056C40.4165 37.6056 40.6116 37.4169 40.6116 37.1831C40.6116 36.9493 40.4165 36.7606 40.1747 36.7606ZM44.832 40.4225L44.4155 41.4282C43.7835 41.6056 43.2068 41.9268 42.732 42.3662L41.6252 42.2113L40.9029 43.4197L41.5932 44.2704C41.5145 44.5831 41.4738 44.8986 41.4738 45.2113C41.4738 45.5239 41.5145 45.8394 41.5932 46.1521L40.9029 47.0028L41.6252 48.2113L42.732 48.0563C43.2068 48.4958 43.7835 48.8169 44.4155 48.9944L44.832 50H46.2738L46.6903 48.9944C47.3223 48.8169 47.899 48.4958 48.3738 48.0563L49.4806 48.2113L50.2029 47.0028L49.5126 46.1521C49.5912 45.8394 49.632 45.5239 49.632 45.2113C49.632 44.8986 49.5912 44.5831 49.5126 44.2704L50.2029 43.4197L49.4806 42.2113L48.3738 42.3662C47.899 41.9268 47.3223 41.6056 46.6903 41.4282L46.2738 40.4225H44.832V40.4225ZM45.2252 40.9859H45.8806L46.2592 41.9014L46.4048 41.9352C47.0369 42.0873 47.6107 42.4085 48.065 42.862L48.1699 42.9662L49.1777 42.8254L49.5039 43.3746L48.8747 44.1493L48.9155 44.2873C49.0058 44.5944 49.0524 44.907 49.0524 45.2141C49.0524 45.5211 49.0058 45.8338 48.9155 46.1408L48.8747 46.2789L49.5039 47.0535L49.1777 47.6028L48.1699 47.462L48.065 47.5662C47.6107 48.0197 47.0398 48.338 46.4048 48.493L46.2592 48.5268L45.8806 49.4423H45.2252L44.8466 48.5268L44.7039 48.493C44.0718 48.3408 43.498 48.0197 43.0437 47.5662L42.9388 47.462L41.931 47.6028L41.6048 47.0535L42.234 46.2789L42.1932 46.1408C42.1029 45.8338 42.0563 45.5211 42.0563 45.2141C42.0563 44.907 42.1029 44.5944 42.1932 44.2873L42.234 44.1493L41.6048 43.3746L41.931 42.8254L42.9388 42.9662L43.0437 42.862C43.498 42.4113 44.0689 42.0901 44.7039 41.9352L44.8466 41.9014L45.2252 40.9859V40.9859ZM36.8252 41.2197C37.1369 41.3803 37.4747 41.4986 37.833 41.569C38.0369 41.7268 38.2903 41.831 38.5728 41.831C38.8553 41.831 39.1087 41.7239 39.3126 41.569C39.6709 41.4986 40.0087 41.3803 40.3204 41.2197V41.9465C40.2068 42.0958 40.0495 42.2901 39.8631 42.4845C39.4757 42.8845 38.966 43.2394 38.5728 43.2394C38.1796 43.2394 37.6699 42.8845 37.2825 42.4845C37.0932 42.2901 36.9359 42.0958 36.8252 41.9465V41.2197V41.2197ZM36.3883 42.3211C36.5107 42.4789 36.6679 42.6704 36.8602 42.8704C37.0786 43.0958 37.3378 43.3324 37.6291 43.5127L36.5369 44.2169L35.9631 42.6704L36.3883 42.3211V42.3211ZM45.5514 42.9577C44.267 42.9577 43.2213 43.969 43.2213 45.2113C43.2213 46.4535 44.267 47.4648 45.5514 47.4648C46.8359 47.4648 47.8815 46.4535 47.8815 45.2113C47.8815 43.969 46.8359 42.9577 45.5514 42.9577ZM35.4709 43.0113L36.2369 45.0817L37.9903 43.9521L38.2029 44.4676L38.0077 46.9014H31.5825V45.7746C31.5825 45.0423 32.8961 44.1127 35.4738 43.0113H35.4709ZM45.5514 43.5211C46.5155 43.5211 47.299 44.2789 47.299 45.2113C47.299 46.1437 46.5155 46.9014 45.5514 46.9014C44.5874 46.9014 43.8039 46.1437 43.8039 45.2113C43.8039 44.2789 44.5874 43.5211 45.5514 43.5211ZM32.4563 45.7746C32.2961 45.7746 32.165 45.9014 32.165 46.0563C32.165 46.2113 32.2961 46.338 32.4563 46.338C32.6165 46.338 32.7476 46.2113 32.7476 46.0563C32.7476 45.9014 32.6165 45.7746 32.4563 45.7746ZM33.6213 45.7746C33.4611 45.7746 33.3301 45.9014 33.3301 46.0563C33.3301 46.2113 33.4611 46.338 33.6213 46.338C33.7815 46.338 33.9126 46.2113 33.9126 46.0563C33.9126 45.9014 33.7815 45.7746 33.6213 45.7746ZM34.7864 45.7746C34.6262 45.7746 34.4951 45.9014 34.4951 46.0563C34.4951 46.2113 34.6262 46.338 34.7864 46.338C34.9466 46.338 35.0777 46.2113 35.0777 46.0563C35.0777 45.9014 34.9466 45.7746 34.7864 45.7746ZM35.9514 45.7746C35.7912 45.7746 35.6602 45.9014 35.6602 46.0563C35.6602 46.2113 35.7912 46.338 35.9514 46.338C36.1116 46.338 36.2427 46.2113 36.2427 46.0563C36.2427 45.9014 36.1116 45.7746 35.9514 45.7746ZM37.1165 45.7746C36.9563 45.7746 36.8252 45.9014 36.8252 46.0563C36.8252 46.2113 36.9563 46.338 37.1165 46.338C37.2767 46.338 37.4077 46.2113 37.4077 46.0563C37.4077 45.9014 37.2767 45.7746 37.1165 45.7746Z" fill="black"/>
        <path d="M38.203 30.6028C39.0593 30.6028 39.5894 30.8591 39.9156 31.107C40.2418 31.3549 40.3496 31.5718 40.3496 31.5718L40.4311 31.7296H40.6117C40.9991 31.7296 41.5205 31.8732 41.9282 32.2197C42.336 32.5662 42.6506 33.107 42.6506 33.9831C42.6506 34.769 42.4554 35.9155 42.4001 36.2366C42.4001 36.2366 42.3972 36.2366 42.3942 36.2366C42.3709 36.2366 42.3739 36.2422 42.3593 36.2451V35.3915C42.3593 34.4282 41.9515 33.7803 41.5438 33.3944C41.136 33.0084 40.7049 32.8704 40.7049 32.8704L40.5389 32.8169L40.4107 32.9352C40.4107 32.9352 40.2273 33.1098 39.7845 33.3042C39.3418 33.4986 38.6573 33.7014 37.6991 33.7014C37.1748 33.7014 36.4845 33.8817 35.8845 34.2845C35.2874 34.6873 34.7894 35.3493 34.7865 36.2451C34.769 36.2451 34.7748 36.2366 34.7486 36.2366C34.7428 36.2366 34.734 36.2366 34.7282 36.2366C34.67 35.9634 34.5739 35.4338 34.5739 34.7549C34.5739 34.0169 34.3001 33.5267 34.0146 33.2422C33.8952 33.1211 33.8661 33.1408 33.7612 33.0817C33.9622 32.8535 34.335 32.4451 34.9729 31.9436C35.8379 31.262 37.0088 30.5972 38.2001 30.5972L38.203 30.6028Z" fill="white"/>
    </g>
    <defs>
        <filter id="filter0_ddd_27_1041" x="0" y="0" width="72" height="75" filterUnits="userSpaceOnUse" color-interpolation-filters="sRGB">
            <feFlood flood-opacity="0" result="BackgroundImageFix"/>
            <feColorMatrix in="SourceAlpha" type="matrix" values="0 0 0 0 0 0 0 0 0 0 0 0 0 0 0 0 0 0 127 0" result="hardAlpha"/>
            <feOffset dx="2" dy="5"/>
            <feGaussianBlur stdDeviation="5"/>
            <feColorMatrix type="matrix" values="0 0 0 0 0.806215 0 0 0 0 0.853688 0 0 0 0 0.891667 0 0 0 0.75 0"/>
            <feBlend mode="normal" in2="BackgroundImageFix" result="effect1_dropShadow_27_1041"/>
            <feColorMatrix in="SourceAlpha" type="matrix" values="0 0 0 0 0 0 0 0 0 0 0 0 0 0 0 0 0 0 127 0" result="hardAlpha"/>
            <feOffset dx="-5" dy="-5"/>
            <feGaussianBlur stdDeviation="7.5"/>
            <feColorMatrix type="matrix" values="0 0 0 0 1 0 0 0 0 1 0 0 0 0 1 0 0 0 0.8 0"/>
            <feBlend mode="normal" in2="effect1_dropShadow_27_1041" result="effect2_dropShadow_27_1041"/>
            <feColorMatrix in="SourceAlpha" type="matrix" values="0 0 0 0 0 0 0 0 0 0 0 0 0 0 0 0 0 0 127 0" result="hardAlpha"/>
            <feOffset dx="-7" dy="-7"/>
            <feGaussianBlur stdDeviation="6"/>
            <feColorMatrix type="matrix" values="0 0 0 0 1 0 0 0 0 1 0 0 0 0 1 0 0 0 0.5 0"/>
            <feBlend mode="normal" in2="effect2_dropShadow_27_1041" result="effect3_dropShadow_27_1041"/>
            <feBlend mode="normal" in="SourceGraphic" in2="effect3_dropShadow_27_1041" result="shape"/>
        </filter>
        <clipPath id="clip0_27_1041">
            <rect width="19.2" height="20" fill="white" transform="translate(31 30)"/>
        </clipPath>
    </defs>
</svg>
