<svg width="40" height="40" viewBox="0 0 40 40" fill="none" xmlns="http://www.w3.org/2000/svg">
    <g filter="url(#filter0_ii_27_1041)">
        <circle cx="20" cy="20" r="20" fill="#FBFDFF"/>
    </g>
    <ellipse cx="20" cy="31.5" rx="11.5" ry="1.5" fill="#8FEDFF"/>
    <g clip-path="url(#clip0_27_1041)">
        <path d="M24.6412 11.6426C25.3501 11.6426 25.7626 11.8965 26.0132 12.1408C26.2637 12.3851 26.3371 12.6036 26.3371 12.6036L26.4012 12.7933H26.5937C26.9176 12.7933 27.2476 12.9058 27.5043 13.2015C27.7609 13.4972 27.9626 13.9922 27.9626 14.8086C27.9626 15.4515 27.7946 16.8497 27.7243 17.4026L27.6968 17.6115L27.8771 17.7015C27.9321 17.7272 27.9626 17.7722 27.9626 17.8269C27.9626 17.8301 27.9382 17.9715 27.9015 18.0969C27.8832 18.1611 27.8648 18.2222 27.8496 18.2801C27.8343 18.3379 27.819 18.3765 27.819 18.4729C27.819 18.5083 27.7915 18.5436 27.7365 18.5436H27.1407V18.939C27.1407 19.7876 26.7526 20.5333 26.1568 21.0026L26.0468 21.0894V22.7737L26.2301 22.8411C26.2301 22.8411 27.3759 23.2558 28.5157 23.8826C29.084 24.1976 29.6493 24.564 30.0587 24.9465C30.4682 25.329 30.6943 25.7083 30.6943 26.0201V26.5954H18.6646V26.0201C18.6646 25.7083 18.8907 25.329 19.3001 24.9465C19.7096 24.5672 20.2748 24.1976 20.8432 23.8826C21.9829 23.2558 23.1287 22.8411 23.1287 22.8411L23.3121 22.7737V21.0894L23.2021 21.0026C22.6062 20.5301 22.2182 19.7844 22.2182 18.9358V18.5404H21.6223C21.5673 18.5404 21.5398 18.5051 21.5398 18.4697C21.5398 18.3733 21.5246 18.3347 21.5093 18.2769C21.494 18.219 21.4757 18.1579 21.4573 18.0936C21.4237 17.9715 21.3962 17.8301 21.3962 17.8236C21.3962 17.7722 21.4268 17.724 21.4787 17.6983L21.659 17.6083L21.6315 17.3994C21.5612 16.8561 21.3932 15.4933 21.3932 14.8054C21.3932 13.8347 21.7354 13.0601 22.3068 12.5104C22.8782 11.9608 23.6879 11.6426 24.6351 11.6426H24.6412Z" fill="#8FEDFF"/>
        <path d="M15.169 11.6426C15.8779 11.6426 16.2904 11.8965 16.541 12.1408C16.7915 12.3851 16.8649 12.6036 16.8649 12.6036L16.929 12.7933H17.1215C17.4454 12.7933 17.7754 12.9058 18.0321 13.2015C18.2888 13.4972 18.4904 13.9922 18.4904 14.8086C18.4904 15.4515 18.3224 16.8497 18.2521 17.4026L18.2246 17.6115L18.4049 17.7015C18.4599 17.7272 18.4904 17.7722 18.4904 17.8269C18.4904 17.8301 18.466 17.9715 18.4293 18.0969C18.411 18.1611 18.3927 18.2222 18.3774 18.2801C18.3621 18.3379 18.3468 18.3765 18.3468 18.4729C18.3468 18.5083 18.3193 18.5436 18.2643 18.5436H17.6685V18.939C17.6685 19.7876 17.2804 20.5333 16.6846 21.0026L16.5746 21.0894V22.7737L16.7579 22.8411C16.7579 22.8411 17.9038 23.2558 19.0435 23.8826C19.6118 24.1976 20.1771 24.564 20.5865 24.9465C20.996 25.329 21.2221 25.7083 21.2221 26.0201V26.5954H9.19238V26.0201C9.19238 25.7083 9.41849 25.329 9.82794 24.9465C10.2374 24.5672 10.8027 24.1976 11.371 23.8826C12.5107 23.2558 13.6565 22.8411 13.6565 22.8411L13.8399 22.7737V21.0894L13.7299 21.0026C13.134 20.5301 12.746 19.7844 12.746 18.9358V18.5404H12.1502C12.0952 18.5404 12.0677 18.5051 12.0677 18.4697C12.0677 18.3733 12.0524 18.3347 12.0371 18.2769C12.0218 18.219 12.0035 18.1579 11.9852 18.0936C11.9515 17.9715 11.924 17.8301 11.924 17.8236C11.924 17.7722 11.9546 17.724 12.0065 17.6983L12.1868 17.6083L12.1593 17.3994C12.089 16.8561 11.921 15.4933 11.921 14.8054C11.921 13.8347 12.2632 13.0601 12.8346 12.5104C13.406 11.9608 14.2157 11.6426 15.1629 11.6426H15.169Z" fill="#01C9F1"/>
        <path d="M19.9573 10.6426C20.7517 10.6426 21.2101 10.9254 21.4912 11.1986C21.7692 11.4719 21.8548 11.7161 21.8548 11.7161L21.9281 11.9283H22.142C22.5056 11.9283 22.8723 12.0536 23.1595 12.3815C23.4467 12.7094 23.6698 13.2654 23.6698 14.1783C23.6698 14.8983 23.4834 16.4604 23.4009 17.0776L23.3703 17.3122L23.572 17.4119C23.6331 17.4408 23.6667 17.4922 23.6667 17.5533C23.6667 17.5597 23.6392 17.7172 23.5995 17.8554C23.5781 17.9261 23.5598 17.9936 23.5414 18.0611C23.5262 18.1254 23.5078 18.1704 23.5078 18.2797C23.5078 18.3183 23.4773 18.3601 23.4162 18.3601H22.7501V18.8036C22.7501 19.7519 22.3162 20.5844 21.6501 21.1115L21.5278 21.2079V23.0915L21.7356 23.1654C21.7356 23.1654 23.0189 23.6283 24.2901 24.329C24.9256 24.6794 25.5581 25.094 26.0134 25.5183C26.4687 25.9458 26.7223 26.3701 26.7223 26.7172V27.3601H13.2778V26.7172C13.2778 26.3669 13.5314 25.9426 13.9867 25.5183C14.442 25.094 15.0745 24.6794 15.7101 24.329C16.9812 23.6283 18.2645 23.1654 18.2645 23.1654L18.4723 23.0915V21.2079L18.3501 21.1115C17.6839 20.5844 17.2501 19.7486 17.2501 18.8036V18.3601H16.5839C16.5228 18.3601 16.4923 18.3215 16.4923 18.2797C16.4923 18.1704 16.4739 18.1286 16.4587 18.0611C16.4403 17.9969 16.422 17.9261 16.4006 17.8554C16.3639 17.7172 16.3334 17.5597 16.3334 17.5533C16.3334 17.4954 16.367 17.4408 16.4251 17.4119L16.6267 17.3122L16.5962 17.0776C16.5167 16.4701 16.3303 14.9465 16.3303 14.1783C16.3303 13.0951 16.7123 12.2272 17.3509 11.6133C17.9895 10.9994 18.8939 10.6426 19.9542 10.6426H19.9573Z" fill="white"/>
        <path d="M19.9572 9.9998C18.7656 9.9998 17.7053 10.408 16.9414 11.1409C16.7825 11.2952 16.6389 11.4655 16.5075 11.6455C16.1958 11.4462 15.7742 11.2887 15.2272 11.2887C14.2525 11.2887 13.3817 11.623 12.7522 12.2305C12.1258 12.838 11.75 13.7155 11.75 14.7409C11.75 15.4094 11.9119 16.618 12.0006 17.2834C11.86 17.4087 11.75 17.5694 11.75 17.7816C11.75 17.9584 11.7958 18.0741 11.8325 18.1898C11.8508 18.2509 11.8661 18.3023 11.8753 18.3409C11.8875 18.3794 11.8844 18.4212 11.8844 18.3569C11.8844 18.6687 12.1197 18.8777 12.3917 18.9452C12.4619 19.7873 12.8469 20.5266 13.4306 21.0344V22.3073C13.2686 22.3652 12.4039 22.6544 11.3742 23.1912C10.8119 23.4837 10.2436 23.8277 9.7975 24.2198C9.35444 24.6087 9 25.0652 9 25.618V26.7109H12.6667V27.9966H27.3333V26.7109H31V25.618C31 25.0652 30.6456 24.6119 30.2025 24.2198C29.7594 23.8277 29.1911 23.4837 28.6258 23.1912C27.5931 22.6544 26.7314 22.3619 26.5694 22.3073V21.0344C27.1531 20.5266 27.5381 19.7841 27.6083 18.9452C27.8803 18.8777 28.1156 18.6687 28.1156 18.3569C28.1156 18.4212 28.1156 18.3794 28.1247 18.3409C28.1339 18.3023 28.1522 18.2477 28.1675 18.1898C28.2011 18.0709 28.25 17.9552 28.25 17.7816C28.25 17.5694 28.14 17.4087 27.9994 17.2834C28.0881 16.6084 28.25 15.3773 28.25 14.7409C28.25 13.8955 28.0239 13.2655 27.6725 12.8509C27.3608 12.4909 26.9636 12.3302 26.5817 12.2884C26.5267 12.1855 26.4808 12.0602 26.2486 11.848C25.9706 11.5973 25.5428 11.353 24.95 11.2984C24.9317 11.2984 24.9133 11.2855 24.895 11.2855C24.8828 11.2855 24.8736 11.2919 24.8614 11.2919C24.8094 11.2919 24.7606 11.2855 24.7056 11.2855C24.1586 11.2855 23.6483 11.3948 23.19 11.5941C22.9242 11.4334 22.6339 11.353 22.3497 11.3241C22.2764 11.1794 22.1572 10.9673 21.9097 10.7262C21.5308 10.3566 20.8983 9.99658 19.9603 9.99658L19.9572 9.9998ZM19.9572 10.6427C20.7517 10.6427 21.21 10.9255 21.4911 11.1987C21.7692 11.4719 21.8547 11.7162 21.8547 11.7162L21.9281 11.9284H22.1419C22.5056 11.9284 22.8722 12.0537 23.1594 12.3816C23.4467 12.7094 23.6697 13.2655 23.6697 14.1784C23.6697 14.8984 23.4833 16.4605 23.4008 17.0777L23.3703 17.3123L23.5719 17.4119C23.6331 17.4409 23.6667 17.4923 23.6667 17.5534C23.6667 17.5598 23.6392 17.7173 23.5994 17.8555C23.5781 17.9262 23.5597 17.9937 23.5414 18.0612C23.5261 18.1255 23.5078 18.1705 23.5078 18.2798C23.5078 18.3184 23.4772 18.3602 23.4161 18.3602H22.75V18.8037C22.75 19.7519 22.3161 20.5844 21.65 21.1116L21.5278 21.208V23.0916L21.7356 23.1655C21.7356 23.1655 23.0189 23.6284 24.29 24.3291C24.9256 24.6794 25.5581 25.0941 26.0133 25.5184C26.4686 25.9459 26.7222 26.3702 26.7222 26.7173V27.3602H13.2778V26.7173C13.2778 26.3669 13.5314 25.9427 13.9867 25.5184C14.4419 25.0941 15.0744 24.6794 15.71 24.3291C16.9811 23.6284 18.2644 23.1655 18.2644 23.1655L18.4722 23.0916V21.208L18.35 21.1116C17.6839 20.5844 17.25 19.7487 17.25 18.8037V18.3602H16.5839C16.5228 18.3602 16.4922 18.3216 16.4922 18.2798C16.4922 18.1705 16.4739 18.1287 16.4586 18.0612C16.4403 17.9969 16.4219 17.9262 16.4006 17.8555C16.3639 17.7173 16.3333 17.5598 16.3333 17.5534C16.3333 17.4955 16.3669 17.4409 16.425 17.4119L16.6267 17.3123L16.5961 17.0777C16.5167 16.4702 16.3303 14.9466 16.3303 14.1784C16.3303 13.0952 16.7122 12.2273 17.3508 11.6134C17.9894 10.9994 18.8939 10.6427 19.9542 10.6427H19.9572ZM15.2272 11.9284C15.6581 11.9284 15.9606 12.0441 16.1806 12.1823C16.0033 12.5327 15.875 12.9152 15.7986 13.3298C15.7528 13.3844 15.7222 13.4552 15.7222 13.5355C15.7222 13.5837 15.7344 13.6287 15.7497 13.6673C15.7314 13.8344 15.7222 14.0048 15.7222 14.1784C15.7222 14.4934 15.7497 14.8823 15.7864 15.2777C15.7497 15.3291 15.7222 15.3934 15.7222 15.4641C15.7222 15.5573 15.7619 15.6409 15.8231 15.6987C15.875 16.1969 15.9361 16.6791 15.9789 17.0005C15.8353 17.1452 15.7222 17.3284 15.7222 17.5534C15.7222 17.743 15.7742 17.8909 15.8139 18.0355C15.8353 18.1094 15.8536 18.1769 15.8658 18.2284C15.8781 18.2798 15.8811 18.328 15.8811 18.2766C15.8811 18.6784 16.2081 18.9998 16.5839 18.9998H16.6603C16.6786 19.3437 16.7489 19.6716 16.8528 19.9834C16.7275 20.0252 16.6358 20.1409 16.6358 20.2855C16.6358 20.4623 16.7733 20.6069 16.9414 20.6069C17.0025 20.6069 17.0575 20.5844 17.1033 20.5523C17.2317 20.7869 17.3844 21.0055 17.5617 21.2016C17.5586 21.2177 17.5525 21.2337 17.5525 21.2498C17.5525 21.4266 17.69 21.5712 17.8581 21.5712V22.6352C17.6594 22.7091 17.0636 22.9341 16.3058 23.3005C16.3211 23.2619 16.3303 23.2202 16.3303 23.1752C16.3303 22.9984 16.1928 22.8537 16.0247 22.8537C15.8567 22.8537 15.7192 22.9984 15.7192 23.1752C15.7192 23.323 15.8169 23.4452 15.9483 23.4805C15.7742 23.5673 15.6061 23.6509 15.4228 23.7505C15.3617 23.7859 15.3036 23.818 15.2456 23.8534C15.2028 23.8309 15.1569 23.8148 15.1081 23.8148C14.9461 23.8148 14.8178 23.9466 14.8086 24.1137C14.3625 24.3902 13.9347 24.6923 13.5803 25.0266C13.2442 25.3416 12.96 25.6855 12.8011 26.0648H11.7469C11.7469 25.888 11.6094 25.7434 11.4414 25.7434C11.2733 25.7434 11.1358 25.888 11.1358 26.0648H9.91667C9.91667 25.888 9.77917 25.7434 9.61111 25.7434V25.6148C9.61111 25.3737 9.80667 25.0459 10.1886 24.7084C10.4544 24.4737 10.7936 24.2455 11.1572 24.0334C11.1481 24.0655 11.1389 24.0977 11.1389 24.1362C11.1389 24.313 11.2764 24.4577 11.4444 24.4577C11.6125 24.4577 11.75 24.313 11.75 24.1362C11.75 23.9884 11.6522 23.8662 11.5208 23.8309C11.5636 23.8084 11.6033 23.7859 11.6431 23.7634C11.8508 23.6541 12.0525 23.5609 12.2511 23.4677C12.2847 23.4837 12.3214 23.4902 12.3611 23.4902C12.4894 23.4902 12.5964 23.4098 12.6422 23.2909C13.2625 23.0241 13.7422 22.8537 13.7667 22.8473H14.0417V21.5134C14.0875 21.5423 14.1364 21.5616 14.1944 21.5616C14.3625 21.5616 14.5 21.4169 14.5 21.2402C14.5 21.0634 14.3625 20.9187 14.1944 20.9187C14.1364 20.9187 14.0875 20.938 14.0417 20.9669V20.7227L13.9164 20.6262C13.7942 20.5298 13.6811 20.4205 13.5772 20.3048C13.5772 20.2919 13.5833 20.2855 13.5833 20.2759C13.5833 20.1184 13.4733 19.993 13.3297 19.9673C13.1036 19.5944 12.9722 19.1509 12.9722 18.6752V18.3505H12.5292C12.4925 18.3505 12.4956 18.3377 12.4956 18.3505C12.4956 18.2444 12.4772 18.2091 12.4619 18.1544C12.4467 18.0998 12.4314 18.0452 12.4131 17.9905C12.3794 17.8812 12.3581 17.7527 12.3581 17.7719C12.3581 17.7559 12.3672 17.7334 12.4161 17.7173L12.6575 17.6305L12.6422 17.5084C12.6575 17.4698 12.6667 17.428 12.6667 17.383C12.6667 17.3123 12.6392 17.248 12.6025 17.1966C12.5536 16.8205 12.4864 16.2934 12.4344 15.763C12.5658 15.7277 12.6667 15.6055 12.6667 15.4577C12.6667 15.2873 12.5414 15.1523 12.3825 15.1427C12.3733 14.9948 12.3611 14.8373 12.3611 14.7312C12.3611 14.4002 12.4039 14.098 12.4894 13.8216C12.5933 13.7702 12.6667 13.6609 12.6667 13.5291C12.6667 13.4905 12.6575 13.4552 12.6453 13.4198C12.7553 13.1884 12.8989 12.9794 13.0669 12.7994C13.1219 12.8541 13.1953 12.8894 13.2747 12.8894C13.4428 12.8894 13.5803 12.7448 13.5803 12.568C13.5803 12.5069 13.5589 12.4523 13.5314 12.4041C13.9928 12.0987 14.5672 11.9252 15.2242 11.9252L15.2272 11.9284ZM12.9722 18.3569C12.9722 18.5337 13.1097 18.6784 13.2778 18.6784C13.4458 18.6784 13.5833 18.5337 13.5833 18.3569C13.5833 18.1802 13.4458 18.0355 13.2778 18.0355C13.1097 18.0355 12.9722 18.1802 12.9722 18.3569ZM24.6994 11.9284C25.2067 11.9284 25.5306 12.0891 25.7536 12.2627C25.6131 12.2884 25.5 12.4137 25.5 12.5712C25.5 12.748 25.6375 12.8927 25.8056 12.8927C25.9522 12.8927 26.0714 12.7802 26.0989 12.6355C26.1142 12.6644 26.1386 12.703 26.1386 12.703L26.2211 12.8927H26.4167C26.6856 12.8927 26.9789 13.0019 27.2142 13.2784C27.3822 13.4744 27.5289 13.7669 27.5961 14.1848C27.4494 14.2073 27.3333 14.3359 27.3333 14.4966C27.3333 14.6734 27.4678 14.8148 27.6328 14.818C27.6267 15.1266 27.5808 15.6152 27.5258 16.1262C27.4128 16.1744 27.3333 16.2869 27.3333 16.4252C27.3333 16.5312 27.3853 16.6212 27.4586 16.6791C27.4281 16.9202 27.3975 17.2127 27.3761 17.3734L27.3425 17.6369L27.5839 17.7237C27.6328 17.7398 27.6419 17.7623 27.6419 17.7784C27.6419 17.7591 27.6206 17.8877 27.5869 17.9969C27.5808 18.013 27.5747 18.0323 27.5717 18.0516C27.4372 18.0837 27.3364 18.2059 27.3364 18.3569H27.0308V18.6816C27.0308 18.8455 27.0125 19.003 26.9819 19.1573C26.9269 19.0641 26.8353 18.9998 26.7253 18.9998C26.5572 18.9998 26.4197 19.1444 26.4197 19.3212C26.4197 19.498 26.5572 19.6427 26.7253 19.6427C26.7711 19.6427 26.8139 19.6298 26.8536 19.6137C26.6886 20.0252 26.4258 20.3787 26.0867 20.6391L25.9614 20.7355V21.9441C25.9156 21.9152 25.8667 21.8959 25.8086 21.8959C25.6406 21.8959 25.5031 22.0405 25.5031 22.2173C25.5031 22.3941 25.6406 22.5387 25.8086 22.5387C25.8667 22.5387 25.9156 22.5194 25.9614 22.4905V22.8602H26.2364C26.2364 22.8602 26.4258 22.9341 26.5053 22.9598C26.4533 23.0177 26.4197 23.0948 26.4197 23.1816C26.4197 23.3584 26.5572 23.503 26.7253 23.503C26.8933 23.503 27.0308 23.3584 27.0308 23.1816C27.0308 23.1752 27.0278 23.1687 27.0278 23.1623C27.4067 23.3166 27.8772 23.5223 28.36 23.773C28.6472 23.9209 28.9283 24.0848 29.1911 24.2552C29.2339 24.3773 29.3439 24.4673 29.4753 24.4673C29.4814 24.4673 29.4875 24.4641 29.4936 24.4641C29.6097 24.5477 29.7136 24.6344 29.8114 24.718C29.9275 24.8209 30.0192 24.9205 30.1017 25.0202C30.0925 25.0491 30.0833 25.078 30.0833 25.1102C30.0833 25.2741 30.1994 25.4027 30.3492 25.4219C30.3736 25.4959 30.3889 25.5602 30.3889 25.6212V26.0712H29.7778C29.7778 25.8944 29.6403 25.7498 29.4722 25.7498C29.3042 25.7498 29.1667 25.8944 29.1667 26.0712H27.9444C27.9444 25.8944 27.8069 25.7498 27.6389 25.7498C27.4708 25.7498 27.3333 25.8944 27.3333 26.0712H27.1958C27.0981 25.8398 26.9575 25.6212 26.7833 25.4155C26.9208 25.3866 27.0278 25.2612 27.0278 25.1069C27.0278 24.9302 26.8903 24.7855 26.7222 24.7855C26.5756 24.7855 26.4564 24.898 26.4289 25.0427C26.4258 25.0427 26.4228 25.0362 26.4197 25.033C25.9003 24.5509 25.2342 24.1202 24.5742 23.7569C24.1281 23.5127 23.7217 23.3166 23.3581 23.1494C23.3428 22.9855 23.2175 22.8569 23.0586 22.8569C22.9883 22.8569 22.9242 22.8859 22.8722 22.9309C22.53 22.7862 22.2581 22.6769 22.1419 22.6352V22.5355C22.31 22.5355 22.4475 22.3909 22.4475 22.2141C22.4475 22.0373 22.31 21.8927 22.1419 21.8927V21.5005C22.7042 21.0087 23.1014 20.3305 23.2633 19.5591C23.3244 19.5012 23.3642 19.4177 23.3642 19.3244C23.3642 19.2666 23.3489 19.2184 23.3214 19.1734C23.3275 19.1155 23.3367 19.0609 23.3397 19.003H23.4161C23.6575 19.003 23.8744 18.8712 24.0028 18.6752C24.1556 18.6591 24.2808 18.5273 24.2808 18.3602C24.2808 18.2605 24.235 18.1737 24.1678 18.1159C24.1739 18.0902 24.18 18.0709 24.1892 18.0387C24.2289 17.8941 24.2808 17.7462 24.2808 17.5566C24.2808 17.3284 24.1678 17.1484 24.0242 17.0037C24.0333 16.9362 24.0456 16.8141 24.0578 16.7369C24.1861 16.6984 24.2839 16.5794 24.2839 16.4316C24.2839 16.3094 24.2197 16.2098 24.125 16.1552C24.2044 15.4769 24.2839 14.7248 24.2839 14.1816C24.2839 13.6705 24.2197 13.2334 24.1036 12.8669C24.2106 12.8155 24.2839 12.7062 24.2839 12.5744C24.2839 12.3977 24.1464 12.253 23.9783 12.253C23.9325 12.253 23.8867 12.2659 23.8469 12.2884C23.8042 12.2144 23.7583 12.1469 23.7125 12.0827C24.0181 11.9862 24.3481 11.9316 24.7025 11.9316L24.6994 11.9284ZM15.1111 12.2498C14.9431 12.2498 14.8056 12.3944 14.8056 12.5712C14.8056 12.748 14.9431 12.8927 15.1111 12.8927C15.2792 12.8927 15.4167 12.748 15.4167 12.5712C15.4167 12.3944 15.2792 12.2498 15.1111 12.2498ZM14.1944 13.2141C14.0264 13.2141 13.8889 13.3587 13.8889 13.5355C13.8889 13.7123 14.0264 13.8569 14.1944 13.8569C14.3625 13.8569 14.5 13.7123 14.5 13.5355C14.5 13.3587 14.3625 13.2141 14.1944 13.2141ZM24.8889 13.2141C24.7208 13.2141 24.5833 13.3587 24.5833 13.5355C24.5833 13.7123 24.7208 13.8569 24.8889 13.8569C25.0569 13.8569 25.1944 13.7123 25.1944 13.5355C25.1944 13.3587 25.0569 13.2141 24.8889 13.2141ZM26.7222 13.2141C26.5542 13.2141 26.4167 13.3587 26.4167 13.5355C26.4167 13.7123 26.5542 13.8569 26.7222 13.8569C26.8903 13.8569 27.0278 13.7123 27.0278 13.5355C27.0278 13.3587 26.8903 13.2141 26.7222 13.2141ZM13.2778 14.1784C13.1097 14.1784 12.9722 14.323 12.9722 14.4998C12.9722 14.6766 13.1097 14.8212 13.2778 14.8212C13.4458 14.8212 13.5833 14.6766 13.5833 14.4998C13.5833 14.323 13.4458 14.1784 13.2778 14.1784ZM15.1111 14.1784C14.9431 14.1784 14.8056 14.323 14.8056 14.4998C14.8056 14.6766 14.9431 14.8212 15.1111 14.8212C15.2792 14.8212 15.4167 14.6766 15.4167 14.4998C15.4167 14.323 15.2792 14.1784 15.1111 14.1784ZM25.8056 14.1784C25.6375 14.1784 25.5 14.323 25.5 14.4998C25.5 14.6766 25.6375 14.8212 25.8056 14.8212C25.9736 14.8212 26.1111 14.6766 26.1111 14.4998C26.1111 14.323 25.9736 14.1784 25.8056 14.1784ZM14.1944 15.1427C14.0264 15.1427 13.8889 15.2873 13.8889 15.4641C13.8889 15.6409 14.0264 15.7855 14.1944 15.7855C14.3625 15.7855 14.5 15.6409 14.5 15.4641C14.5 15.2873 14.3625 15.1427 14.1944 15.1427ZM24.8889 15.1427C24.7208 15.1427 24.5833 15.2873 24.5833 15.4641C24.5833 15.6409 24.7208 15.7855 24.8889 15.7855C25.0569 15.7855 25.1944 15.6409 25.1944 15.4641C25.1944 15.2873 25.0569 15.1427 24.8889 15.1427ZM26.7222 15.1427C26.5542 15.1427 26.4167 15.2873 26.4167 15.4641C26.4167 15.6409 26.5542 15.7855 26.7222 15.7855C26.8903 15.7855 27.0278 15.6409 27.0278 15.4641C27.0278 15.2873 26.8903 15.1427 26.7222 15.1427ZM13.2778 16.1069C13.1097 16.1069 12.9722 16.2516 12.9722 16.4284C12.9722 16.6052 13.1097 16.7498 13.2778 16.7498C13.4458 16.7498 13.5833 16.6052 13.5833 16.4284C13.5833 16.2516 13.4458 16.1069 13.2778 16.1069ZM15.1111 16.1069C14.9431 16.1069 14.8056 16.2516 14.8056 16.4284C14.8056 16.6052 14.9431 16.7498 15.1111 16.7498C15.2792 16.7498 15.4167 16.6052 15.4167 16.4284C15.4167 16.2516 15.2792 16.1069 15.1111 16.1069ZM25.8056 16.1069C25.6375 16.1069 25.5 16.2516 25.5 16.4284C25.5 16.6052 25.6375 16.7498 25.8056 16.7498C25.9736 16.7498 26.1111 16.6052 26.1111 16.4284C26.1111 16.2516 25.9736 16.1069 25.8056 16.1069ZM14.1944 17.0712C14.0264 17.0712 13.8889 17.2159 13.8889 17.3927C13.8889 17.5694 14.0264 17.7141 14.1944 17.7141C14.3625 17.7141 14.5 17.5694 14.5 17.3927C14.5 17.2159 14.3625 17.0712 14.1944 17.0712ZM24.8889 17.0712C24.7208 17.0712 24.5833 17.2159 24.5833 17.3927C24.5833 17.5694 24.7208 17.7141 24.8889 17.7141C25.0569 17.7141 25.1944 17.5694 25.1944 17.3927C25.1944 17.2159 25.0569 17.0712 24.8889 17.0712ZM26.7222 17.0712C26.5542 17.0712 26.4167 17.2159 26.4167 17.3927C26.4167 17.5694 26.5542 17.7141 26.7222 17.7141C26.8903 17.7141 27.0278 17.5694 27.0278 17.3927C27.0278 17.2159 26.8903 17.0712 26.7222 17.0712ZM15.1111 18.0355C14.9431 18.0355 14.8056 18.1802 14.8056 18.3569C14.8056 18.5337 14.9431 18.6784 15.1111 18.6784C15.2792 18.6784 15.4167 18.5337 15.4167 18.3569C15.4167 18.1802 15.2792 18.0355 15.1111 18.0355ZM25.8056 18.0355C25.6375 18.0355 25.5 18.1802 25.5 18.3569C25.5 18.5337 25.6375 18.6784 25.8056 18.6784C25.9736 18.6784 26.1111 18.5337 26.1111 18.3569C26.1111 18.1802 25.9736 18.0355 25.8056 18.0355ZM14.1944 18.9998C14.0264 18.9998 13.8889 19.1444 13.8889 19.3212C13.8889 19.498 14.0264 19.6427 14.1944 19.6427C14.3625 19.6427 14.5 19.498 14.5 19.3212C14.5 19.1444 14.3625 18.9998 14.1944 18.9998ZM16.0278 18.9998C15.8597 18.9998 15.7222 19.1444 15.7222 19.3212C15.7222 19.498 15.8597 19.6427 16.0278 19.6427C16.1958 19.6427 16.3333 19.498 16.3333 19.3212C16.3333 19.1444 16.1958 18.9998 16.0278 18.9998ZM24.8889 18.9998C24.7208 18.9998 24.5833 19.1444 24.5833 19.3212C24.5833 19.498 24.7208 19.6427 24.8889 19.6427C25.0569 19.6427 25.1944 19.498 25.1944 19.3212C25.1944 19.1444 25.0569 18.9998 24.8889 18.9998ZM15.1111 19.9641C14.9431 19.9641 14.8056 20.1087 14.8056 20.2855C14.8056 20.4623 14.9431 20.6069 15.1111 20.6069C15.2792 20.6069 15.4167 20.4623 15.4167 20.2855C15.4167 20.1087 15.2792 19.9641 15.1111 19.9641ZM23.9722 19.9641C23.8042 19.9641 23.6667 20.1087 23.6667 20.2855C23.6667 20.4623 23.8042 20.6069 23.9722 20.6069C24.1403 20.6069 24.2778 20.4623 24.2778 20.2855C24.2778 20.1087 24.1403 19.9641 23.9722 19.9641ZM25.8056 19.9641C25.6375 19.9641 25.5 20.1087 25.5 20.2855C25.5 20.4623 25.6375 20.6069 25.8056 20.6069C25.9736 20.6069 26.1111 20.4623 26.1111 20.2855C26.1111 20.1087 25.9736 19.9641 25.8056 19.9641ZM16.0278 20.9284C15.8597 20.9284 15.7222 21.073 15.7222 21.2498C15.7222 21.4266 15.8597 21.5712 16.0278 21.5712C16.1958 21.5712 16.3333 21.4266 16.3333 21.2498C16.3333 21.073 16.1958 20.9284 16.0278 20.9284ZM23.0556 20.9284C22.8875 20.9284 22.75 21.073 22.75 21.2498C22.75 21.4266 22.8875 21.5712 23.0556 21.5712C23.2236 21.5712 23.3611 21.4266 23.3611 21.2498C23.3611 21.073 23.2236 20.9284 23.0556 20.9284ZM24.8889 20.9284C24.7208 20.9284 24.5833 21.073 24.5833 21.2498C24.5833 21.4266 24.7208 21.5712 24.8889 21.5712C25.0569 21.5712 25.1944 21.4266 25.1944 21.2498C25.1944 21.073 25.0569 20.9284 24.8889 20.9284ZM15.1111 21.8927C14.9431 21.8927 14.8056 22.0373 14.8056 22.2141C14.8056 22.3909 14.9431 22.5355 15.1111 22.5355C15.2792 22.5355 15.4167 22.3909 15.4167 22.2141C15.4167 22.0373 15.2792 21.8927 15.1111 21.8927ZM16.9444 21.8927C16.7764 21.8927 16.6389 22.0373 16.6389 22.2141C16.6389 22.3909 16.7764 22.5355 16.9444 22.5355C17.1125 22.5355 17.25 22.3909 17.25 22.2141C17.25 22.0373 17.1125 21.8927 16.9444 21.8927ZM23.9722 21.8927C23.8042 21.8927 23.6667 22.0373 23.6667 22.2141C23.6667 22.3909 23.8042 22.5355 23.9722 22.5355C24.1403 22.5355 24.2778 22.3909 24.2778 22.2141C24.2778 22.0373 24.1403 21.8927 23.9722 21.8927ZM14.1944 22.8569C14.0264 22.8569 13.8889 23.0016 13.8889 23.1784C13.8889 23.3552 14.0264 23.4998 14.1944 23.4998C14.3625 23.4998 14.5 23.3552 14.5 23.1784C14.5 23.0016 14.3625 22.8569 14.1944 22.8569ZM24.8889 22.8569C24.7208 22.8569 24.5833 23.0016 24.5833 23.1784C24.5833 23.3552 24.7208 23.4998 24.8889 23.4998C25.0569 23.4998 25.1944 23.3552 25.1944 23.1784C25.1944 23.0016 25.0569 22.8569 24.8889 22.8569ZM13.2778 23.8212C13.1097 23.8212 12.9722 23.9659 12.9722 24.1427C12.9722 24.3194 13.1097 24.4641 13.2778 24.4641C13.4458 24.4641 13.5833 24.3194 13.5833 24.1427C13.5833 23.9659 13.4458 23.8212 13.2778 23.8212ZM25.8056 23.8212C25.6375 23.8212 25.5 23.9659 25.5 24.1427C25.5 24.3194 25.6375 24.4641 25.8056 24.4641C25.9736 24.4641 26.1111 24.3194 26.1111 24.1427C26.1111 23.9659 25.9736 23.8212 25.8056 23.8212ZM27.6389 23.8212C27.4708 23.8212 27.3333 23.9659 27.3333 24.1427C27.3333 24.3194 27.4708 24.4641 27.6389 24.4641C27.8069 24.4641 27.9444 24.3194 27.9444 24.1427C27.9444 23.9659 27.8069 23.8212 27.6389 23.8212ZM10.5278 24.7855C10.3597 24.7855 10.2222 24.9302 10.2222 25.1069C10.2222 25.2837 10.3597 25.4284 10.5278 25.4284C10.6958 25.4284 10.8333 25.2837 10.8333 25.1069C10.8333 24.9302 10.6958 24.7855 10.5278 24.7855ZM12.3611 24.7855C12.1931 24.7855 12.0556 24.9302 12.0556 25.1069C12.0556 25.2837 12.1931 25.4284 12.3611 25.4284C12.5292 25.4284 12.6667 25.2837 12.6667 25.1069C12.6667 24.9302 12.5292 24.7855 12.3611 24.7855ZM28.5556 24.7855C28.3875 24.7855 28.25 24.9302 28.25 25.1069C28.25 25.2837 28.3875 25.4284 28.5556 25.4284C28.7236 25.4284 28.8611 25.2837 28.8611 25.1069C28.8611 24.9302 28.7236 24.7855 28.5556 24.7855Z" fill="black"/>
    </g>
    <defs>
        <filter id="filter0_ii_27_1041" x="-0.5" y="-0.5" width="41" height="41" filterUnits="userSpaceOnUse" color-interpolation-filters="sRGB">
            <feFlood flood-opacity="0" result="BackgroundImageFix"/>
            <feBlend mode="normal" in="SourceGraphic" in2="BackgroundImageFix" result="shape"/>
            <feColorMatrix in="SourceAlpha" type="matrix" values="0 0 0 0 0 0 0 0 0 0 0 0 0 0 0 0 0 0 127 0" result="hardAlpha"/>
            <feOffset dx="-0.5" dy="0.5"/>
            <feGaussianBlur stdDeviation="1.5"/>
            <feComposite in2="hardAlpha" operator="arithmetic" k2="-1" k3="1"/>
            <feColorMatrix type="matrix" values="0 0 0 0 0.680556 0 0 0 0 0.717083 0 0 0 0 0.729167 0 0 0 1 0"/>
            <feBlend mode="normal" in2="shape" result="effect1_innerShadow_27_1041"/>
            <feColorMatrix in="SourceAlpha" type="matrix" values="0 0 0 0 0 0 0 0 0 0 0 0 0 0 0 0 0 0 127 0" result="hardAlpha"/>
            <feOffset dx="0.5" dy="-0.5"/>
            <feGaussianBlur stdDeviation="0.25"/>
            <feComposite in2="hardAlpha" operator="arithmetic" k2="-1" k3="1"/>
            <feColorMatrix type="matrix" values="0 0 0 0 1 0 0 0 0 1 0 0 0 0 1 0 0 0 1 0"/>
            <feBlend mode="normal" in2="effect1_innerShadow_27_1041" result="effect2_innerShadow_27_1041"/>
        </filter>
        <clipPath id="clip0_27_1041">
            <rect width="22" height="18" fill="white" transform="translate(9 10)"/>
        </clipPath>
    </defs>
</svg>
