<svg width="160" height="160" viewBox="0 0 160 160" fill="none" xmlns="http://www.w3.org/2000/svg">
<path d="M80 145C115.899 145 145 115.899 145 80C145 44.1015 115.899 15 80 15C44.1015 15 15 44.1015 15 80C15 115.899 44.1015 145 80 145Z" fill="#E4EEF4"/>
<path d="M80 145.5C43.88 145.5 14.5 116.12 14.5 80C14.5 43.88 43.88 14.5 80 14.5C116.12 14.5 145.5 43.88 145.5 80C145.5 116.12 116.12 145.5 80 145.5ZM80 15.5C44.43 15.5 15.5 44.43 15.5 80C15.5 115.57 44.43 144.5 80 144.5C115.57 144.5 144.5 115.57 144.5 80C144.5 44.43 115.57 15.5 80 15.5Z" fill="#99BDD1"/>
<path d="M137.97 136.72H22.0302C21.7002 136.72 21.4302 136.45 21.4302 136.12C21.4302 135.79 21.7002 135.52 22.0302 135.52H137.97C138.3 135.52 138.57 135.79 138.57 136.12C138.57 136.45 138.3 136.72 137.97 136.72Z" fill="#324559"/>
<path d="M139.18 56.7802L121.85 70.4902L122.52 85.3402L152.9 60.2102C153.39 59.8002 153.46 59.0702 153.05 58.5802L152.69 58.1502C149.3 54.1202 143.32 53.5202 139.19 56.7802H139.18Z" fill="white"/>
<path d="M143.55 68.3305C143.55 68.3305 143.46 68.3305 143.42 68.3105C143.29 68.2705 143.19 68.1605 143.16 68.0205C143.03 67.4705 142.97 66.9105 142.97 66.3405C142.97 62.3305 146.24 59.0605 150.27 59.0605C150.6 59.0605 150.94 59.0805 151.28 59.1305C151.95 59.2205 152.6 59.4105 153.22 59.6805C153.33 59.7305 153.42 59.8305 153.45 59.9505C153.48 60.0705 153.45 60.2005 153.37 60.3005C153.31 60.3805 153.24 60.4505 153.16 60.5205L143.81 68.2505C143.74 68.3105 143.65 68.3405 143.56 68.3405L143.55 68.3305ZM150.27 59.8605C146.69 59.8605 143.77 62.7705 143.77 66.3405C143.77 66.6205 143.79 66.9105 143.83 67.1905L152.3 60.1805C151.93 60.0605 151.56 59.9705 151.17 59.9205C150.88 59.8805 150.57 59.8605 150.27 59.8605Z" fill="#324559"/>
<path d="M122.52 85.9402C122.44 85.9402 122.35 85.9202 122.28 85.8902C122.07 85.8002 121.93 85.6002 121.92 85.3702L121.24 70.5202C121.24 70.3302 121.32 70.1402 121.47 70.0202L138.8 56.3102C143.21 52.8202 149.51 53.4602 153.14 57.7602L153.5 58.1902C153.8 58.5502 153.95 59.0102 153.9 59.4802C153.86 59.9502 153.63 60.3702 153.27 60.6702L122.89 85.8002C122.78 85.8902 122.64 85.9402 122.51 85.9402H122.52ZM122.46 70.7702L123.07 84.1102L152.52 59.7402C152.63 59.6502 152.7 59.5102 152.72 59.3702C152.74 59.2302 152.69 59.0802 152.59 58.9702L152.23 58.5402C149.03 54.7302 143.46 54.1702 139.56 57.2602L122.47 70.7802L122.46 70.7702Z" fill="#324559"/>
<path d="M126.46 44.5498L117.67 90.1398L127.25 83.5798C129.26 82.1998 130.66 80.0998 131.14 77.7098L139.1 38.3198C139.22 37.7198 138.85 37.1298 138.25 36.9898C132.88 35.6698 127.5 39.1198 126.45 44.5498H126.46Z" fill="white"/>
<path d="M136.65 50.8095C136.6 50.8095 136.54 50.7995 136.49 50.7795C135.95 50.5395 135.44 50.2395 134.97 49.8795C133.51 48.7595 132.54 47.1495 132.24 45.3395C131.92 43.4395 132.37 41.5195 133.49 39.9495C134.61 38.3795 136.29 37.3395 138.19 37.0195C138.39 36.9895 138.59 36.9595 138.79 36.9395C138.92 36.9395 139.04 36.9795 139.12 37.0695C139.44 37.4295 139.57 37.9195 139.47 38.3895L137.03 50.4795C137.01 50.5995 136.93 50.6995 136.82 50.7595C136.76 50.7895 136.7 50.7995 136.63 50.7995L136.65 50.8095ZM135.46 49.2495C135.74 49.4695 136.05 49.6595 136.36 49.8295L138.7 38.2495C138.73 38.0795 138.71 37.9195 138.64 37.7695C138.54 37.7795 138.43 37.7995 138.33 37.8095C136.63 38.0895 135.14 39.0195 134.14 40.4195C133.14 41.8195 132.74 43.5195 133.03 45.2095C133.3 46.8195 134.16 48.2495 135.46 49.2495Z" fill="#324559"/>
<path d="M117.67 90.7399C117.56 90.7399 117.44 90.7099 117.34 90.6399C117.14 90.5099 117.03 90.2599 117.08 90.0199L125.87 44.4299C126.41 41.6399 128.02 39.2599 130.41 37.7299C132.8 36.1999 135.64 35.7299 138.4 36.3999C139.31 36.6199 139.88 37.5199 139.69 38.4399L131.73 77.8299C131.21 80.3899 129.74 82.6099 127.59 84.0799L118.01 90.6399C117.91 90.7099 117.79 90.7399 117.67 90.7399ZM127.05 44.6599L118.54 88.8199L126.92 83.0899C128.81 81.7899 130.11 79.8399 130.56 77.5899L138.52 38.1999C138.58 37.9099 138.4 37.6399 138.12 37.5699C135.68 36.9699 133.18 37.3899 131.07 38.7399C128.96 40.0899 127.53 42.1999 127.06 44.6599H127.05Z" fill="#324559"/>
<path d="M124.141 38.2L127.491 78.89C127.681 81.19 126.781 83.45 125.061 84.99L116.491 92.66L113.721 46.87C113.441 42.18 116.881 38.1 121.551 37.59L123.191 37.41C123.671 37.36 124.101 37.71 124.141 38.2Z" fill="white"/>
<path d="M125.12 50.56C125.12 50.56 125.03 50.56 124.99 50.54C124.6 50.41 124.22 50.24 123.85 50.04C121.53 48.77 120.09 46.34 120.09 43.7C120.09 41.06 121.5 38.69 123.77 37.41C123.95 37.31 124.17 37.36 124.29 37.52C124.43 37.71 124.52 37.94 124.54 38.17L125.52 50.12C125.53 50.25 125.47 50.39 125.37 50.47C125.3 50.53 125.21 50.55 125.12 50.55V50.56ZM123.75 38.36C121.98 39.55 120.9 41.55 120.9 43.7C120.9 46.04 122.18 48.2 124.24 49.33C124.38 49.41 124.52 49.48 124.67 49.54L123.75 38.35V38.36Z" fill="#324559"/>
<path d="M116.48 93.27C116.4 93.27 116.33 93.26 116.25 93.22C116.04 93.13 115.89 92.93 115.88 92.7L113.11 46.91C112.81 41.9 116.48 37.54 121.47 36.99L123.11 36.81C123.51 36.76 123.89 36.88 124.2 37.14C124.51 37.4 124.69 37.75 124.73 38.15L128.08 78.84C128.28 81.32 127.3 83.78 125.45 85.44L116.88 93.11C116.77 93.21 116.63 93.26 116.48 93.26V93.27ZM123.28 38.02C123.28 38.02 123.26 38.02 123.25 38.02L121.61 38.2C117.25 38.68 114.05 42.48 114.31 46.85L117 91.4L124.65 84.55C126.22 83.14 127.06 81.0499 126.88 78.95L123.53 38.26C123.53 38.16 123.47 38.1 123.44 38.08C123.41 38.06 123.35 38.02 123.27 38.02H123.28Z" fill="#324559"/>
<path d="M106.45 75.3701L102.4 57.4001C101.28 52.4901 104.15 47.5501 108.96 46.0901L109.68 45.8701C110.13 45.7301 110.6 46.0001 110.72 46.4501L120.47 83.6201C121.29 86.7401 120.21 90.0501 117.7 92.0901L91.2802 113.13C91.2802 113.13 96.8702 126.74 98.8502 136.09C84.5502 136.09 71.7502 136.14 56.7702 136.14C55.3202 129.48 49.3702 119.94 49.3702 119.94C46.1302 105.05 51.3002 89.5901 62.8502 79.6501L87.1202 58.7601C90.7302 55.6601 96.1202 55.8601 99.4802 59.2201L100.72 60.4601C100.97 60.7101 100.98 61.1101 100.75 61.3701L89.0702 74.6201L88.8302 75.0801L106.17 75.2201L96.7602 75.1701L88.8202 75.0901" fill="white"/>
<path d="M113.55 57.6493C113.55 57.6493 113.5 57.6493 113.48 57.6493C113.22 57.5993 112.97 57.5493 112.72 57.4693C109.55 56.5593 107.34 53.6293 107.34 50.3393C107.34 48.6493 107.89 47.0593 108.94 45.7393C108.99 45.6693 109.06 45.6293 109.14 45.5993L109.55 45.4793C109.87 45.3793 110.21 45.4193 110.51 45.5793C110.8 45.7393 111.01 46.0093 111.1 46.3393L113.93 57.1393C113.96 57.2693 113.93 57.4093 113.84 57.5093C113.76 57.5893 113.66 57.6393 113.55 57.6393V57.6493ZM109.5 46.3393C108.62 47.4993 108.15 48.8793 108.15 50.3393C108.15 53.2693 110.12 55.8893 112.95 56.6993C112.95 56.6993 112.99 56.7093 113 56.7193L110.33 46.5593C110.3 46.4493 110.23 46.3493 110.12 46.2893C110.02 46.2293 109.9 46.2193 109.79 46.2493L109.5 46.3393Z" fill="#324559"/>
<path d="M94.3601 69.0498C94.3601 69.0498 94.3301 69.0498 94.3101 69.0498C94.1801 69.0298 94.0701 68.9598 94.0001 68.8398C93.4201 67.7698 93.1201 66.5598 93.1201 65.3398C93.1201 62.9898 94.2001 60.8298 96.0801 59.4098C96.8401 58.8398 97.7001 58.4198 98.6201 58.1698C98.7401 58.1398 98.8701 58.1698 98.9701 58.2398C99.2401 58.4598 99.5101 58.6998 99.7601 58.9498L101 60.1898C101.4 60.5898 101.42 61.2298 101.05 61.6498L94.6501 68.9098C94.5701 68.9998 94.4601 69.0498 94.3501 69.0498H94.3601ZM96.5701 60.0498C94.8901 61.3098 93.9301 63.2398 93.9301 65.3398C93.9301 66.2298 94.1101 67.1198 94.4601 67.9398L100.46 61.1298C100.55 61.0298 100.55 60.8598 100.45 60.7698L99.2101 59.5298C99.0301 59.3498 98.8401 59.1698 98.6401 59.0098C97.8901 59.2398 97.2001 59.5898 96.5701 60.0598V60.0498Z" fill="#324559"/>
<path d="M56.7802 136.75C56.5702 136.75 56.3802 136.64 56.2702 136.46C56.2402 136.41 52.9902 131.05 51.0402 125.89C45.1602 110.33 48.7002 92.8798 60.0602 81.4498C60.8302 80.6698 61.6402 79.9198 62.4702 79.2098L86.7402 58.3198C90.5602 55.0298 96.3502 55.2498 99.9202 58.8098L101.16 60.0498C101.63 60.5198 101.65 61.2798 101.21 61.7798L89.5302 75.0298C89.3102 75.2798 88.9302 75.2998 88.6802 75.0798C88.4302 74.8598 88.4102 74.4798 88.6302 74.2298L100.31 60.9798L99.0702 59.6498C95.9502 56.5298 90.8702 56.3298 87.5202 59.2198L63.2502 80.1098C62.4402 80.7998 61.6602 81.5398 60.9102 82.2898C49.8802 93.3898 46.4502 110.34 52.1602 125.46C53.8102 129.83 56.4302 134.37 57.1202 135.54L98.0302 135.49L90.7202 113.32C90.6402 113.08 90.7202 112.82 90.9202 112.66L117.34 91.6198C119.65 89.7398 120.66 86.6598 119.9 83.7698L110.15 46.5998C110.13 46.5198 110.07 46.4798 110.04 46.4598C110.01 46.4398 109.94 46.4198 109.86 46.4398L109.14 46.6598C104.64 48.0198 101.94 52.6798 102.99 57.2598L107.14 80.7998C107.17 80.9698 107.13 81.1398 107.02 81.2798C106.91 81.4098 106.75 81.4998 106.58 81.4998C106.36 81.5098 84.1102 82.7098 73.0402 96.0698C67.8302 102.36 65.8602 110.4 67.2002 119.95C67.2502 120.28 67.0202 120.58 66.6902 120.63C66.3602 120.68 66.0602 120.45 66.0102 120.12C64.6202 110.22 66.6702 101.87 72.1102 95.3098C82.4102 82.8798 101.95 80.6798 105.84 80.3598L101.81 57.5098C100.63 52.3498 103.69 47.0698 108.79 45.5198L109.51 45.2998C109.88 45.1898 110.28 45.2298 110.62 45.4198C110.96 45.6098 111.2 45.9298 111.3 46.2998L121.05 83.4698C121.93 86.8098 120.76 90.3798 118.08 92.5598L91.9802 113.34L99.4202 135.9C99.4802 136.08 99.4502 136.28 99.3402 136.44C99.2302 136.6 99.0502 136.69 98.8502 136.69L56.7702 136.74L56.7802 136.75Z" fill="#324559"/>
<path d="M105.32 75.8397L96.7801 75.7997L84.6201 75.6697C84.2901 75.6697 84.0201 75.3997 84.0301 75.0597C84.0301 74.7297 84.3001 74.4697 84.6301 74.4697L105.33 74.6397C105.66 74.6397 105.93 74.9097 105.93 75.2397C105.93 75.5697 105.66 75.8397 105.33 75.8397H105.32Z" fill="#324559"/>
<path d="M94.5005 46C103.613 46 111 38.6127 111 29.5C111 20.3873 103.613 13 94.5005 13C85.3878 13 78.0005 20.3873 78.0005 29.5C78.0005 38.6127 85.3878 46 94.5005 46Z" fill="#FF7C10"/>
<path d="M57.5605 24.12C62.8403 24.12 67.1205 19.8398 67.1205 14.56C67.1205 9.28016 62.8403 5 57.5605 5C52.2806 5 48.0005 9.28016 48.0005 14.56C48.0005 19.8398 52.2806 24.12 57.5605 24.12Z" fill="#A1AEB7"/>
<path d="M55.5005 91C69.0315 91 80.0005 80.031 80.0005 66.5C80.0005 52.969 69.0315 42 55.5005 42C41.9695 42 31.0005 52.969 31.0005 66.5C31.0005 80.031 41.9695 91 55.5005 91Z" fill="#2066F5"/>
</svg>
