<svg width="160" height="160" viewBox="0 0 160 160" fill="none" xmlns="http://www.w3.org/2000/svg">
<path d="M80 145C115.899 145 145 115.899 145 80C145 44.1015 115.899 15 80 15C44.1015 15 15 44.1015 15 80C15 115.899 44.1015 145 80 145Z" fill="#E4EEF4"/>
<path d="M80 145.5C43.88 145.5 14.5 116.12 14.5 80C14.5 43.88 43.88 14.5 80 14.5C116.12 14.5 145.5 43.88 145.5 80C145.5 116.12 116.12 145.5 80 145.5ZM80 15.5C44.43 15.5 15.5 44.43 15.5 80C15.5 115.57 44.43 144.5 80 144.5C115.57 144.5 144.5 115.57 144.5 80C144.5 44.43 115.57 15.5 80 15.5Z" fill="#99BDD1"/>
<path d="M153.68 79.5H6.33008V80.5H153.68V79.5Z" fill="#99BDD1"/>
<path d="M153.68 52.4004H6.33008V53.4004H153.68V52.4004Z" fill="#99BDD1"/>
<path d="M153.68 106.601H6.33008V107.601H153.68V106.601Z" fill="#99BDD1"/>
<path d="M4.42029 119.65C3.69029 119.65 2.96029 119.4 2.36029 118.9C0.970291 117.72 0.970292 115.51 2.20029 114.17L38.6403 74.4702C39.6703 73.3502 41.3603 73.0903 42.7003 73.9403C43.6603 74.5503 44.1703 75.6603 44.1703 76.8003V91.1002L82.1803 44.1902C83.2303 43.0502 84.9703 42.8002 86.3203 43.7002C87.2303 44.3102 87.7203 45.3702 87.7203 46.4702L87.2703 99.0602L109.62 71.8102C110.73 70.5602 112.66 70.3403 114.06 71.4803C114.82 72.1003 115.2 73.0703 115.2 74.0503V109.86L153.23 65.4403C154.42 64.1403 156.44 64.0602 157.73 65.2502C159.03 66.4402 159.11 68.4602 157.92 69.7502L114.36 121.2C113.37 122.27 112.22 122.51 111.12 122.14C109.7 121.65 108.83 120.21 108.83 118.7V83.3402L86.4803 110.59C85.4603 111.81 83.7003 112.03 82.3303 111.14C81.4103 110.53 80.9003 109.46 80.9003 108.35L81.3503 55.5502L43.3403 102.46C42.2203 103.69 40.2903 103.88 38.9103 102.73C38.1703 102.11 37.8003 101.15 37.8003 100.18V84.8202L6.77029 118.62C6.14029 119.3 5.28029 119.65 4.42029 119.65Z" fill="white"/>
<path d="M112.09 122.91C111.71 122.91 111.32 122.84 110.93 122.71C109.32 122.16 108.23 120.55 108.23 118.7V85.0099L86.9502 110.96C85.7502 112.4 83.6302 112.69 82.0102 111.63C80.9502 110.93 80.3102 109.7 80.3102 108.34L80.7402 57.2599L43.8102 102.84C42.4102 104.37 40.1102 104.51 38.5302 103.19C37.6902 102.49 37.2102 101.39 37.2102 100.18V86.3599L7.21019 119.03C6.49019 119.81 5.48019 120.26 4.42019 120.26C3.52019 120.26 2.66019 119.94 1.98019 119.36C1.23019 118.72 0.770187 117.8 0.710187 116.77C0.640187 115.67 1.03019 114.57 1.77019 113.77L38.2102 74.0699C39.4502 72.7199 41.4802 72.4499 43.0302 73.4399C44.1102 74.1199 44.7802 75.4099 44.7802 76.8099V89.4199L81.7302 43.8299C83.0302 42.4099 85.0902 42.1699 86.6702 43.2199C87.7102 43.9199 88.3302 45.1399 88.3302 46.4799L87.9002 97.3699L109.17 71.4399C110.54 69.8899 112.86 69.7199 114.45 71.0199C115.31 71.7299 115.8 72.8299 115.8 74.0599V108.25L152.77 65.0599C153.47 64.2999 154.4 63.8699 155.41 63.8199C156.43 63.7799 157.39 64.1299 158.13 64.8099C158.88 65.4899 159.31 66.4299 159.35 67.4399C159.39 68.4499 159.04 69.4199 158.36 70.1599L114.82 121.59C114.02 122.46 113.08 122.91 112.09 122.91ZM108.83 82.7399C108.9 82.7399 108.97 82.7499 109.03 82.7799C109.27 82.8699 109.43 83.0899 109.43 83.3399V118.7C109.43 120.01 110.21 121.19 111.32 121.57C112.26 121.89 113.16 121.63 113.93 120.8L157.47 69.3699C157.95 68.8399 158.19 68.1799 158.16 67.4899C158.13 66.7999 157.83 66.1599 157.33 65.6999C156.82 65.2299 156.17 64.9999 155.47 65.0199C154.78 65.0499 154.14 65.3499 153.68 65.8499L115.67 110.26C115.51 110.45 115.24 110.52 115.01 110.43C114.77 110.34 114.62 110.12 114.62 109.87V74.0599C114.62 73.2099 114.28 72.4199 113.7 71.9499C112.6 71.0499 111.02 71.1699 110.09 72.2099L87.7602 99.4399C87.6002 99.6399 87.3302 99.7099 87.0902 99.6199C86.8502 99.5299 86.6902 99.3099 86.6902 99.0499L87.1402 46.4599C87.1402 45.5199 86.7202 44.6699 86.0102 44.1999C84.9302 43.4799 83.5202 43.6399 82.6502 44.5899L44.6602 91.4699C44.5002 91.6699 44.2302 91.7399 43.9902 91.6599C43.7502 91.5799 43.5902 91.3499 43.5902 91.0899V76.7899C43.5902 75.8099 43.1302 74.8999 42.4002 74.4399C41.3402 73.7699 39.9502 73.9499 39.1002 74.8699L2.65019 114.58C2.13019 115.15 1.86019 115.92 1.91019 116.7C1.95019 117.4 2.26019 118.02 2.76019 118.45C3.78019 119.31 5.43019 119.21 6.34019 118.22L37.3802 84.4099C37.5502 84.2299 37.8102 84.1699 38.0402 84.2599C38.2702 84.3499 38.4202 84.5699 38.4202 84.8199V100.18C38.4202 101.03 38.7502 101.79 39.3102 102.27C40.3902 103.17 41.9702 103.08 42.9102 102.06L80.9002 55.1799C81.0602 54.9799 81.3302 54.9099 81.5702 54.9899C81.8102 55.0799 81.9702 55.2999 81.9702 55.5599L81.5202 108.36C81.5202 109.3 81.9602 110.17 82.6802 110.64C83.8102 111.38 85.2202 111.2 86.0302 110.21L108.37 82.9599C108.49 82.8199 108.66 82.7399 108.83 82.7399Z" fill="#324559"/>
<path d="M63.7 118.4C69.6094 118.4 74.4 113.609 74.4 107.7C74.4 101.791 69.6094 97 63.7 97C57.7906 97 53 101.791 53 107.7C53 113.609 57.7906 118.4 63.7 118.4Z" fill="#A1AEB7"/>
<path d="M117 60C128.046 60 137 51.0457 137 40C137 28.9543 128.046 20 117 20C105.954 20 97 28.9543 97 40C97 51.0457 105.954 60 117 60Z" fill="#2066F5"/>
<path d="M38 65C46.2843 65 53 58.2843 53 50C53 41.7157 46.2843 35 38 35C29.7157 35 23 41.7157 23 50C23 58.2843 29.7157 65 38 65Z" fill="#FF7C10"/>
</svg>
