<svg width="160" height="160" viewBox="0 0 160 160" fill="none" xmlns="http://www.w3.org/2000/svg">
<g clip-path="url(#clip0_337_8964)">
<path d="M160 0H0V160H160V0Z" fill="#E4EEF4"/>
<path d="M154 6H6V154H154V6Z" fill="#E4EEF4"/>
<path d="M160 0H0V160H160V0Z" fill="#F9FCFF"/>
<path d="M80 145C115.899 145 145 115.899 145 80C145 44.1015 115.899 15 80 15C44.1015 15 15 44.1015 15 80C15 115.899 44.1015 145 80 145Z" fill="#E4EEF4" stroke="#99BDD1" stroke-miterlimit="10"/>
<path d="M125.453 142.309L135.654 150.001L136.614 137.253L125.453 142.309Z" fill="#E2E9ED" stroke="#324559" stroke-width="1.2" stroke-linecap="round" stroke-linejoin="round"/>
<path opacity="0.16" d="M128.814 145.297L136.644 141.75L136.987 137.302C137.006 137.017 136.712 136.812 136.448 136.929L125.287 141.976C125.032 142.093 124.993 142.436 125.218 142.603L128.805 145.297H128.814Z" fill="#324559"/>
<path d="M33.3365 142.309L23.1263 150.001L22.1758 137.253L33.3365 142.309Z" fill="#E2E9ED" stroke="#324559" stroke-width="1.2" stroke-linecap="round" stroke-linejoin="round"/>
<path opacity="0.16" d="M29.9758 145.297L22.1466 141.75L21.8037 137.302C21.7841 137.017 22.078 136.812 22.3426 136.929L33.5033 141.976C33.7581 142.093 33.7973 142.436 33.5719 142.603L29.9856 145.297H29.9758Z" fill="#324559"/>
<path d="M32.0921 142.269L22.7931 138.066C21.0979 137.301 20.3532 135.312 21.1175 133.617L71.4731 20.6868C73.1095 17.0711 77.078 15.0035 81.1248 15.9344C83.7509 16.5419 85.887 18.4527 86.9943 20.9122L137.262 133.627C138.026 135.322 137.271 137.311 135.586 138.075L126.287 142.279C124.592 143.043 122.603 142.289 121.839 140.603L79.1847 44.7328L36.5309 140.603C35.7666 142.299 33.7774 143.043 32.0823 142.279L32.0921 142.269Z" fill="white" stroke="#324559" stroke-width="1.2" stroke-linecap="round" stroke-linejoin="round"/>
<path d="M80 53C93.8071 53 105 41.8071 105 28C105 14.1929 93.8071 3 80 3C66.1929 3 55 14.1929 55 28C55 41.8071 66.1929 53 80 53Z" fill="#2066F5"/>
<path d="M75.4018 111.167C49.6606 111.167 25.7811 97.2434 13.082 74.8239C10.8185 70.8261 12.2197 65.7405 16.2274 63.4672C20.2253 61.2037 25.3108 62.6049 27.5841 66.6126C37.3338 83.8191 55.6574 94.5095 75.4116 94.5095C105.69 94.5095 130.333 69.8756 130.333 39.5877C130.333 38.7744 130.314 37.971 130.284 37.1675C130.088 32.5719 133.655 28.6818 138.251 28.4858C142.837 28.2702 146.736 31.8566 146.932 36.4522C146.981 37.4908 147.001 38.5491 147.001 39.5877C147.001 79.057 114.891 111.167 75.4214 111.167H75.4018Z" fill="white" stroke="#324559" stroke-width="1.2" stroke-linecap="round" stroke-linejoin="round"/>
<path d="M138.596 36.8154C138.635 37.7365 138.654 38.6576 138.654 39.5885C138.654 74.5209 110.336 102.839 75.4038 102.839C51.7888 102.839 31.1919 89.8951 20.335 70.719" stroke="#324559" stroke-width="1.2" stroke-linecap="round" stroke-linejoin="round"/>
<path d="M109.5 112C120.27 112 129 103.27 129 92.5C129 81.7304 120.27 73 109.5 73C98.7304 73 90 81.7304 90 92.5C90 103.27 98.7304 112 109.5 112Z" fill="#FF7C10"/>
<path d="M47.5 110C55.5081 110 62 103.508 62 95.5C62 87.4919 55.5081 81 47.5 81C39.4919 81 33 87.4919 33 95.5C33 103.508 39.4919 110 47.5 110Z" fill="#A1AEB7"/>
</g>
<defs>
<clipPath id="clip0_337_8964">
<rect width="160" height="160" fill="white"/>
</clipPath>
</defs>
</svg>
