<svg width="80" height="80" viewBox="0 0 80 80" fill="none" xmlns="http://www.w3.org/2000/svg">
<path d="M40.5418 68.536C56.3244 68.536 69.1187 55.2331 69.1187 38.8231C69.1187 22.4131 56.3244 9.11011 40.5418 9.11011C24.7592 9.11011 11.9648 22.4131 11.9648 38.8231C11.9648 55.2331 24.7592 68.536 40.5418 68.536Z" fill="#EFEFF4"/>
<path d="M7.91779 80.0002C12.2907 80.0002 15.8356 76.3144 15.8356 71.7677C15.8356 67.221 12.2907 63.5352 7.91779 63.5352C3.54491 63.5352 0 67.221 0 71.7677C0 76.3144 3.54491 80.0002 7.91779 80.0002Z" fill="#0161FF"/>
<path d="M10.47 14.0549C12.4047 14.0549 13.9731 12.4241 13.9731 10.4125C13.9731 8.40079 12.4047 6.77002 10.47 6.77002C8.53522 6.77002 6.9668 8.40079 6.9668 10.4125C6.9668 12.4241 8.53522 14.0549 10.47 14.0549Z" fill="#B4BDC5"/>
<path d="M46.7572 6.56322C47.32 6.56322 47.7762 6.08889 47.7762 5.50378C47.7762 4.91866 47.32 4.44434 46.7572 4.44434C46.1945 4.44434 45.7383 4.91866 45.7383 5.50378C45.7383 6.08889 46.1945 6.56322 46.7572 6.56322Z" fill="#D5DAE1"/>
<path d="M77.0812 2.85782C77.8401 2.85782 78.4554 2.21813 78.4554 1.42903C78.4554 0.639935 77.8401 0.000244141 77.0812 0.000244141C76.3223 0.000244141 75.707 0.639935 75.707 1.42903C75.707 2.21813 76.3223 2.85782 77.0812 2.85782Z" fill="#D5DAE1"/>
<path d="M70.4695 74.9995C72.1862 74.9995 73.5778 73.5525 73.5778 71.7677C73.5778 69.9828 72.1862 68.5359 70.4695 68.5359C68.7529 68.5359 67.3613 69.9828 67.3613 71.7677C67.3613 73.5525 68.7529 74.9995 70.4695 74.9995Z" fill="#D5DAE1"/>
<path d="M32.9766 16.0348C32.9766 20.3407 36.3512 23.878 40.539 23.878C44.7268 23.878 48.1014 20.3407 48.1014 16.0348C48.1014 11.729 44.7268 8.19165 40.539 8.19165C36.3512 8.19165 32.9766 11.729 32.9766 16.0348Z" fill="white" stroke="#16181C"/>
<path d="M40.5401 8.98552C44.2794 8.98552 47.3221 12.1493 47.3221 16.0371C47.3221 19.925 44.2794 23.0887 40.5401 23.0887C36.8009 23.0887 33.7581 19.925 33.7581 16.0371C33.7581 12.1493 36.8009 8.98552 40.5401 8.98552ZM40.5401 8.40234C36.4854 8.40234 33.1973 11.8212 33.1973 16.0371C33.1973 20.253 36.4854 23.6719 40.5401 23.6719C44.5949 23.6719 47.883 20.253 47.883 16.0371C47.883 11.8212 44.5949 8.40234 40.5401 8.40234Z" fill="black"/>
<path d="M40.5407 42.1829C50.0222 42.1829 57.7084 35.922 57.7084 28.1987C57.7084 20.4755 50.0222 14.2146 40.5407 14.2146C31.0593 14.2146 23.373 20.4755 23.373 28.1987C23.373 35.922 31.0593 42.1829 40.5407 42.1829Z" fill="#475467"/>
<path d="M65.3052 54.4178C65.3052 51.6307 64.4615 48.9894 62.9495 46.6275C60.9303 43.4662 59.5094 39.9331 58.9719 36.1813L57.6094 26.6633H23.4751L22.1126 36.1813C21.5751 39.9355 20.1542 43.4686 18.135 46.6275C16.6253 48.9918 15.7793 51.6331 15.7793 54.4178H65.3052Z" fill="#475467"/>
<path d="M64.5209 54.3451C64.5209 57.8639 61.9654 61.1529 57.6067 63.5909C53.2643 66.0197 47.2316 67.5377 40.5407 67.5377C33.8499 67.5377 27.8171 66.0197 23.4747 63.5909C19.1161 61.1529 16.5605 57.8639 16.5605 54.3451C16.5605 50.8264 19.1161 47.5374 23.4747 45.0994C27.8171 42.6706 33.8499 41.1526 40.5407 41.1526C47.2316 41.1526 53.2643 42.6706 57.6067 45.0994C61.9654 47.5374 64.5209 50.8264 64.5209 54.3451Z" fill="white" stroke="#16181C"/>
<path d="M40.5399 40.944C47.0625 40.944 53.1855 42.3728 57.78 44.9704C62.2671 47.5048 64.7396 50.8338 64.7396 54.3474C64.7396 57.8611 62.2671 61.1901 57.78 63.7244C53.1831 66.3196 47.0602 67.7508 40.5399 67.7508C34.0197 67.7508 27.8944 66.322 23.2998 63.7244C18.8127 61.1901 16.3402 57.8611 16.3402 54.3474C16.3402 50.8338 18.8127 47.5048 23.2998 44.9704C27.8967 42.3752 34.0197 40.944 40.5399 40.944ZM40.5399 40.3608C26.8637 40.3608 15.7793 46.6227 15.7793 54.345C15.7793 62.0672 26.8661 68.3291 40.5399 68.3291C54.2137 68.3291 65.3005 62.0672 65.3005 54.345C65.3005 46.6227 54.2137 40.3608 40.5399 40.3608Z" fill="black"/>
<g style="mix-blend-mode:multiply">
<path d="M65.3005 54.3445C65.3005 46.6198 54.2137 40.3604 40.5399 40.3604C26.8661 40.3604 15.7793 46.6222 15.7793 54.3445C15.7793 58.3053 18.6982 61.8772 23.3839 64.4213C23.613 58.2737 31.2036 53.3361 40.5422 53.3361C49.8809 53.3361 57.4692 58.2737 57.7006 64.4213C62.3839 61.8772 65.3052 58.3028 65.3052 54.3445H65.3005Z" fill="#D5DAE1"/>
</g>
<path d="M40.541 55.8979C45.6356 55.8979 49.7675 51.6043 49.7675 46.3046C49.7675 44.368 49.2136 42.565 48.2624 41.056C45.832 40.6065 43.2379 40.3586 40.541 40.3586C37.8441 40.3586 35.25 40.6065 32.8195 41.056C31.8683 42.565 31.3145 44.3656 31.3145 46.3046C31.3145 51.6018 35.444 55.8979 40.541 55.8979Z" fill="#1E1E1E"/>
<path d="M49.4742 46.7468C46.7165 45.7602 43.6364 45.2402 40.5398 45.2402C37.4433 45.2402 34.3631 45.7602 31.6054 46.7468C31.5984 46.5937 31.5938 46.4479 31.5938 46.3046C31.5938 44.5331 32.0752 42.8128 32.9866 41.3208C35.4311 40.8761 37.9714 40.6501 40.5375 40.6501C43.1035 40.6501 45.6438 40.8761 48.0884 41.3208C48.9998 42.8103 49.4812 44.5307 49.4812 46.3046C49.4812 46.4479 49.4765 46.5937 49.4695 46.7468H49.4742Z" fill="black"/>
<path d="M40.5402 40.9443C43.0478 40.9443 45.5297 41.1605 47.9205 41.5882C48.7618 43.0073 49.2058 44.6329 49.2058 46.3071C49.2058 46.3192 49.2058 46.3338 49.2058 46.3484C46.5136 45.4323 43.5339 44.9512 40.5425 44.9512C37.5512 44.9512 34.5715 45.4323 31.8792 46.3484C31.8792 46.3338 31.8792 46.3217 31.8792 46.3071C31.8792 44.6329 32.3233 43.0073 33.1646 41.5882C35.5554 41.1605 38.0373 40.9443 40.5449 40.9443M40.5449 40.3611C37.848 40.3611 35.2539 40.6089 32.8234 41.0585C31.8722 42.5674 31.3184 44.368 31.3184 46.3071C31.3184 46.5914 31.3324 46.8732 31.3558 47.1503C34.0994 46.12 37.224 45.5319 40.5425 45.5319C43.8611 45.5319 46.988 46.1175 49.7293 47.1503C49.7527 46.8708 49.7667 46.5914 49.7667 46.3071C49.7667 44.3704 49.2128 42.5674 48.2617 41.0585C45.8312 40.6089 43.2371 40.3611 40.5402 40.3611H40.5449Z" fill="black"/>
<path d="M21.916 36.8835C27.1322 34.2495 33.573 32.3323 40.542 32.3323C47.5109 32.3323 53.8769 34.23 59.0768 36.8373" stroke="#D5DAE1" stroke-width="0.571429" stroke-miterlimit="10" stroke-linecap="round"/>
<path d="M67.2322 26.6667C70.4218 26.6667 73.0075 23.9804 73.0075 20.6667C73.0075 17.353 70.4218 14.6667 67.2322 14.6667C64.0427 14.6667 61.457 17.353 61.457 20.6667C61.457 23.9804 64.0427 26.6667 67.2322 26.6667Z" fill="#FF7400"/>
</svg>
