<svg width="33" height="42" viewBox="0 0 33 42" fill="none" xmlns="http://www.w3.org/2000/svg">
<g clip-path="url(#clip0_4088_267)">
<path d="M17.4999 21C21.4865 21 24.7221 18.0966 24.7221 14.5C24.7221 10.9033 21.4865 8 17.4999 8V21Z" fill="#D4E6FF" stroke="#272B32" stroke-width="1.45263" stroke-linecap="round" stroke-linejoin="round"/>
<path d="M17.4999 21C17.4999 24.9867 20.4032 28.2222 23.9999 28.2222C27.5965 28.2222 30.4999 24.9867 30.4999 21H17.4999Z" fill="#D4E6FF" stroke="#272B32" stroke-width="1.45263" stroke-linecap="round" stroke-linejoin="round"/>
<path d="M17.501 21C13.5144 21 10.2788 23.9033 10.2788 27.5C10.2788 31.0966 13.5144 34 17.501 34V21Z" fill="white" stroke="#272B32" stroke-width="1.45263" stroke-linecap="round" stroke-linejoin="round"/>
<path d="M17.4997 21C17.4997 17.0134 14.5964 13.7778 10.9997 13.7778C7.40308 13.7778 4.49976 17.0134 4.49976 21H17.4997Z" fill="white" stroke="#272B32" stroke-width="1.45263" stroke-linecap="round" stroke-linejoin="round"/>
</g>
<defs>
<clipPath id="clip0_4088_267">
<rect width="32" height="42" fill="white" transform="translate(0.5)"/>
</clipPath>
</defs>
</svg>
