<svg width="23" height="26" viewBox="0 0 23 26" fill="none" xmlns="http://www.w3.org/2000/svg">
<path d="M3.72551 7.42788C3.72551 5.7231 4.40273 4.08815 5.60819 2.88268C6.81365 1.67722 8.44861 1 10.1534 1C11.8582 1 13.4931 1.67722 14.6986 2.88268C15.9041 4.08815 16.5813 5.7231 16.5813 7.42788C16.5813 7.54965 16.5329 7.66644 16.4468 7.75254C16.3607 7.83865 16.2439 7.88702 16.1221 7.88702C16.0004 7.88702 15.8836 7.83865 15.7975 7.75254C15.7114 7.66644 15.663 7.54965 15.663 7.42788C15.663 5.96664 15.0825 4.56525 14.0493 3.532C13.016 2.49875 11.6146 1.91827 10.1534 1.91827C8.69215 1.91827 7.29076 2.49875 6.25751 3.532C5.22425 4.56525 4.64378 5.96664 4.64378 7.42788C4.64378 7.54965 4.5954 7.66644 4.5093 7.75254C4.4232 7.83865 4.30641 7.88702 4.18464 7.88702C4.06287 7.88702 3.94609 7.83865 3.85999 7.75254C3.77388 7.66644 3.72551 7.54965 3.72551 7.42788ZM19.3361 12.9375C18.6543 12.9367 17.9966 13.19 17.4915 13.648C17.4524 13.1356 17.2706 12.6443 16.9669 12.2298C16.6631 11.8152 16.2495 11.4939 15.7727 11.3021C15.2959 11.1103 14.7749 11.0557 14.2687 11.1445C13.7625 11.2333 13.2913 11.462 12.9082 11.8046V7.42788C12.9082 6.69726 12.618 5.99657 12.1013 5.47994C11.5847 4.96331 10.884 4.67308 10.1534 4.67308C9.42277 4.67308 8.72208 4.96331 8.20545 5.47994C7.68882 5.99657 7.39859 6.69726 7.39859 7.42788V18.2175L6.10612 16.1446C5.73112 15.5303 5.13061 15.0871 4.43306 14.9099C3.73551 14.7327 2.99631 14.8356 2.3736 15.1964C1.7509 15.5573 1.29413 16.1475 1.10102 16.8408C0.907913 17.5341 0.993798 18.2754 1.3403 18.9062L4.70576 24.6454C4.77135 24.7406 4.87041 24.8075 4.98316 24.8328C5.09592 24.8582 5.21408 24.84 5.31406 24.7821C5.41404 24.7241 5.48849 24.6306 5.52254 24.5201C5.55659 24.4097 5.54775 24.2905 5.49777 24.1863L2.13346 18.4471C1.88992 18.0252 1.82397 17.5238 1.95011 17.0532C2.07625 16.5827 2.38416 16.1815 2.80609 15.9379C3.22802 15.6944 3.72942 15.6285 4.19998 15.7546C4.67054 15.8807 5.07172 16.1886 5.31526 16.6106L5.3233 16.6244L7.46746 20.0679C7.52012 20.1528 7.59908 20.2183 7.69234 20.2543C7.7856 20.2903 7.88807 20.2949 7.98417 20.2674C8.08028 20.2398 8.16477 20.1817 8.22482 20.1018C8.28486 20.0218 8.31718 19.9245 8.31685 19.8245V7.42788C8.31685 6.9408 8.51035 6.47367 8.85476 6.12926C9.19918 5.78484 9.66631 5.59135 10.1534 5.59135C10.6405 5.59135 11.1076 5.78484 11.452 6.12926C11.7964 6.47367 11.9899 6.9408 11.9899 7.42788V15.2332C11.9899 15.3549 12.0383 15.4717 12.1244 15.5578C12.2105 15.6439 12.3273 15.6923 12.4491 15.6923C12.5708 15.6923 12.6876 15.6439 12.7737 15.5578C12.8598 15.4717 12.9082 15.3549 12.9082 15.2332V13.8558C12.9082 13.3687 13.1017 12.9016 13.4461 12.5571C13.7905 12.2127 14.2577 12.0192 14.7447 12.0192C15.2318 12.0192 15.6989 12.2127 16.0434 12.5571C16.3878 12.9016 16.5813 13.3687 16.5813 13.8558V16.1514C16.5813 16.2732 16.6297 16.39 16.7158 16.4761C16.8019 16.5622 16.9186 16.6106 17.0404 16.6106C17.1622 16.6106 17.279 16.5622 17.3651 16.4761C17.4512 16.39 17.4995 16.2732 17.4995 16.1514V15.6923C17.4995 15.2052 17.693 14.7381 18.0375 14.3937C18.3819 14.0493 18.849 13.8558 19.3361 13.8558C19.8232 13.8558 20.2903 14.0493 20.6347 14.3937C20.9791 14.7381 21.1726 15.2052 21.1726 15.6923V19.8245C21.1726 22.4255 20.3106 24.1932 20.3026 24.2104C20.2755 24.2644 20.2594 24.3231 20.2551 24.3833C20.2508 24.4435 20.2584 24.5039 20.2775 24.5612C20.2966 24.6184 20.3268 24.6714 20.3663 24.7169C20.4059 24.7625 20.454 24.7998 20.508 24.8268C20.5719 24.8584 20.6422 24.8749 20.7135 24.875C20.7988 24.8751 20.8824 24.8514 20.955 24.8066C21.0276 24.7617 21.0862 24.6976 21.1244 24.6213C21.1634 24.5421 22.0909 22.6551 22.0909 19.8245V15.6923C22.0909 14.9617 21.8007 14.261 21.284 13.7444C20.7674 13.2277 20.0667 12.9375 19.3361 12.9375Z" fill="white" stroke="white" stroke-width="0.55"/>
</svg>
