<svg width="32" height="32" viewBox="0 0 32 32" fill="none" xmlns="http://www.w3.org/2000/svg">
<path d="M23.9125 24.1912C21.6981 25.8577 18.9563 26.6685 16.1916 26.4743C13.427 26.2801 10.8254 25.094 8.86572 23.1343C6.906 21.1745 5.71992 18.573 5.52572 15.8083C5.33152 13.0437 6.14226 10.3019 7.80878 8.08745C9.092 6.39054 10.8163 5.07831 12.7938 4.2937C12.3411 6.34581 12.4127 8.47887 13.0018 10.496C13.5909 12.5132 14.6786 14.3495 16.1645 15.8354C17.6505 17.3214 19.4868 18.4091 21.5039 18.9982C23.5211 19.5873 25.6542 19.6589 27.7063 19.2062C26.9217 21.1837 25.6094 22.908 23.9125 24.1912Z" fill="current" stroke="#292D32" stroke-width="1.5" stroke-linecap="round" stroke-linejoin="round"/>
</svg>
