<svg width="30" height="30" viewBox="0 0 30 30" fill="none" xmlns="http://www.w3.org/2000/svg">
<g clip-path="url(#clip0_13_2)">
<g filter="url(#filter0_dddf_13_2)">
<circle cx="15" cy="15" r="7" fill="white"/>
</g>
<rect x="8" y="16" width="13" height="5" fill="#8FEDFF"/>
<path fill-rule="evenodd" clip-rule="evenodd" d="M9.22767 7.64011C9.49547 7.8579 9.53601 8.25154 9.31823 8.51934C8.15261 9.95261 7.78066 11.8842 8.22095 13.6396C8.30492 13.9744 8.10158 14.3139 7.76678 14.3979C7.43197 14.4819 7.09248 14.2785 7.0085 13.9437C6.47844 11.8304 6.9189 9.48846 8.34844 7.73066C8.56623 7.46286 8.95988 7.42232 9.22767 7.64011ZM19.7723 7.64011C20.0401 7.42232 20.4338 7.46286 20.6516 7.73066C22.0811 9.48846 22.5216 11.8304 21.9915 13.9437C21.9075 14.2785 21.568 14.4819 21.2332 14.3979C20.8984 14.3139 20.6951 13.9744 20.7791 13.6396C21.2193 11.8842 20.8474 9.95261 19.6818 8.51934C19.464 8.25154 19.5045 7.8579 19.7723 7.64011ZM11.3515 9.76413C11.6198 9.98125 11.6613 10.3748 11.4442 10.6431C10.9132 11.2994 10.754 12.1471 10.9653 12.9182C11.0565 13.2511 10.8606 13.5949 10.5277 13.6861C10.1948 13.7773 9.85099 13.5814 9.75976 13.2485C9.44456 12.0983 9.68253 10.8331 10.4725 9.85687C10.6896 9.58853 11.0831 9.54701 11.3515 9.76413ZM17.6485 9.76413C17.9169 9.54701 18.3104 9.58853 18.5275 9.85687C19.3175 10.8331 19.5554 12.0983 19.2402 13.2485C19.149 13.5814 18.8052 13.7773 18.4723 13.6861C18.1394 13.5949 17.9435 13.2511 18.0347 12.9182C18.246 12.1471 18.0868 11.2994 17.5558 10.6431C17.3387 10.3748 17.3802 9.98125 17.6485 9.76413ZM14.5 11.75C14.8452 11.75 15.125 12.0298 15.125 12.375V15.2917H18.633C19.0087 15.2917 19.3278 15.2916 19.5897 15.313C19.8646 15.3355 20.1309 15.3846 20.3852 15.5142C20.7694 15.7099 21.0817 16.0223 21.2775 16.4064C21.4071 16.6607 21.4562 16.9271 21.4786 17.202C21.5 17.4638 21.5 17.783 21.5 18.1586V18.633C21.5 19.0087 21.5 19.3278 21.4786 19.5897C21.4562 19.8646 21.4071 20.1309 21.2775 20.3852C21.0817 20.7694 20.7694 21.0817 20.3852 21.2775C20.1309 21.4071 19.8646 21.4562 19.5897 21.4786C19.3278 21.5 19.0087 21.5 18.633 21.5H10.367C9.99131 21.5 9.67218 21.5 9.41031 21.4786C9.13543 21.4562 8.86908 21.4071 8.61477 21.2775C8.23061 21.0817 7.91827 20.7694 7.72253 20.3852C7.59295 20.1309 7.54384 19.8646 7.52138 19.5897C7.49998 19.3278 7.49999 19.0087 7.5 18.633V18.1587C7.49999 17.783 7.49998 17.4638 7.52138 17.202C7.54384 16.9271 7.59295 16.6607 7.72253 16.4064C7.91827 16.0223 8.23061 15.7099 8.61477 15.5142C8.86908 15.3846 9.13543 15.3355 9.41031 15.313C9.67218 15.2916 9.99133 15.2917 10.367 15.2917H13.875V12.375C13.875 12.0298 14.1548 11.75 14.5 11.75ZM10.3917 16.5417C9.98465 16.5417 9.71698 16.5422 9.5121 16.5589C9.31452 16.575 9.23099 16.6031 9.18226 16.628C9.0333 16.7039 8.91219 16.825 8.83629 16.9739C8.81146 17.0227 8.78337 17.1062 8.76723 17.3038C8.75049 17.5086 8.75 17.7763 8.75 18.1833V18.6083C8.75 19.0154 8.75049 19.283 8.76723 19.4879C8.78337 19.6855 8.81146 19.769 8.83629 19.8177C8.91219 19.9667 9.0333 20.0878 9.18226 20.1637C9.23099 20.1885 9.31452 20.2166 9.5121 20.2328C9.71698 20.2495 9.98465 20.25 10.3917 20.25H18.6083C19.0154 20.25 19.283 20.2495 19.4879 20.2328C19.6855 20.2166 19.769 20.1885 19.8177 20.1637C19.9667 20.0878 20.0878 19.9667 20.1637 19.8177C20.1885 19.769 20.2166 19.6855 20.2328 19.4879C20.2495 19.283 20.25 19.0154 20.25 18.6083V18.1833C20.25 17.7763 20.2495 17.5086 20.2328 17.3038C20.2166 17.1062 20.1885 17.0227 20.1637 16.9739C20.0878 16.825 19.9667 16.7039 19.8177 16.628C19.769 16.6031 19.6855 16.575 19.4879 16.5589C19.283 16.5422 19.0154 16.5417 18.6083 16.5417H10.3917ZM9.97917 18.3958C9.97917 18.0507 10.259 17.7708 10.6042 17.7708H13.4375C13.7827 17.7708 14.0625 18.0507 14.0625 18.3958C14.0625 18.741 13.7827 19.0208 13.4375 19.0208H10.6042C10.259 19.0208 9.97917 18.741 9.97917 18.3958Z" fill="#272B32"/>
</g>
<defs>
<filter id="filter0_dddf_13_2" x="-5.91304" y="-5.91304" width="36.2609" height="38.3478" filterUnits="userSpaceOnUse" color-interpolation-filters="sRGB">
<feFlood flood-opacity="0" result="BackgroundImageFix"/>
<feColorMatrix in="SourceAlpha" type="matrix" values="0 0 0 0 0 0 0 0 0 0 0 0 0 0 0 0 0 0 127 0" result="hardAlpha"/>
<feOffset dx="1.3913" dy="3.47826"/>
<feGaussianBlur stdDeviation="3.47826"/>
<feColorMatrix type="matrix" values="0 0 0 0 0.690938 0 0 0 0 0.765417 0 0 0 0 0.825 0 0 0 1 0"/>
<feBlend mode="normal" in2="BackgroundImageFix" result="effect1_dropShadow_13_2"/>
<feColorMatrix in="SourceAlpha" type="matrix" values="0 0 0 0 0 0 0 0 0 0 0 0 0 0 0 0 0 0 127 0" result="hardAlpha"/>
<feOffset dx="-3.47826" dy="-3.47826"/>
<feGaussianBlur stdDeviation="5.21739"/>
<feColorMatrix type="matrix" values="0 0 0 0 1 0 0 0 0 1 0 0 0 0 1 0 0 0 0.8 0"/>
<feBlend mode="normal" in2="effect1_dropShadow_13_2" result="effect2_dropShadow_13_2"/>
<feColorMatrix in="SourceAlpha" type="matrix" values="0 0 0 0 0 0 0 0 0 0 0 0 0 0 0 0 0 0 127 0" result="hardAlpha"/>
<feOffset dx="-4.86957" dy="-4.86957"/>
<feGaussianBlur stdDeviation="4.17391"/>
<feColorMatrix type="matrix" values="0 0 0 0 1 0 0 0 0 1 0 0 0 0 1 0 0 0 0.35 0"/>
<feBlend mode="normal" in2="effect2_dropShadow_13_2" result="effect3_dropShadow_13_2"/>
<feBlend mode="normal" in="SourceGraphic" in2="effect3_dropShadow_13_2" result="shape"/>
<feGaussianBlur stdDeviation="3.47826" result="effect4_foregroundBlur_13_2"/>
</filter>
<clipPath id="clip0_13_2">
<rect width="30" height="30" fill="white"/>
</clipPath>
</defs>
</svg>
