<svg width="30" height="30" viewBox="0 0 30 30" fill="none" xmlns="http://www.w3.org/2000/svg">
<g clip-path="url(#clip0_6_116)">
<g filter="url(#filter0_dddf_6_116)">
<circle cx="15" cy="15" r="7" fill="white"/>
</g>
<path d="M15.6962 8C15.888 7.99998 16.0676 7.99997 16.2185 8.0123C16.3822 8.02567 16.5662 8.05662 16.7492 8.14987C17.008 8.28169 17.2183 8.49204 17.3501 8.75077C17.4434 8.93377 17.4743 9.11779 17.4877 9.28151C17.5 9.43238 17.5 9.61205 17.5 9.80381V20.9462C17.5 21.138 17.5 21.3176 17.4877 21.4685C17.4743 21.6322 17.4434 21.8162 17.3501 21.9992C17.2183 22.258 17.008 22.4683 16.7492 22.6001C16.5662 22.6934 16.3822 22.7243 16.2185 22.7377C16.0676 22.75 15.888 22.75 15.6962 22.75H15.0538C14.8621 22.75 14.6824 22.75 14.5315 22.7377C14.3678 22.7243 14.1838 22.6934 14.0008 22.6001C13.742 22.4683 13.5317 22.258 13.3999 21.9992C13.3066 21.8162 13.2757 21.6322 13.2623 21.4685C13.25 21.3176 13.25 21.1379 13.25 20.9462V9.80383V9.80383C13.25 9.61206 13.25 9.43239 13.2623 9.28151C13.2757 9.11779 13.3066 8.93377 13.3999 8.75077C13.5317 8.49204 13.742 8.28169 14.0008 8.14987C14.1838 8.05662 14.3678 8.02567 14.5315 8.0123C14.6824 7.99997 14.862 7.99998 15.0538 8H15.0538H15.6962H15.6962Z" fill="white"/>
<path d="M20.9462 12.5C21.138 12.5 21.3176 12.5 21.4685 12.5123C21.6322 12.5257 21.8162 12.5566 21.9992 12.6499C22.258 12.7817 22.4683 12.992 22.6001 13.2508C22.6934 13.4338 22.7243 13.6178 22.7377 13.7815C22.75 13.9324 22.75 14.1121 22.75 14.3038V20.9462C22.75 21.138 22.75 21.3176 22.7377 21.4685C22.7243 21.6322 22.6934 21.8162 22.6001 21.9992C22.4683 22.258 22.258 22.4683 21.9992 22.6001C21.8162 22.6934 21.6322 22.7243 21.4685 22.7377C21.3176 22.75 21.138 22.75 20.9462 22.75H20.3038C20.1121 22.75 19.9324 22.75 19.7815 22.7377C19.6178 22.7243 19.4338 22.6934 19.2508 22.6001C18.992 22.4683 18.7817 22.258 18.6499 21.9992C18.5566 21.8162 18.5257 21.6322 18.5123 21.4685C18.5 21.3176 18.5 21.138 18.5 20.9462V14.3038C18.5 14.1121 18.5 13.9324 18.5123 13.7815C18.5257 13.6178 18.5566 13.4338 18.6499 13.2508C18.7817 12.992 18.992 12.7817 19.2508 12.6499C19.4338 12.5566 19.6178 12.5257 19.7815 12.5123C19.9324 12.5 20.112 12.5 20.3038 12.5H20.3038H20.9462H20.9462Z" fill="white"/>
<path d="M10.4462 15.5C10.6379 15.5 10.8176 15.5 10.9685 15.5123C11.1322 15.5257 11.3162 15.5566 11.4992 15.6499C11.758 15.7817 11.9683 15.992 12.1001 16.2508C12.1934 16.4338 12.2243 16.6178 12.2377 16.7815C12.25 16.9324 12.25 17.112 12.25 17.3038V17.3038V20.9462V20.9462C12.25 21.138 12.25 21.3176 12.2377 21.4685C12.2243 21.6322 12.1934 21.8162 12.1001 21.9992C11.9683 22.258 11.758 22.4683 11.4992 22.6001C11.3162 22.6934 11.1322 22.7243 10.9685 22.7377C10.8176 22.75 10.638 22.75 10.4462 22.75H9.80381C9.61205 22.75 9.43238 22.75 9.28151 22.7377C9.11779 22.7243 8.93377 22.6934 8.75077 22.6001C8.49204 22.4683 8.28169 22.258 8.14987 21.9992C8.05662 21.8162 8.02567 21.6322 8.0123 21.4685C7.99997 21.3176 7.99998 21.138 8 20.9462V20.9462V17.3038V17.3038C7.99998 17.112 7.99997 16.9324 8.0123 16.7815C8.02567 16.6178 8.05662 16.4338 8.14987 16.2508C8.28169 15.992 8.49204 15.7817 8.75077 15.6499C8.93377 15.5566 9.11779 15.5257 9.28151 15.5123C9.43239 15.5 9.61206 15.5 9.80383 15.5H9.80383H10.4462H10.4462Z" fill="white"/>
<path fill-rule="evenodd" clip-rule="evenodd" d="M15.0538 8H15.6962C15.8879 7.99998 16.0676 7.99997 16.2185 8.0123C16.3822 8.02567 16.5662 8.05662 16.7492 8.14987C17.008 8.28169 17.2183 8.49204 17.3501 8.75077C17.4434 8.93377 17.4743 9.11779 17.4877 9.28151C17.5 9.43238 17.5 9.61205 17.5 9.80381V20.9462C17.5 21.138 17.5 21.3176 17.4877 21.4685C17.4743 21.6322 17.4434 21.8162 17.3501 21.9992C17.2183 22.258 17.008 22.4683 16.7492 22.6001C16.5662 22.6934 16.3822 22.7243 16.2185 22.7377C16.0676 22.75 15.888 22.75 15.6962 22.75H15.0538C14.8621 22.75 14.6824 22.75 14.5315 22.7377C14.3678 22.7243 14.1838 22.6934 14.0008 22.6001C13.742 22.4683 13.5317 22.258 13.3999 21.9992C13.3066 21.8162 13.2757 21.6322 13.2623 21.4685C13.25 21.3176 13.25 21.1379 13.25 20.9462V9.80383C13.25 9.61206 13.25 9.43239 13.2623 9.28151C13.2757 9.11779 13.3066 8.93377 13.3999 8.75077C13.5317 8.49204 13.742 8.28169 14.0008 8.14987C14.1838 8.05662 14.3678 8.02567 14.5315 8.0123C14.6824 7.99997 14.8621 7.99998 15.0538 8ZM14.5611 9.26758C14.5432 9.27823 14.5282 9.29319 14.5176 9.31109C14.5155 9.32018 14.5115 9.34201 14.5081 9.3833C14.5005 9.47701 14.5 9.60467 14.5 9.825V20.925C14.5 21.1453 14.5005 21.273 14.5081 21.3667C14.5115 21.408 14.5155 21.4298 14.5176 21.4389C14.5282 21.4568 14.5432 21.4718 14.5611 21.4824C14.5702 21.4845 14.592 21.4885 14.6333 21.4919C14.727 21.4995 14.8547 21.5 15.075 21.5H15.675C15.8953 21.5 16.023 21.4995 16.1167 21.4919C16.158 21.4885 16.1798 21.4845 16.1889 21.4824C16.2068 21.4718 16.2218 21.4568 16.2324 21.4389C16.2345 21.4298 16.2385 21.408 16.2419 21.3667C16.2495 21.273 16.25 21.1453 16.25 20.925V9.825C16.25 9.60467 16.2495 9.47701 16.2419 9.3833C16.2385 9.34201 16.2345 9.32018 16.2324 9.31109C16.2218 9.29319 16.2068 9.27823 16.1889 9.26758C16.1798 9.26555 16.158 9.26152 16.1167 9.25814C16.023 9.25049 15.8953 9.25 15.675 9.25H15.075C14.8547 9.25 14.727 9.25049 14.6333 9.25814C14.592 9.26152 14.5702 9.26555 14.5611 9.26758ZM20.3038 12.5H20.9462C21.1379 12.5 21.3176 12.5 21.4685 12.5123C21.6322 12.5257 21.8162 12.5566 21.9992 12.6499C22.258 12.7817 22.4683 12.992 22.6001 13.2508C22.6934 13.4338 22.7243 13.6178 22.7377 13.7815C22.75 13.9324 22.75 14.1121 22.75 14.3038V20.9462C22.75 21.138 22.75 21.3176 22.7377 21.4685C22.7243 21.6322 22.6934 21.8162 22.6001 21.9992C22.4683 22.258 22.258 22.4683 21.9992 22.6001C21.8162 22.6934 21.6322 22.7243 21.4685 22.7377C21.3176 22.75 21.138 22.75 20.9462 22.75H20.3038C20.1121 22.75 19.9324 22.75 19.7815 22.7377C19.6178 22.7243 19.4338 22.6934 19.2508 22.6001C18.992 22.4683 18.7817 22.258 18.6499 21.9992C18.5566 21.8162 18.5257 21.6322 18.5123 21.4685C18.5 21.3176 18.5 21.138 18.5 20.9462V14.3038C18.5 14.1121 18.5 13.9324 18.5123 13.7815C18.5257 13.6178 18.5566 13.4338 18.6499 13.2508C18.7817 12.992 18.992 12.7817 19.2508 12.6499C19.4338 12.5566 19.6178 12.5257 19.7815 12.5123C19.9324 12.5 20.1121 12.5 20.3038 12.5ZM19.8111 13.7676C19.7932 13.7782 19.7782 13.7932 19.7676 13.8111C19.7655 13.8202 19.7615 13.842 19.7581 13.8833C19.7505 13.977 19.75 14.1047 19.75 14.325V20.925C19.75 21.1453 19.7505 21.273 19.7581 21.3667C19.7615 21.408 19.7655 21.4298 19.7676 21.4389C19.7782 21.4568 19.7932 21.4718 19.8111 21.4824C19.8202 21.4845 19.842 21.4885 19.8833 21.4919C19.977 21.4995 20.1047 21.5 20.325 21.5H20.925C21.1453 21.5 21.273 21.4995 21.3667 21.4919C21.408 21.4885 21.4298 21.4845 21.4389 21.4824C21.4568 21.4718 21.4718 21.4568 21.4824 21.4389C21.4845 21.4298 21.4885 21.408 21.4919 21.3667C21.4995 21.273 21.5 21.1453 21.5 20.925V14.325C21.5 14.1047 21.4995 13.977 21.4919 13.8833C21.4885 13.842 21.4845 13.8202 21.4824 13.8111C21.4718 13.7932 21.4568 13.7782 21.4389 13.7676C21.4298 13.7655 21.408 13.7615 21.3667 13.7581C21.273 13.7505 21.1453 13.75 20.925 13.75H20.325C20.1047 13.75 19.977 13.7505 19.8833 13.7581C19.842 13.7615 19.8202 13.7655 19.8111 13.7676ZM9.80383 15.5H10.4462C10.6379 15.5 10.8176 15.5 10.9685 15.5123C11.1322 15.5257 11.3162 15.5566 11.4992 15.6499C11.758 15.7817 11.9683 15.992 12.1001 16.2508C12.1934 16.4338 12.2243 16.6178 12.2377 16.7815C12.25 16.9324 12.25 17.1121 12.25 17.3038V20.9462C12.25 21.1379 12.25 21.3176 12.2377 21.4685C12.2243 21.6322 12.1934 21.8162 12.1001 21.9992C11.9683 22.258 11.758 22.4683 11.4992 22.6001C11.3162 22.6934 11.1322 22.7243 10.9685 22.7377C10.8176 22.75 10.638 22.75 10.4462 22.75H9.80381C9.61205 22.75 9.43238 22.75 9.28151 22.7377C9.11779 22.7243 8.93377 22.6934 8.75077 22.6001C8.49204 22.4683 8.28169 22.258 8.14987 21.9992C8.05662 21.8162 8.02567 21.6322 8.0123 21.4685C7.99997 21.3176 7.99998 21.1379 8 20.9462V17.3038C7.99998 17.1121 7.99997 16.9324 8.0123 16.7815C8.02567 16.6178 8.05662 16.4338 8.14987 16.2508C8.28169 15.992 8.49204 15.7817 8.75077 15.6499C8.93377 15.5566 9.11779 15.5257 9.28151 15.5123C9.43239 15.5 9.61206 15.5 9.80383 15.5ZM9.31109 16.7676C9.29319 16.7782 9.27823 16.7932 9.26758 16.8111C9.26555 16.8202 9.26152 16.842 9.25814 16.8833C9.25049 16.977 9.25 17.1047 9.25 17.325V20.925C9.25 21.1453 9.25049 21.273 9.25814 21.3667C9.26152 21.408 9.26555 21.4298 9.26758 21.4389C9.27823 21.4568 9.29319 21.4718 9.31109 21.4824C9.32017 21.4845 9.34201 21.4885 9.3833 21.4919C9.47701 21.4995 9.60467 21.5 9.825 21.5H10.425C10.6453 21.5 10.773 21.4995 10.8667 21.4919C10.908 21.4885 10.9298 21.4845 10.9389 21.4824C10.9568 21.4718 10.9718 21.4568 10.9824 21.4389C10.9845 21.4298 10.9885 21.408 10.9919 21.3667C10.9995 21.273 11 21.1453 11 20.925V17.325C11 17.1047 10.9995 16.977 10.9919 16.8833C10.9885 16.842 10.9845 16.8202 10.9824 16.8111C10.9718 16.7932 10.9568 16.7782 10.9389 16.7676C10.9298 16.7655 10.908 16.7615 10.8667 16.7581C10.773 16.7505 10.6453 16.75 10.425 16.75H9.825C9.60467 16.75 9.47701 16.7505 9.3833 16.7581C9.34201 16.7615 9.32017 16.7655 9.31109 16.7676Z" fill="#272B32"/>
</g>
<defs>
<filter id="filter0_dddf_6_116" x="-5.91304" y="-5.91304" width="36.2609" height="38.3478" filterUnits="userSpaceOnUse" color-interpolation-filters="sRGB">
<feFlood flood-opacity="0" result="BackgroundImageFix"/>
<feColorMatrix in="SourceAlpha" type="matrix" values="0 0 0 0 0 0 0 0 0 0 0 0 0 0 0 0 0 0 127 0" result="hardAlpha"/>
<feOffset dx="1.3913" dy="3.47826"/>
<feGaussianBlur stdDeviation="3.47826"/>
<feColorMatrix type="matrix" values="0 0 0 0 0.690938 0 0 0 0 0.765417 0 0 0 0 0.825 0 0 0 1 0"/>
<feBlend mode="normal" in2="BackgroundImageFix" result="effect1_dropShadow_6_116"/>
<feColorMatrix in="SourceAlpha" type="matrix" values="0 0 0 0 0 0 0 0 0 0 0 0 0 0 0 0 0 0 127 0" result="hardAlpha"/>
<feOffset dx="-3.47826" dy="-3.47826"/>
<feGaussianBlur stdDeviation="5.21739"/>
<feColorMatrix type="matrix" values="0 0 0 0 1 0 0 0 0 1 0 0 0 0 1 0 0 0 0.8 0"/>
<feBlend mode="normal" in2="effect1_dropShadow_6_116" result="effect2_dropShadow_6_116"/>
<feColorMatrix in="SourceAlpha" type="matrix" values="0 0 0 0 0 0 0 0 0 0 0 0 0 0 0 0 0 0 127 0" result="hardAlpha"/>
<feOffset dx="-4.86957" dy="-4.86957"/>
<feGaussianBlur stdDeviation="4.17391"/>
<feColorMatrix type="matrix" values="0 0 0 0 1 0 0 0 0 1 0 0 0 0 1 0 0 0 0.35 0"/>
<feBlend mode="normal" in2="effect2_dropShadow_6_116" result="effect3_dropShadow_6_116"/>
<feBlend mode="normal" in="SourceGraphic" in2="effect3_dropShadow_6_116" result="shape"/>
<feGaussianBlur stdDeviation="3.47826" result="effect4_foregroundBlur_6_116"/>
</filter>
<clipPath id="clip0_6_116">
<rect width="30" height="30" fill="white"/>
</clipPath>
</defs>
</svg>
