<svg width="30" height="30" viewBox="0 0 30 30" fill="none" xmlns="http://www.w3.org/2000/svg">
<g clip-path="url(#clip0_6_103)">
<g filter="url(#filter0_dddf_6_103)">
<circle cx="15" cy="15" r="7" fill="white"/>
</g>
<path d="M9.75833 12C9.75833 10.5779 10.9112 9.425 12.3333 9.425C13.7555 9.425 14.9083 10.5779 14.9083 12C14.9083 13.4221 13.7555 14.575 12.3333 14.575C10.9112 14.575 9.75833 13.4221 9.75833 12Z" fill="white"/>
<path d="M15.7583 13.3333C15.7583 12.2794 16.6127 11.425 17.6667 11.425C18.7205 11.425 19.575 12.2794 19.575 13.3333C19.575 14.3873 18.7206 15.2417 17.6667 15.2417C16.6127 15.2417 15.7583 14.3873 15.7583 13.3333Z" fill="white"/>
<path d="M8.425 19.3333C8.425 17.1748 10.1748 15.425 12.3333 15.425C13.5613 15.425 14.6569 15.9913 15.3734 16.8769C16.0145 16.3854 16.8063 16.0917 17.6667 16.0917C19.8111 16.0917 21.575 17.7049 21.575 20V20.6667C21.575 20.9843 21.3176 21.2417 21 21.2417H9C8.68244 21.2417 8.425 20.9843 8.425 20.6667V19.3333Z" fill="white"/>
<path fill-rule="evenodd" clip-rule="evenodd" d="M12.3333 10.575C11.5463 10.575 10.9083 11.213 10.9083 12C10.9083 12.787 11.5463 13.425 12.3333 13.425C13.1203 13.425 13.7583 12.787 13.7583 12C13.7583 11.213 13.1203 10.575 12.3333 10.575ZM9.75833 12C9.75833 10.5779 10.9112 9.425 12.3333 9.425C13.7555 9.425 14.9083 10.5779 14.9083 12C14.9083 13.4221 13.7555 14.575 12.3333 14.575C10.9112 14.575 9.75833 13.4221 9.75833 12ZM17.6667 12.575C17.2478 12.575 16.9083 12.9145 16.9083 13.3333C16.9083 13.7521 17.2479 14.0917 17.6667 14.0917C18.0854 14.0917 18.425 13.7521 18.425 13.3333C18.425 12.9145 18.0854 12.575 17.6667 12.575ZM15.7583 13.3333C15.7583 12.2794 16.6127 11.425 17.6667 11.425C18.7205 11.425 19.575 12.2794 19.575 13.3333C19.575 14.3873 18.7206 15.2417 17.6667 15.2417C16.6127 15.2417 15.7583 14.3873 15.7583 13.3333ZM8.425 19.3333C8.425 17.1748 10.1748 15.425 12.3333 15.425C13.5612 15.425 14.6569 15.9913 15.3734 16.8769C16.0145 16.3854 16.8063 16.0917 17.6667 16.0917C19.8111 16.0917 21.575 17.7049 21.575 20V20.6667C21.575 20.9843 21.3176 21.2417 21 21.2417H9C8.68244 21.2417 8.425 20.9843 8.425 20.6667V19.3333ZM14.7417 17.9876C14.7535 18.0142 14.7674 18.04 14.7834 18.0649C14.9804 18.4446 15.0917 18.876 15.0917 19.3333V20.0917H9.575V19.3333C9.575 17.8099 10.8099 16.575 12.3333 16.575C13.3681 16.575 14.2697 17.1447 14.7417 17.9876ZM16.2417 20.0917V19.3333C16.2417 18.8194 16.1425 18.3286 15.9622 17.8791C16.4349 17.4767 17.0276 17.2417 17.6667 17.2417C19.2041 17.2417 20.425 18.3678 20.425 20V20.0917H16.2417Z" fill="#272B32"/>
</g>
<defs>
<filter id="filter0_dddf_6_103" x="-5.91304" y="-5.91304" width="36.2609" height="38.3478" filterUnits="userSpaceOnUse" color-interpolation-filters="sRGB">
<feFlood flood-opacity="0" result="BackgroundImageFix"/>
<feColorMatrix in="SourceAlpha" type="matrix" values="0 0 0 0 0 0 0 0 0 0 0 0 0 0 0 0 0 0 127 0" result="hardAlpha"/>
<feOffset dx="1.3913" dy="3.47826"/>
<feGaussianBlur stdDeviation="3.47826"/>
<feColorMatrix type="matrix" values="0 0 0 0 0.690938 0 0 0 0 0.765417 0 0 0 0 0.825 0 0 0 1 0"/>
<feBlend mode="normal" in2="BackgroundImageFix" result="effect1_dropShadow_6_103"/>
<feColorMatrix in="SourceAlpha" type="matrix" values="0 0 0 0 0 0 0 0 0 0 0 0 0 0 0 0 0 0 127 0" result="hardAlpha"/>
<feOffset dx="-3.47826" dy="-3.47826"/>
<feGaussianBlur stdDeviation="5.21739"/>
<feColorMatrix type="matrix" values="0 0 0 0 1 0 0 0 0 1 0 0 0 0 1 0 0 0 0.8 0"/>
<feBlend mode="normal" in2="effect1_dropShadow_6_103" result="effect2_dropShadow_6_103"/>
<feColorMatrix in="SourceAlpha" type="matrix" values="0 0 0 0 0 0 0 0 0 0 0 0 0 0 0 0 0 0 127 0" result="hardAlpha"/>
<feOffset dx="-4.86957" dy="-4.86957"/>
<feGaussianBlur stdDeviation="4.17391"/>
<feColorMatrix type="matrix" values="0 0 0 0 1 0 0 0 0 1 0 0 0 0 1 0 0 0 0.35 0"/>
<feBlend mode="normal" in2="effect2_dropShadow_6_103" result="effect3_dropShadow_6_103"/>
<feBlend mode="normal" in="SourceGraphic" in2="effect3_dropShadow_6_103" result="shape"/>
<feGaussianBlur stdDeviation="3.47826" result="effect4_foregroundBlur_6_103"/>
</filter>
<clipPath id="clip0_6_103">
<rect width="30" height="30" fill="white"/>
</clipPath>
</defs>
</svg>
