<svg width="30" height="30" xmlns="http://www.w3.org/2000/svg"><path fill-rule="evenodd" clip-rule="evenodd" d="M9.85 7h-.028c-.344 0-.646 0-.895.02-.265.022-.537.07-.8.205a2.062 2.062 0 0 0-.902.901 2.097 2.097 0 0 0-.205.8c-.02.25-.02.552-.02.895v1.107c0 .344 0 .645.02.895.022.265.07.537.205.8.198.389.513.705.901.902.264.135.536.183.8.205.25.02.552.02.896.02h1.106c.344 0 .645 0 .895-.02.265-.022.537-.07.8-.205.389-.197.705-.513.902-.901.135-.264.183-.536.205-.8.02-.25.02-.552.02-.896V9.822c0-.344 0-.645-.02-.895a2.095 2.095 0 0 0-.205-.8 2.063 2.063 0 0 0-.901-.902 2.097 2.097 0 0 0-.8-.205c-.25-.02-.552-.02-.895-.02H9.85ZM8.807 8.561c.017-.008.07-.032.242-.046.181-.014.421-.015.801-.015h1.05c.38 0 .62 0 .801.015.172.014.225.038.242.046.106.054.192.14.246.246.008.017.031.07.046.242.014.181.015.421.015.801v1.05c0 .38 0 .62-.015.801-.014.172-.038.225-.046.242a.563.563 0 0 1-.246.246c-.017.008-.07.031-.242.046-.181.014-.421.015-.801.015H9.85c-.38 0-.62 0-.801-.015-.172-.014-.225-.038-.242-.046a.563.563 0 0 1-.246-.246c-.008-.017-.032-.07-.046-.242A11.097 11.097 0 0 1 8.5 10.9V9.85c0-.38 0-.62.015-.801.014-.172.038-.225.046-.242a.563.563 0 0 1 .246-.246ZM19.678 7h-1.106c-.344 0-.645 0-.895.02-.265.022-.537.07-.8.205a2.063 2.063 0 0 0-.902.901 2.095 2.095 0 0 0-.205.8c-.02.25-.02.552-.02.896v1.106c0 .344 0 .645.02.895.022.265.07.537.205.8.197.389.513.705.901.902.264.135.536.183.8.205.25.02.552.02.896.02h1.106c.344 0 .645 0 .895-.02.265-.022.537-.07.8-.205.389-.197.704-.513.902-.901.135-.264.183-.536.205-.8.02-.25.02-.552.02-.896V9.822c0-.344 0-.645-.02-.895a2.095 2.095 0 0 0-.205-.8 2.063 2.063 0 0 0-.901-.902 2.097 2.097 0 0 0-.8-.205c-.25-.02-.552-.02-.895-.02Zm-2.12 1.561c.016-.008.069-.032.241-.046.181-.014.421-.015.801-.015h1.05c.38 0 .62 0 .801.015.172.014.225.038.242.046.106.054.192.14.246.246.008.017.032.07.046.242.014.181.015.421.015.801v1.05c0 .38 0 .62-.015.801-.014.172-.038.225-.046.242a.563.563 0 0 1-.246.246c-.017.008-.07.031-.242.046-.181.014-.421.015-.801.015H18.6c-.38 0-.62 0-.801-.015-.172-.014-.225-.038-.242-.046a.563.563 0 0 1-.246-.246c-.008-.017-.032-.07-.046-.242a11.101 11.101 0 0 1-.015-.801V9.85c0-.38 0-.62.015-.801.014-.172.038-.225.046-.242a.563.563 0 0 1 .246-.246Zm-6.63 7.189H9.822c-.344 0-.645 0-.895.02-.265.022-.537.07-.8.205a2.063 2.063 0 0 0-.902.901 2.097 2.097 0 0 0-.205.8c-.02.25-.02.552-.02.895v1.107c0 .344 0 .645.02.895.022.265.07.537.205.8.198.389.513.704.901.902.264.135.536.183.8.205.25.02.552.02.896.02h1.106c.344 0 .645 0 .895-.02.265-.022.537-.07.8-.205.389-.197.705-.513.902-.901.135-.264.183-.536.205-.8.02-.25.02-.552.02-.896v-1.106c0-.344 0-.645-.02-.895a2.096 2.096 0 0 0-.205-.8 2.063 2.063 0 0 0-.901-.902 2.096 2.096 0 0 0-.8-.205c-.25-.02-.552-.02-.896-.02Zm-2.12 1.561c.016-.008.069-.032.241-.046.181-.014.421-.015.801-.015h1.05c.38 0 .62 0 .801.015.172.014.225.038.242.046.106.054.192.14.246.246.008.017.031.07.046.242.014.181.015.421.015.801v1.05c0 .38 0 .62-.015.801-.014.172-.038.225-.046.242a.563.563 0 0 1-.246.246c-.017.008-.07.032-.242.046-.181.014-.421.015-.801.015H9.85c-.38 0-.62 0-.801-.015-.172-.014-.225-.038-.242-.046a.563.563 0 0 1-.246-.246c-.008-.017-.032-.07-.046-.242a11.097 11.097 0 0 1-.015-.801V18.6c0-.38 0-.62.015-.801.014-.172.038-.225.046-.242a.563.563 0 0 1 .246-.246Zm11.067-.811a.75.75 0 0 0-1.5 0v1.875H16.5a.75.75 0 0 0 0 1.5h1.875v1.875a.75.75 0 0 0 1.5 0v-1.875h1.875a.75.75 0 0 0 0-1.5h-1.875V16.5Z"/></svg>
