<svg width="30" height="30" xmlns="http://www.w3.org/2000/svg"><path fill-rule="evenodd" clip-rule="evenodd" d="M20.387 7.625h-6.423c-.185 0-.36 0-.508.012a1.347 1.347 0 0 0-.527.142c-.255.135-.46.347-.586.604-.089.181-.118.363-.131.525-.012.15-.012.33-.012.521v4.946H9.726l-.773.008-.374.066a1.145 1.145 0 0 0-.511.324.864.864 0 0 0-.204.458 2.139 2.139 0 0 0-.014.29v5.554c0 .345.28.625.625.625H12.2v.05c0 .345.28.625.625.625h8.7c.345 0 .625-.28.625-.625V9.43c0-.193 0-.372-.012-.522a1.414 1.414 0 0 0-.131-.525 1.363 1.363 0 0 0-.586-.604 1.347 1.347 0 0 0-.527-.142c-.148-.012-.323-.012-.507-.012ZM12.2 20.45v-1.203a1.177 1.177 0 0 0-.245-.022c-.24 0-.351.05-.397.079a.227.227 0 0 0-.092.118.89.89 0 0 0-.049.282c-.004.086-.002.14 0 .204v.002c.002.043.003.09.003.152v.388h.78Zm-.245-2.475c.084 0 .166.004.245.01v-2.36H9.403c-.136 0-.23 0-.303.002v4.823h1.07v-.388c0-.011 0-.03-.002-.053-.006-.173-.025-.642.137-1.049.103-.259.283-.521.583-.711.295-.188.655-.274 1.067-.274Zm1.513-9.046a.115.115 0 0 1 .035-.039.565.565 0 0 1 .059-.007c.088-.007.21-.008.423-.008h6.38c.214 0 .335 0 .424.008l.058.007a.115.115 0 0 1 .035.04.562.562 0 0 1 .01.077c.008.094.008.223.008.443v11.675h-1.65V19.5c0-1.154-.91-2.125-2.075-2.125-1.166 0-2.075.971-2.075 2.125v1.625h-1.65V9.45c0-.22 0-.349.008-.443a.545.545 0 0 1 .01-.078ZM18 19.5v1.625h-1.65V19.5c0-.503.39-.875.825-.875.436 0 .825.372.825.875Zm-3.625-8.25c0-.345.28-.625.625-.625h.725a.625.625 0 1 1 0 1.25H15a.625.625 0 0 1-.625-.625Zm3.625 0c0-.345.28-.625.625-.625h.725a.625.625 0 1 1 0 1.25h-.725A.625.625 0 0 1 18 11.25Zm-3 1.625a.625.625 0 1 0 0 1.25h.725a.625.625 0 1 0 0-1.25H15Zm3 .625c0-.345.28-.625.625-.625h.725a.625.625 0 1 1 0 1.25h-.725A.625.625 0 0 1 18 13.5Zm-3 1.625a.625.625 0 1 0 0 1.25h.725a.625.625 0 1 0 0-1.25H15Zm3 .625c0-.345.28-.625.625-.625h.725a.625.625 0 1 1 0 1.25h-.725A.625.625 0 0 1 18 15.75Z"/></svg>
