<svg width="30" height="30" xmlns="http://www.w3.org/2000/svg"><path fill-rule="evenodd" clip-rule="evenodd" d="M14.428 8.16a2.875 2.875 0 0 1 1.892 0c.391.136.718.379 1.047.687.32.299.681.702 1.129 1.199l4.094 4.548a.625.625 0 1 1-.93.836l-.41-.456v3.214c0 .608 0 1.102-.033 1.502-.034.414-.105.783-.28 1.127-.276.54-.716.98-1.257 1.256-.343.175-.712.247-1.126.28-.401.034-.895.034-1.502.034h-3.353c-.608 0-1.102 0-1.503-.033-.413-.034-.783-.106-1.126-.28a2.874 2.874 0 0 1-1.257-1.257c-.175-.344-.246-.713-.28-1.127-.033-.4-.033-.894-.033-1.502v-3.214l-.41.456a.625.625 0 0 1-.93-.836l4.092-4.548c.448-.497.81-.9 1.13-1.2.328-.307.655-.55 1.046-.686Zm-3.678 5.425v4.577c0 .64 0 1.083.029 1.427.027.336.078.523.148.66.156.306.405.555.71.71.138.07.325.122.661.149.252.02.556.026.952.028v-3.874c0-.346.28-.625.625-.625h3c.345 0 .625.28.625.625v3.874c.396-.002.7-.007.952-.028.336-.027.523-.078.66-.149.307-.155.555-.404.71-.71.071-.137.122-.324.15-.66.027-.344.028-.787.028-1.427v-4.577l-2.414-2.682c-.471-.523-.798-.886-1.074-1.144-.271-.255-.449-.365-.603-.419a1.625 1.625 0 0 0-1.07 0c-.154.054-.331.164-.603.419-.276.258-.603.621-1.073 1.144l-2.413 2.681Zm5.5 7.552v-3.25H14.5v3.25h1.75Z"/></svg>
