<svg width="30" height="30" xmlns="http://www.w3.org/2000/svg"><path fill-rule="evenodd" clip-rule="evenodd" d="M15.054 8h.642c.192 0 .372 0 .522.012.164.014.348.045.531.138.259.132.47.342.601.6.093.184.124.368.138.532.012.15.012.33.012.522v11.142c0 .192 0 .372-.012.522a1.392 1.392 0 0 1-.138.531c-.132.259-.342.47-.6.601a1.392 1.392 0 0 1-.532.138c-.15.012-.33.012-.522.012h-.642c-.192 0-.372 0-.523-.012a1.392 1.392 0 0 1-.53-.138 1.374 1.374 0 0 1-.601-.6 1.392 1.392 0 0 1-.138-.532c-.012-.15-.012-.33-.012-.522V9.804c0-.192 0-.372.012-.522.014-.164.045-.348.138-.531.132-.259.342-.47.6-.601.184-.093.368-.124.531-.138.151-.012.331-.012.523-.012Zm-.493 1.268a.125.125 0 0 0-.043.043.542.542 0 0 0-.01.072 6.258 6.258 0 0 0-.008.442v11.1c0 .22 0 .348.008.442a.541.541 0 0 0 .01.072c.01.018.025.033.043.043.01.003.031.006.072.01.094.008.222.008.442.008h.6c.22 0 .348 0 .442-.008a.541.541 0 0 0 .072-.01.124.124 0 0 0 .043-.043.541.541 0 0 0 .01-.072c.008-.094.008-.222.008-.442v-11.1c0-.22 0-.348-.008-.442a.542.542 0 0 0-.01-.072.125.125 0 0 0-.043-.043.556.556 0 0 0-.072-.01 6.22 6.22 0 0 0-.442-.008h-.6c-.22 0-.348 0-.442.008a.556.556 0 0 0-.072.01Zm5.743 3.232h.642c.192 0 .372 0 .522.012.164.014.348.045.531.138.259.132.47.342.601.6.093.184.124.368.138.531.012.151.012.331.012.523v6.642c0 .192 0 .372-.012.522A1.392 1.392 0 0 1 22.6 22c-.132.259-.342.47-.6.601a1.392 1.392 0 0 1-.532.138c-.15.012-.33.012-.522.012h-.642c-.192 0-.372 0-.522-.012a1.392 1.392 0 0 1-.531-.138 1.374 1.374 0 0 1-.601-.6 1.392 1.392 0 0 1-.138-.532c-.012-.15-.012-.33-.012-.522v-6.642c0-.192 0-.372.012-.523.014-.163.045-.347.138-.53.132-.259.342-.47.6-.601.184-.093.368-.124.532-.138.15-.012.33-.012.522-.012Zm-.493 1.268a.124.124 0 0 0-.043.043.541.541 0 0 0-.01.072 6.258 6.258 0 0 0-.008.442v6.6c0 .22 0 .348.008.442a.541.541 0 0 0 .01.072c.01.018.025.033.043.043.01.003.031.006.072.01.094.008.222.008.442.008h.6c.22 0 .348 0 .442-.008a.541.541 0 0 0 .072-.01.124.124 0 0 0 .043-.043.541.541 0 0 0 .01-.072c.008-.094.008-.222.008-.442v-6.6c0-.22 0-.348-.008-.442a.541.541 0 0 0-.01-.072.124.124 0 0 0-.043-.043.541.541 0 0 0-.072-.01 6.258 6.258 0 0 0-.442-.008h-.6c-.22 0-.348 0-.442.008a.541.541 0 0 0-.072.01ZM9.804 15.5h.642c.192 0 .372 0 .523.012.163.014.347.045.53.138.259.132.47.342.601.6.093.184.124.368.138.532.012.15.012.33.012.522v3.642c0 .192 0 .372-.012.522A1.392 1.392 0 0 1 12.1 22c-.132.259-.342.47-.6.601a1.392 1.392 0 0 1-.531.138c-.151.012-.331.012-.523.012h-.642c-.192 0-.372 0-.522-.012a1.392 1.392 0 0 1-.531-.138 1.374 1.374 0 0 1-.601-.6 1.392 1.392 0 0 1-.138-.532A6.817 6.817 0 0 1 8 20.947v-3.642c0-.192 0-.372.012-.522.014-.164.045-.348.138-.531.132-.259.342-.47.6-.601.184-.093.368-.124.532-.138.15-.012.33-.012.522-.012Zm-.493 1.268a.125.125 0 0 0-.043.043.556.556 0 0 0-.01.072 6.22 6.22 0 0 0-.008.442v3.6c0 .22 0 .348.008.442a.556.556 0 0 0 .01.072c.01.018.025.033.043.043.01.003.031.006.072.01.094.008.222.008.442.008h.6c.22 0 .348 0 .442-.008a.541.541 0 0 0 .072-.01.124.124 0 0 0 .043-.043.541.541 0 0 0 .01-.072c.007-.094.008-.222.008-.442v-3.6c0-.22 0-.348-.008-.442a.541.541 0 0 0-.01-.072.124.124 0 0 0-.043-.043.541.541 0 0 0-.072-.01 6.258 6.258 0 0 0-.442-.008h-.6c-.22 0-.348 0-.442.008a.541.541 0 0 0-.072.01Z"/></svg>
