<svg width="30" height="30" xmlns="http://www.w3.org/2000/svg"><path fill-rule="evenodd" clip-rule="evenodd" d="M12.333 10.575a1.425 1.425 0 1 0 0 2.85 1.425 1.425 0 0 0 0-2.85ZM9.758 12a2.575 2.575 0 1 1 5.15 0 2.575 2.575 0 0 1-5.15 0Zm7.909.575a.758.758 0 1 0 0 1.517.758.758 0 0 0 0-1.517Zm-1.909.758a1.908 1.908 0 1 1 3.817 0 1.908 1.908 0 0 1-3.817 0Zm-7.333 6a3.908 3.908 0 0 1 6.948-2.456 3.754 3.754 0 0 1 2.294-.785c2.144 0 3.908 1.613 3.908 3.908v.667a.575.575 0 0 1-.575.575H9a.575.575 0 0 1-.575-.575v-1.334Zm6.317-1.345a2.746 2.746 0 0 1 .35 1.346v.758H9.575v-.759a2.758 2.758 0 0 1 5.167-1.345Zm1.5 2.104v-.759c0-.514-.1-1.004-.28-1.454a2.618 2.618 0 0 1 1.705-.637c1.537 0 2.758 1.126 2.758 2.758v.092h-4.183Z"/></svg>
