<svg width="30" height="30" viewBox="0 0 30 30" fill="none" xmlns="http://www.w3.org/2000/svg">
<g clip-path="url(#clip0_6_109)">
<g filter="url(#filter0_dddf_6_109)">
<circle cx="15" cy="15" r="7" fill="white"/>
</g>
<path d="M9.82191 7C9.4784 6.99999 9.17658 6.99997 8.92688 7.02037C8.66164 7.04205 8.38988 7.09042 8.12615 7.2248C7.73806 7.42254 7.42254 7.73806 7.2248 8.12615C7.09042 8.38988 7.04205 8.66164 7.02037 8.92688C6.99997 9.17658 6.99999 9.4784 7 9.82191V10.9281C6.99999 11.2716 6.99997 11.5734 7.02037 11.8231C7.04205 12.0884 7.09042 12.3601 7.2248 12.6239C7.42254 13.0119 7.73806 13.3275 8.12615 13.5252C8.38988 13.6596 8.66164 13.708 8.92688 13.7296C9.17658 13.75 9.4784 13.75 9.82191 13.75H10.9281C11.2716 13.75 11.5734 13.75 11.8231 13.7296C12.0884 13.708 12.3601 13.6596 12.6239 13.5252C13.0119 13.3275 13.3275 13.0119 13.5252 12.6239C13.6596 12.3601 13.708 12.0884 13.7296 11.8231C13.75 11.5734 13.75 11.2716 13.75 10.9281V9.82191C13.75 9.4784 13.75 9.17658 13.7296 8.92688C13.708 8.66164 13.6596 8.38988 13.5252 8.12615C13.3275 7.73806 13.0119 7.42254 12.6239 7.2248C12.3601 7.09042 12.0884 7.04205 11.8231 7.02037C11.5734 6.99997 11.2716 6.99999 10.9281 7H9.82191Z" fill="white"/>
<path d="M19.6781 7H18.5719C18.2284 6.99999 17.9266 6.99997 17.6769 7.02037C17.4116 7.04205 17.1399 7.09042 16.8761 7.2248C16.4881 7.42254 16.1725 7.73806 15.9748 8.12615C15.8404 8.38988 15.792 8.66164 15.7704 8.92688C15.75 9.17657 15.75 9.47838 15.75 9.82187V10.9281C15.75 11.2716 15.75 11.5734 15.7704 11.8231C15.792 12.0884 15.8404 12.3601 15.9748 12.6239C16.1725 13.0119 16.4881 13.3275 16.8761 13.5252C17.1399 13.6596 17.4116 13.708 17.6769 13.7296C17.9266 13.75 18.2284 13.75 18.5719 13.75H19.6781C20.0216 13.75 20.3234 13.75 20.5731 13.7296C20.8384 13.708 21.1101 13.6596 21.3739 13.5252C21.7619 13.3275 22.0775 13.0119 22.2752 12.6239C22.4096 12.3601 22.458 12.0884 22.4796 11.8231C22.5 11.5734 22.5 11.2716 22.5 10.9281V9.82189C22.5 9.47839 22.5 9.17658 22.4796 8.92688C22.458 8.66164 22.4096 8.38988 22.2752 8.12615C22.0775 7.73806 21.7619 7.42254 21.3739 7.2248C21.1101 7.09042 20.8384 7.04205 20.5731 7.02037C20.3234 6.99997 20.0216 6.99999 19.6781 7Z" fill="white"/>
<path d="M10.9281 15.75H9.82191C9.47844 15.75 9.17656 15.75 8.92688 15.7704C8.66164 15.792 8.38988 15.8404 8.12615 15.9748C7.73806 16.1725 7.42254 16.4881 7.2248 16.8761C7.09042 17.1399 7.04205 17.4116 7.02037 17.6769C6.99997 17.9266 6.99999 18.2284 7 18.5719V19.6781C6.99999 20.0216 6.99997 20.3234 7.02037 20.5731C7.04205 20.8384 7.09042 21.1101 7.2248 21.3739C7.42254 21.7619 7.73806 22.0775 8.12615 22.2752C8.38988 22.4096 8.66164 22.458 8.92688 22.4796C9.17658 22.5 9.47839 22.5 9.82189 22.5H10.9281C11.2716 22.5 11.5734 22.5 11.8231 22.4796C12.0884 22.458 12.3601 22.4096 12.6239 22.2752C13.0119 22.0775 13.3275 21.7619 13.5252 21.3739C13.6596 21.1101 13.708 20.8384 13.7296 20.5731C13.75 20.3234 13.75 20.0216 13.75 19.6781V18.5719C13.75 18.2284 13.75 17.9266 13.7296 17.6769C13.708 17.4116 13.6596 17.1399 13.5252 16.8761C13.3275 16.4881 13.0119 16.1725 12.6239 15.9748C12.3601 15.8404 12.0884 15.792 11.8231 15.7704C11.5734 15.75 11.2716 15.75 10.9281 15.75Z" fill="white"/>
<path d="M19.875 16.5C19.875 16.0858 19.5392 15.75 19.125 15.75C18.7108 15.75 18.375 16.0858 18.375 16.5V18.375H16.5C16.0858 18.375 15.75 18.7108 15.75 19.125C15.75 19.5392 16.0858 19.875 16.5 19.875H18.375V21.75C18.375 22.1642 18.7108 22.5 19.125 22.5C19.5392 22.5 19.875 22.1642 19.875 21.75V19.875H21.75C22.1642 19.875 22.5 19.5392 22.5 19.125C22.5 18.7108 22.1642 18.375 21.75 18.375H19.875V16.5Z" fill="white"/>
<path fill-rule="evenodd" clip-rule="evenodd" d="M9.82191 7C9.83124 7 9.84061 7 9.85 7L10.9281 7C11.2716 6.99999 11.5734 6.99997 11.8231 7.02037C12.0884 7.04205 12.3601 7.09042 12.6239 7.2248C13.0119 7.42254 13.3275 7.73806 13.5252 8.12615C13.6596 8.38988 13.708 8.66164 13.7296 8.92688C13.75 9.17658 13.75 9.47841 13.75 9.82191V10.9281C13.75 11.2716 13.75 11.5734 13.7296 11.8231C13.708 12.0884 13.6596 12.3601 13.5252 12.6239C13.3275 13.0119 13.0119 13.3275 12.6239 13.5252C12.3601 13.6596 12.0884 13.708 11.8231 13.7296C11.5734 13.75 11.2716 13.75 10.9281 13.75H9.82191C9.47841 13.75 9.17658 13.75 8.92688 13.7296C8.66164 13.708 8.38988 13.6596 8.12615 13.5252C7.73806 13.3275 7.42254 13.0119 7.2248 12.6239C7.09042 12.3601 7.04205 12.0884 7.02037 11.8231C6.99997 11.5734 6.99999 11.2716 7 10.9281L7 9.85C7 9.84061 7 9.83124 7 9.82191C6.99999 9.4784 6.99997 9.17658 7.02037 8.92688C7.04205 8.66164 7.09042 8.38988 7.2248 8.12615C7.42254 7.73806 7.73806 7.42254 8.12615 7.2248C8.38988 7.09042 8.66164 7.04205 8.92688 7.02037C9.17658 6.99997 9.4784 6.99999 9.82191 7ZM9.04903 8.51539C8.87655 8.52948 8.82416 8.55263 8.80713 8.56131C8.70129 8.61524 8.61524 8.70129 8.56131 8.80713C8.55263 8.82416 8.52948 8.87655 8.51539 9.04903C8.50058 9.23027 8.5 9.47009 8.5 9.85V10.9C8.5 11.2799 8.50058 11.5197 8.51539 11.701C8.52948 11.8735 8.55263 11.9258 8.56131 11.9429C8.61524 12.0487 8.70129 12.1348 8.80713 12.1887C8.82416 12.1974 8.87655 12.2205 9.04903 12.2346C9.23027 12.2494 9.47009 12.25 9.85 12.25H10.9C11.2799 12.25 11.5197 12.2494 11.701 12.2346C11.8735 12.2205 11.9258 12.1974 11.9429 12.1887C12.0487 12.1348 12.1348 12.0487 12.1887 11.9429C12.1974 11.9258 12.2205 11.8735 12.2346 11.701C12.2494 11.5197 12.25 11.2799 12.25 10.9V9.85C12.25 9.47009 12.2494 9.23027 12.2346 9.04903C12.2205 8.87655 12.1974 8.82416 12.1887 8.80713C12.1348 8.70129 12.0487 8.61524 11.9429 8.56131C11.9258 8.55263 11.8735 8.52948 11.701 8.51539C11.5197 8.50058 11.2799 8.5 10.9 8.5H9.85C9.47009 8.5 9.23027 8.50058 9.04903 8.51539ZM18.5719 7H19.6781C20.0216 6.99999 20.3234 6.99997 20.5731 7.02037C20.8384 7.04205 21.1101 7.09042 21.3739 7.2248C21.7619 7.42254 22.0775 7.73806 22.2752 8.12615C22.4096 8.38988 22.458 8.66164 22.4796 8.92688C22.5 9.17658 22.5 9.47839 22.5 9.82189V10.9281C22.5 11.2716 22.5 11.5734 22.4796 11.8231C22.458 12.0884 22.4096 12.3601 22.2752 12.6239C22.0775 13.0119 21.7619 13.3275 21.3739 13.5252C21.1101 13.6596 20.8384 13.708 20.5731 13.7296C20.3234 13.75 20.0216 13.75 19.6781 13.75H18.5719C18.2284 13.75 17.9266 13.75 17.6769 13.7296C17.4116 13.708 17.1399 13.6596 16.8761 13.5252C16.4881 13.3275 16.1725 13.0119 15.9748 12.6239C15.8404 12.3601 15.792 12.0884 15.7704 11.8231C15.75 11.5734 15.75 11.2716 15.75 10.9281V9.82191C15.75 9.47841 15.75 9.17658 15.7704 8.92688C15.792 8.66164 15.8404 8.38988 15.9748 8.12615C16.1725 7.73806 16.4881 7.42254 16.8761 7.2248C17.1399 7.09042 17.4116 7.04205 17.6769 7.02037C17.9266 6.99997 18.2284 6.99999 18.5719 7ZM17.799 8.51539C17.6265 8.52948 17.5742 8.55263 17.5571 8.56131C17.4513 8.61524 17.3652 8.70129 17.3113 8.80713C17.3026 8.82416 17.2795 8.87655 17.2654 9.04903C17.2506 9.23027 17.25 9.47009 17.25 9.85V10.9C17.25 11.2799 17.2506 11.5197 17.2654 11.701C17.2795 11.8735 17.3026 11.9258 17.3113 11.9429C17.3652 12.0487 17.4513 12.1348 17.5571 12.1887C17.5742 12.1974 17.6265 12.2205 17.799 12.2346C17.9803 12.2494 18.2201 12.25 18.6 12.25H19.65C20.0299 12.25 20.2697 12.2494 20.451 12.2346C20.6235 12.2205 20.6758 12.1974 20.6929 12.1887C20.7987 12.1348 20.8848 12.0487 20.9387 11.9429C20.9474 11.9258 20.9705 11.8735 20.9846 11.701C20.9994 11.5197 21 11.2799 21 10.9V9.85C21 9.47009 20.9994 9.23027 20.9846 9.04903C20.9705 8.87655 20.9474 8.82416 20.9387 8.80713C20.8848 8.70129 20.7987 8.61524 20.6929 8.56131C20.6758 8.55263 20.6235 8.52948 20.451 8.51539C20.2697 8.50058 20.0299 8.5 19.65 8.5H18.6C18.2201 8.5 17.9803 8.50058 17.799 8.51539ZM9.82191 15.75H10.9281C11.2716 15.75 11.5734 15.75 11.8231 15.7704C12.0884 15.792 12.3601 15.8404 12.6239 15.9748C13.0119 16.1725 13.3275 16.4881 13.5252 16.8761C13.6596 17.1399 13.708 17.4116 13.7296 17.6769C13.75 17.9266 13.75 18.2284 13.75 18.5719V19.6781C13.75 20.0216 13.75 20.3234 13.7296 20.5731C13.708 20.8384 13.6596 21.1101 13.5252 21.3739C13.3275 21.7619 13.0119 22.0775 12.6239 22.2752C12.3601 22.4096 12.0884 22.458 11.8231 22.4796C11.5734 22.5 11.2716 22.5 10.9281 22.5H9.82189C9.47839 22.5 9.17658 22.5 8.92688 22.4796C8.66164 22.458 8.38988 22.4096 8.12615 22.2752C7.73806 22.0775 7.42254 21.7619 7.2248 21.3739C7.09042 21.1101 7.04205 20.8384 7.02037 20.5731C6.99997 20.3234 6.99999 20.0216 7 19.6781V18.5719C6.99999 18.2284 6.99997 17.9266 7.02037 17.6769C7.04205 17.4116 7.09042 17.1399 7.2248 16.8761C7.42254 16.4881 7.73806 16.1725 8.12615 15.9748C8.38988 15.8404 8.66164 15.792 8.92688 15.7704C9.17658 15.75 9.47841 15.75 9.82191 15.75ZM9.04903 17.2654C8.87655 17.2795 8.82416 17.3026 8.80713 17.3113C8.70129 17.3652 8.61524 17.4513 8.56131 17.5571C8.55263 17.5742 8.52948 17.6265 8.51539 17.799C8.50058 17.9803 8.5 18.2201 8.5 18.6V19.65C8.5 20.0299 8.50058 20.2697 8.51539 20.451C8.52948 20.6235 8.55263 20.6758 8.56131 20.6929C8.61524 20.7987 8.70129 20.8848 8.80713 20.9387C8.82416 20.9474 8.87655 20.9705 9.04903 20.9846C9.23027 20.9994 9.47009 21 9.85 21H10.9C11.2799 21 11.5197 20.9994 11.701 20.9846C11.8735 20.9705 11.9258 20.9474 11.9429 20.9387C12.0487 20.8848 12.1348 20.7987 12.1887 20.6929C12.1974 20.6758 12.2205 20.6235 12.2346 20.451C12.2494 20.2697 12.25 20.0299 12.25 19.65V18.6C12.25 18.2201 12.2494 17.9803 12.2346 17.799C12.2205 17.6265 12.1974 17.5742 12.1887 17.5571C12.1348 17.4513 12.0487 17.3652 11.9429 17.3113C11.9258 17.3026 11.8735 17.2795 11.701 17.2654C11.5197 17.2506 11.2799 17.25 10.9 17.25H9.85C9.47009 17.25 9.23027 17.2506 9.04903 17.2654ZM19.125 15.75C19.5392 15.75 19.875 16.0858 19.875 16.5V18.375H21.75C22.1642 18.375 22.5 18.7108 22.5 19.125C22.5 19.5392 22.1642 19.875 21.75 19.875H19.875V21.75C19.875 22.1642 19.5392 22.5 19.125 22.5C18.7108 22.5 18.375 22.1642 18.375 21.75V19.875H16.5C16.0858 19.875 15.75 19.5392 15.75 19.125C15.75 18.7108 16.0858 18.375 16.5 18.375H18.375V16.5C18.375 16.0858 18.7108 15.75 19.125 15.75Z" fill="#131A29"/>
</g>
<defs>
<filter id="filter0_dddf_6_109" x="-5.91304" y="-5.91304" width="36.2609" height="38.3478" filterUnits="userSpaceOnUse" color-interpolation-filters="sRGB">
<feFlood flood-opacity="0" result="BackgroundImageFix"/>
<feColorMatrix in="SourceAlpha" type="matrix" values="0 0 0 0 0 0 0 0 0 0 0 0 0 0 0 0 0 0 127 0" result="hardAlpha"/>
<feOffset dx="1.3913" dy="3.47826"/>
<feGaussianBlur stdDeviation="3.47826"/>
<feColorMatrix type="matrix" values="0 0 0 0 0.690938 0 0 0 0 0.765417 0 0 0 0 0.825 0 0 0 1 0"/>
<feBlend mode="normal" in2="BackgroundImageFix" result="effect1_dropShadow_6_109"/>
<feColorMatrix in="SourceAlpha" type="matrix" values="0 0 0 0 0 0 0 0 0 0 0 0 0 0 0 0 0 0 127 0" result="hardAlpha"/>
<feOffset dx="-3.47826" dy="-3.47826"/>
<feGaussianBlur stdDeviation="5.21739"/>
<feColorMatrix type="matrix" values="0 0 0 0 1 0 0 0 0 1 0 0 0 0 1 0 0 0 0.8 0"/>
<feBlend mode="normal" in2="effect1_dropShadow_6_109" result="effect2_dropShadow_6_109"/>
<feColorMatrix in="SourceAlpha" type="matrix" values="0 0 0 0 0 0 0 0 0 0 0 0 0 0 0 0 0 0 127 0" result="hardAlpha"/>
<feOffset dx="-4.86957" dy="-4.86957"/>
<feGaussianBlur stdDeviation="4.17391"/>
<feColorMatrix type="matrix" values="0 0 0 0 1 0 0 0 0 1 0 0 0 0 1 0 0 0 0.35 0"/>
<feBlend mode="normal" in2="effect2_dropShadow_6_109" result="effect3_dropShadow_6_109"/>
<feBlend mode="normal" in="SourceGraphic" in2="effect3_dropShadow_6_109" result="shape"/>
<feGaussianBlur stdDeviation="3.47826" result="effect4_foregroundBlur_6_109"/>
</filter>
<clipPath id="clip0_6_109">
<rect width="30" height="30" fill="white"/>
</clipPath>
</defs>
</svg>
