<svg width="30" height="30" xmlns="http://www.w3.org/2000/svg"><path fill-rule="evenodd" clip-rule="evenodd" d="M19.259 7.425a1.45 1.45 0 0 1 2.051 0l1.168 1.168a1.45 1.45 0 0 1 0 2.051l-3.802 3.802 3.645 3.645a1.45 1.45 0 0 1 0 2.052l-2.336 2.335a1.45 1.45 0 0 1-2.051 0l-3.645-3.645-3.636 3.635-3.539.32.32-3.539 3.636-3.635-3.645-3.645a1.45 1.45 0 0 1 0-2.051L9.76 7.582a1.45 1.45 0 0 1 2.052 0l3.644 3.645 3.803-3.802Zm-7.837 12.508L9.97 18.48l8.215-8.214 1.451 1.451-8.214 8.215Zm-2.336-.568-.447.448-.145 1.595 1.596-.144.448-.448-1.452-1.45ZM20.426 8.31a.2.2 0 0 0-.283 0l-1.074 1.074 1.451 1.451 1.074-1.074a.2.2 0 0 0 0-.284L20.426 8.31Zm-8.472 6.421-3.645-3.645a.2.2 0 0 1 0-.283l2.335-2.336a.2.2 0 0 1 .284 0l1.404 1.405-.77.77a.516.516 0 1 0 .73.73l.77-.77 1.51 1.51-2.618 2.619Zm3.219 3.22 3.644 3.644a.2.2 0 0 0 .284 0l2.336-2.335a.2.2 0 0 0 0-.284l-1.369-1.369-.77.77a.516.516 0 1 1-.73-.729l.77-.77-1.546-1.547-2.62 2.62Z"/></svg>
