<svg width="30" height="30" viewBox="0 0 30 30" fill="none" xmlns="http://www.w3.org/2000/svg">
<g clip-path="url(#clip0_1_845)">
<g filter="url(#filter0_dddf_1_845)">
<circle cx="15" cy="15" r="7" fill="white"/>
</g>
<path d="M13.9636 7.625H20.3865C20.5709 7.62499 20.7462 7.62497 20.8938 7.63744C21.0551 7.65107 21.2384 7.68283 21.4206 7.77885C21.6762 7.91359 21.8801 8.12644 22.0067 8.38335C22.0959 8.56446 22.1254 8.74612 22.1382 8.9082C22.15 9.05813 22.15 9.23692 22.15 9.42901L22.15 21.75C22.15 22.0952 21.8702 22.375 21.525 22.375H12.825C12.4798 22.375 12.2 22.0952 12.2 21.75V21.7H8.47502C8.12984 21.7 7.85002 21.4202 7.85002 21.075L7.85 15.522C7.8499 15.4449 7.84975 15.3328 7.86399 15.2314C7.88298 15.0962 7.93259 14.9272 8.06803 14.7725C8.21418 14.6056 8.40385 14.5055 8.57853 14.4486L8.95261 14.3827L9.7258 14.3749L12.2 14.375L12.2 9.42931C12.2 9.23714 12.2 9.05819 12.2118 8.9082C12.2246 8.74612 12.2542 8.56446 12.3434 8.38335C12.4699 8.12644 12.6738 7.91359 12.9294 7.77885C13.1116 7.68283 13.2949 7.65107 13.4562 7.63744C13.6038 7.62497 13.7791 7.62499 13.9636 7.625Z" fill="#8FEDFF"/>
<path d="M14.375 11.25C14.375 10.9048 14.6548 10.625 15 10.625H15.725C16.0702 10.625 16.35 10.9048 16.35 11.25C16.35 11.5952 16.0702 11.875 15.725 11.875H15C14.6548 11.875 14.375 11.5952 14.375 11.25Z" fill="#272B32"/>
<path d="M18 11.25C18 10.9048 18.2798 10.625 18.625 10.625H19.35C19.6952 10.625 19.975 10.9048 19.975 11.25C19.975 11.5952 19.6952 11.875 19.35 11.875H18.625C18.2798 11.875 18 11.5952 18 11.25Z" fill="#272B32"/>
<path d="M14.375 13.5C14.375 13.1548 14.6548 12.875 15 12.875H15.725C16.0702 12.875 16.35 13.1548 16.35 13.5C16.35 13.8452 16.0702 14.125 15.725 14.125H15C14.6548 14.125 14.375 13.8452 14.375 13.5Z" fill="#272B32"/>
<path d="M18 13.5C18 13.1548 18.2798 12.875 18.625 12.875H19.35C19.6952 12.875 19.975 13.1548 19.975 13.5C19.975 13.8452 19.6952 14.125 19.35 14.125H18.625C18.2798 14.125 18 13.8452 18 13.5Z" fill="#272B32"/>
<path d="M14.375 15.75C14.375 15.4048 14.6548 15.125 15 15.125H15.725C16.0702 15.125 16.35 15.4048 16.35 15.75C16.35 16.0952 16.0702 16.375 15.725 16.375H15C14.6548 16.375 14.375 16.0952 14.375 15.75Z" fill="#272B32"/>
<path d="M18 15.75C18 15.4048 18.2798 15.125 18.625 15.125H19.35C19.6952 15.125 19.975 15.4048 19.975 15.75C19.975 16.0952 19.6952 16.375 19.35 16.375H18.625C18.2798 16.375 18 16.0952 18 15.75Z" fill="#272B32"/>
<path fill-rule="evenodd" clip-rule="evenodd" d="M13.9636 7.625H20.3865C20.5709 7.62499 20.7462 7.62497 20.8938 7.63744C21.0551 7.65107 21.2384 7.68283 21.4206 7.77885C21.6762 7.91359 21.8801 8.12644 22.0067 8.38335C22.0959 8.56446 22.1254 8.74612 22.1382 8.9082C22.15 9.0582 22.15 9.23709 22.15 9.42929L22.15 21.75C22.15 22.0952 21.8702 22.375 21.525 22.375H12.825C12.4798 22.375 12.2 22.0952 12.2 21.75V21.7H8.47502C8.12984 21.7 7.85002 21.4202 7.85002 21.075L7.85 15.522C7.8499 15.4449 7.84975 15.3328 7.86399 15.2314C7.88298 15.0962 7.93259 14.9272 8.06803 14.7725C8.21418 14.6056 8.40385 14.5055 8.57853 14.4486L8.95261 14.3827L9.7258 14.3749L12.2 14.375L12.2 9.42931C12.2 9.23712 12.2 9.0582 12.2118 8.9082C12.2246 8.74612 12.2542 8.56446 12.3434 8.38335C12.4699 8.12644 12.6738 7.91359 12.9294 7.77885C13.1116 7.68283 13.2949 7.65107 13.4562 7.63744C13.6038 7.62497 13.7791 7.62499 13.9636 7.625ZM12.2 19.2474V20.45H11.42V20.0624C11.42 19.9995 11.4185 19.9526 11.4171 19.9097C11.4151 19.846 11.4133 19.7908 11.4171 19.7041C11.4224 19.5847 11.4391 19.4911 11.4664 19.4224C11.4901 19.3627 11.5183 19.3291 11.5584 19.3036C11.6035 19.2749 11.7145 19.225 11.955 19.225C12.0593 19.225 12.1392 19.2344 12.2 19.2474ZM12.2 17.9858C12.1206 17.9786 12.0389 17.975 11.955 17.975C11.543 17.975 11.1827 18.0613 10.888 18.2486C10.5883 18.439 10.408 18.7011 10.3049 18.9604C10.1428 19.3678 10.1615 19.8367 10.1683 20.0091C10.1693 20.0328 10.17 20.0508 10.17 20.0624V20.45H9.10002V15.6271C9.17258 15.6251 9.2669 15.625 9.40302 15.625H12.2V17.9858ZM13.5028 8.89039C13.4902 8.89909 13.4777 8.91197 13.468 8.92948C13.466 8.93818 13.4615 8.96112 13.458 9.00662C13.4505 9.10136 13.45 9.23001 13.45 9.45001V21.125H15.1V19.5C15.1 18.3465 16.0092 17.375 17.175 17.375C18.3408 17.375 19.25 18.3465 19.25 19.5V21.125H20.9V9.45001C20.9 9.23001 20.8996 9.10136 20.8921 9.00662C20.8885 8.96112 20.8841 8.93818 20.8821 8.92948C20.8723 8.91197 20.8599 8.89909 20.8472 8.89039C20.8377 8.88855 20.8193 8.88561 20.7886 8.883C20.7001 8.87553 20.5787 8.87501 20.365 8.87501H13.985C13.7713 8.87501 13.6499 8.87553 13.5615 8.883C13.5307 8.8856 13.5123 8.88854 13.5028 8.89039ZM18 21.125V19.5C18 18.9966 17.6108 18.625 17.175 18.625C16.7392 18.625 16.35 18.9966 16.35 19.5V21.125H18Z" fill="#272B32"/>
</g>
<defs>
<filter id="filter0_dddf_1_845" x="-5.91304" y="-5.91304" width="36.2609" height="38.3478" filterUnits="userSpaceOnUse" color-interpolation-filters="sRGB">
<feFlood flood-opacity="0" result="BackgroundImageFix"/>
<feColorMatrix in="SourceAlpha" type="matrix" values="0 0 0 0 0 0 0 0 0 0 0 0 0 0 0 0 0 0 127 0" result="hardAlpha"/>
<feOffset dx="1.3913" dy="3.47826"/>
<feGaussianBlur stdDeviation="3.47826"/>
<feColorMatrix type="matrix" values="0 0 0 0 0.690938 0 0 0 0 0.765417 0 0 0 0 0.825 0 0 0 1 0"/>
<feBlend mode="normal" in2="BackgroundImageFix" result="effect1_dropShadow_1_845"/>
<feColorMatrix in="SourceAlpha" type="matrix" values="0 0 0 0 0 0 0 0 0 0 0 0 0 0 0 0 0 0 127 0" result="hardAlpha"/>
<feOffset dx="-3.47826" dy="-3.47826"/>
<feGaussianBlur stdDeviation="5.21739"/>
<feColorMatrix type="matrix" values="0 0 0 0 1 0 0 0 0 1 0 0 0 0 1 0 0 0 0.8 0"/>
<feBlend mode="normal" in2="effect1_dropShadow_1_845" result="effect2_dropShadow_1_845"/>
<feColorMatrix in="SourceAlpha" type="matrix" values="0 0 0 0 0 0 0 0 0 0 0 0 0 0 0 0 0 0 127 0" result="hardAlpha"/>
<feOffset dx="-4.86957" dy="-4.86957"/>
<feGaussianBlur stdDeviation="4.17391"/>
<feColorMatrix type="matrix" values="0 0 0 0 1 0 0 0 0 1 0 0 0 0 1 0 0 0 0.35 0"/>
<feBlend mode="normal" in2="effect2_dropShadow_1_845" result="effect3_dropShadow_1_845"/>
<feBlend mode="normal" in="SourceGraphic" in2="effect3_dropShadow_1_845" result="shape"/>
<feGaussianBlur stdDeviation="3.47826" result="effect4_foregroundBlur_1_845"/>
</filter>
<clipPath id="clip0_1_845">
<rect width="30" height="30" fill="white"/>
</clipPath>
</defs>
</svg>
