<svg width="30" height="30" xmlns="http://www.w3.org/2000/svg"><path fill-rule="evenodd" clip-rule="evenodd" d="M16.97 8.38a4.63 4.63 0 0 0-4.625 4.625c0 .1.025.375.025.375s.025.325.05.375c0 .01.004.038.01.07v.001c.007.045.015.1.015.129 0 0 .025.025 0 .05L8.82 17.63c-.1.1-.2.2-.275.325-.075.125-.125.25-.15.375-.025.15-.025.3-.025.425v1.675c0 .15.05.325.125.5.125.25.325.45.575.575.175.1.35.125.5.125h1.675c.125 0 .275 0 .425-.025.125-.025.25-.075.375-.15s.25-.2.325-.275l3.625-3.625h.05s.175.025.325.05c.2.025.4.05.625.05a4.63 4.63 0 0 0 4.625-4.625c0-2.55-2.1-4.65-4.65-4.65Zm0 8c-.15 0-.3 0-.45-.025a1.242 1.242 0 0 0-.148-.025h-.002c-.05-.006-.1-.012-.15-.025-.019 0-.044-.003-.075-.008h-.004a1.365 1.365 0 0 0-.196-.017c-.15 0-.3.05-.475.125-.15.075-.25.15-.325.225a.136.136 0 0 1-.027.02c-.014.009-.023.015-.023.03l-3.7 3.7H9.62v-1.775l3.75-3.75c.016-.024.037-.05.06-.08.051-.064.114-.143.165-.245.075-.175.1-.325.125-.475 0-.125 0-.225-.025-.275a.666.666 0 0 0-.014-.12.48.48 0 0 1-.011-.08v-.15l-.025-.15v-.275c0-1.875 1.5-3.375 3.375-3.375s3.375 1.5 3.375 3.375-1.575 3.375-3.425 3.375Zm0-4a.619.619 0 0 0-.625.625c0 .35.275.625.625.625s.625-.275.625-.625a.619.619 0 0 0-.625-.625Z"/></svg>
