<svg width="30" height="30" viewBox="0 0 30 30" fill="none" xmlns="http://www.w3.org/2000/svg">
<g clip-path="url(#clip0_6_112)">
<g filter="url(#filter0_dddf_6_112)">
<circle cx="15" cy="15" r="7" fill="white"/>
</g>
<path d="M19.2587 7.42488C19.8252 6.85837 20.7437 6.85837 21.3102 7.42488L22.4779 8.59251C23.0444 9.15902 23.0444 10.0775 22.4779 10.644L18.6756 14.4463L22.3205 18.0911C22.887 18.6576 22.887 19.5761 22.3205 20.1426L19.9852 22.4779C19.4187 23.0444 18.5002 23.0444 17.9337 22.4779L14.2888 18.8331L10.6535 22.4683L7.11437 22.7883L7.43437 19.2492L11.0696 15.6139L7.42489 11.9692C6.85837 11.4027 6.85837 10.4842 7.42489 9.91768L9.76017 7.58241C10.3267 7.0159 11.2452 7.01591 11.8117 7.58242L15.4564 11.2271L19.2587 7.42488Z" fill="white"/>
<path d="M18.1848 9.38269L20.5201 11.718L11.4215 20.8164L9.08623 18.4812L18.1848 9.38269Z" fill="white"/>
<path fill-rule="evenodd" clip-rule="evenodd" d="M19.2587 7.42488C19.8252 6.85837 20.7437 6.85837 21.3102 7.42488L22.4779 8.59251C23.0444 9.15902 23.0444 10.0775 22.4779 10.644L18.6756 14.4463L22.3205 18.0911C22.887 18.6576 22.887 19.5761 22.3205 20.1426L19.9852 22.4779C19.4187 23.0444 18.5002 23.0444 17.9337 22.4779L14.2888 18.8331L10.6535 22.4683L7.11437 22.7883L7.43437 19.2492L11.0696 15.6139L7.42489 11.9692C6.85837 11.4027 6.85837 10.4842 7.42489 9.91768L9.76017 7.58241C10.3267 7.0159 11.2452 7.01591 11.8117 7.58242L15.4564 11.2271L19.2587 7.42488ZM11.4216 19.9325L9.97016 18.4811L18.1848 10.2666L19.6362 11.718L11.4216 19.9325ZM9.08623 19.3651L8.63851 19.8128L8.49423 21.4084L10.0899 21.2642L10.5376 20.8164L9.08623 19.3651ZM20.4264 8.30876C20.348 8.23041 20.221 8.23041 20.1426 8.30876L19.0687 9.38266L20.5201 10.834L21.594 9.76015C21.6724 9.68179 21.6724 9.55475 21.594 9.4764L20.4264 8.30876ZM11.9535 14.73L8.30877 11.0853C8.23042 11.007 8.23041 10.8799 8.30877 10.8016L10.6441 8.46629C10.7224 8.38794 10.8495 8.38794 10.9278 8.4663L12.3324 9.87092L11.5622 10.6412C11.3607 10.8427 11.3607 11.1694 11.5622 11.3709C11.7637 11.5725 12.0904 11.5725 12.292 11.3709L13.0622 10.6007L14.5726 12.111L11.9535 14.73ZM15.1727 17.9492L18.8175 21.594C18.8959 21.6724 19.0229 21.6724 19.1013 21.594L21.4366 19.2587C21.5149 19.1804 21.5149 19.0534 21.4366 18.975L20.0681 17.6065L19.2978 18.3767C19.0963 18.5783 18.7696 18.5783 18.568 18.3767C18.3665 18.1752 18.3665 17.8485 18.568 17.647L19.3383 16.8767L17.7917 15.3302L15.1727 17.9492Z" fill="#272B32"/>
</g>
<defs>
<filter id="filter0_dddf_6_112" x="-5.91304" y="-5.91304" width="36.2609" height="38.3478" filterUnits="userSpaceOnUse" color-interpolation-filters="sRGB">
<feFlood flood-opacity="0" result="BackgroundImageFix"/>
<feColorMatrix in="SourceAlpha" type="matrix" values="0 0 0 0 0 0 0 0 0 0 0 0 0 0 0 0 0 0 127 0" result="hardAlpha"/>
<feOffset dx="1.3913" dy="3.47826"/>
<feGaussianBlur stdDeviation="3.47826"/>
<feColorMatrix type="matrix" values="0 0 0 0 0.690938 0 0 0 0 0.765417 0 0 0 0 0.825 0 0 0 1 0"/>
<feBlend mode="normal" in2="BackgroundImageFix" result="effect1_dropShadow_6_112"/>
<feColorMatrix in="SourceAlpha" type="matrix" values="0 0 0 0 0 0 0 0 0 0 0 0 0 0 0 0 0 0 127 0" result="hardAlpha"/>
<feOffset dx="-3.47826" dy="-3.47826"/>
<feGaussianBlur stdDeviation="5.21739"/>
<feColorMatrix type="matrix" values="0 0 0 0 1 0 0 0 0 1 0 0 0 0 1 0 0 0 0.8 0"/>
<feBlend mode="normal" in2="effect1_dropShadow_6_112" result="effect2_dropShadow_6_112"/>
<feColorMatrix in="SourceAlpha" type="matrix" values="0 0 0 0 0 0 0 0 0 0 0 0 0 0 0 0 0 0 127 0" result="hardAlpha"/>
<feOffset dx="-4.86957" dy="-4.86957"/>
<feGaussianBlur stdDeviation="4.17391"/>
<feColorMatrix type="matrix" values="0 0 0 0 1 0 0 0 0 1 0 0 0 0 1 0 0 0 0.35 0"/>
<feBlend mode="normal" in2="effect2_dropShadow_6_112" result="effect3_dropShadow_6_112"/>
<feBlend mode="normal" in="SourceGraphic" in2="effect3_dropShadow_6_112" result="shape"/>
<feGaussianBlur stdDeviation="3.47826" result="effect4_foregroundBlur_6_112"/>
</filter>
<clipPath id="clip0_6_112">
<rect width="30" height="30" fill="white"/>
</clipPath>
</defs>
</svg>
