<svg width="30" height="30" viewBox="0 0 30 30" fill="none" xmlns="http://www.w3.org/2000/svg">
<g clip-path="url(#clip0_1_874)">
<g filter="url(#filter0_dddf_1_874)">
<circle cx="15" cy="15" r="7" fill="white"/>
</g>
<path d="M16.97 8.38C14.42 8.38 12.345 10.455 12.345 13.005C12.345 13.105 12.37 13.38 12.37 13.38C12.37 13.38 12.395 13.705 12.42 13.755C12.42 13.78 12.445 13.905 12.445 13.955C12.445 13.955 12.47 13.98 12.445 14.005L12.42 14.03C12.395 14.055 12.345 14.105 12.245 14.205L8.82 17.63C8.72 17.73 8.62 17.83 8.545 17.955C8.47 18.08 8.42 18.205 8.395 18.33C8.37 18.48 8.37 18.63 8.37 18.755V19.955C8.37 20.13 8.37 20.28 8.37 20.43C8.37 20.58 8.42 20.755 8.495 20.93C8.62 21.18 8.82 21.38 9.07 21.505C9.245 21.605 9.42 21.63 9.57 21.63C9.695 21.63 9.87 21.63 10.045 21.63H11.245C11.37 21.63 11.52 21.63 11.67 21.605C11.795 21.58 11.92 21.53 12.045 21.455C12.17 21.38 12.295 21.255 12.37 21.18L15.795 17.755C15.87 17.68 15.82 17.73 15.895 17.655L15.995 17.555H16.045C16.045 17.555 16.22 17.58 16.37 17.605C16.57 17.63 16.77 17.655 16.995 17.655C19.545 17.655 21.62 15.58 21.62 13.03C21.62 10.48 19.52 8.38 16.97 8.38Z" fill="#8FEDFF"/>
<path d="M16.345 13.005C16.345 12.655 16.62 12.38 16.97 12.38C17.32 12.38 17.595 12.655 17.595 13.005C17.595 13.355 17.32 13.63 16.97 13.63C16.62 13.63 16.345 13.355 16.345 13.005Z" fill="#282C33"/>
<path fill-rule="evenodd" clip-rule="evenodd" d="M12.345 13.005C12.345 10.455 14.42 8.38 16.97 8.38C19.52 8.38 21.62 10.48 21.62 13.03C21.62 15.58 19.545 17.655 16.995 17.655C16.77 17.655 16.57 17.63 16.3701 17.605C16.2201 17.58 16.045 17.555 16.045 17.555H15.995L12.37 21.18C12.295 21.255 12.17 21.38 12.045 21.455C11.92 21.53 11.795 21.58 11.67 21.605C11.52 21.63 11.37 21.63 11.245 21.63H9.57C9.42 21.63 9.245 21.605 9.07 21.505C8.82 21.38 8.62 21.18 8.495 20.93C8.42 20.755 8.37 20.58 8.37 20.43V18.755C8.37 18.63 8.37 18.48 8.395 18.33C8.42 18.205 8.47 18.08 8.545 17.955C8.61999 17.83 8.71998 17.73 8.81997 17.63L12.445 14.005C12.47 13.98 12.445 13.955 12.445 13.955C12.445 13.9257 12.4364 13.8707 12.4293 13.8251C12.4243 13.7929 12.42 13.7654 12.42 13.755C12.395 13.705 12.37 13.38 12.37 13.38C12.37 13.38 12.345 13.105 12.345 13.005ZM16.52 16.355C16.67 16.38 16.82 16.38 16.97 16.38C18.82 16.38 20.395 14.88 20.395 13.005C20.395 11.13 18.895 9.63 17.02 9.63C15.145 9.63 13.645 11.13 13.645 13.005V13.28L13.67 13.43V13.58C13.67 13.6025 13.675 13.63 13.6806 13.6603C13.6874 13.6974 13.695 13.7387 13.695 13.78C13.72 13.83 13.72 13.93 13.72 14.0549C13.695 14.2049 13.67 14.355 13.595 14.53C13.5438 14.6323 13.481 14.7114 13.4304 14.7751C13.4068 14.8048 13.3859 14.8312 13.37 14.855L9.62 18.605V20.38H11.395L15.095 16.68C15.095 16.6646 15.1045 16.6587 15.1177 16.6505C15.1259 16.6455 15.1354 16.6396 15.145 16.63C15.22 16.555 15.32 16.48 15.47 16.405C15.645 16.33 15.795 16.28 15.945 16.28C16.0216 16.28 16.0888 16.2894 16.1408 16.2967C16.1737 16.3012 16.2006 16.305 16.22 16.305C16.27 16.3175 16.32 16.3238 16.37 16.33C16.42 16.3363 16.47 16.3425 16.52 16.355Z" fill="#282C33"/>
</g>
<defs>
<filter id="filter0_dddf_1_874" x="-5.91304" y="-5.91304" width="36.2609" height="38.3478" filterUnits="userSpaceOnUse" color-interpolation-filters="sRGB">
<feFlood flood-opacity="0" result="BackgroundImageFix"/>
<feColorMatrix in="SourceAlpha" type="matrix" values="0 0 0 0 0 0 0 0 0 0 0 0 0 0 0 0 0 0 127 0" result="hardAlpha"/>
<feOffset dx="1.3913" dy="3.47826"/>
<feGaussianBlur stdDeviation="3.47826"/>
<feColorMatrix type="matrix" values="0 0 0 0 0.690938 0 0 0 0 0.765417 0 0 0 0 0.825 0 0 0 1 0"/>
<feBlend mode="normal" in2="BackgroundImageFix" result="effect1_dropShadow_1_874"/>
<feColorMatrix in="SourceAlpha" type="matrix" values="0 0 0 0 0 0 0 0 0 0 0 0 0 0 0 0 0 0 127 0" result="hardAlpha"/>
<feOffset dx="-3.47826" dy="-3.47826"/>
<feGaussianBlur stdDeviation="5.21739"/>
<feColorMatrix type="matrix" values="0 0 0 0 1 0 0 0 0 1 0 0 0 0 1 0 0 0 0.8 0"/>
<feBlend mode="normal" in2="effect1_dropShadow_1_874" result="effect2_dropShadow_1_874"/>
<feColorMatrix in="SourceAlpha" type="matrix" values="0 0 0 0 0 0 0 0 0 0 0 0 0 0 0 0 0 0 127 0" result="hardAlpha"/>
<feOffset dx="-4.86957" dy="-4.86957"/>
<feGaussianBlur stdDeviation="4.17391"/>
<feColorMatrix type="matrix" values="0 0 0 0 1 0 0 0 0 1 0 0 0 0 1 0 0 0 0.35 0"/>
<feBlend mode="normal" in2="effect2_dropShadow_1_874" result="effect3_dropShadow_1_874"/>
<feBlend mode="normal" in="SourceGraphic" in2="effect3_dropShadow_1_874" result="shape"/>
<feGaussianBlur stdDeviation="3.47826" result="effect4_foregroundBlur_1_874"/>
</filter>
<clipPath id="clip0_1_874">
<rect width="30" height="30" fill="white"/>
</clipPath>
</defs>
</svg>
