<svg width="30" height="30" viewBox="0 0 30 30" fill="none" xmlns="http://www.w3.org/2000/svg">
<g clip-path="url(#clip0_6_119)">
<g filter="url(#filter0_dddf_6_119)">
<circle cx="15" cy="15" r="7" fill="white"/>
</g>
<path d="M20.625 13.3452V18.1616C20.625 19.4217 20.625 20.0518 20.3798 20.5331C20.1641 20.9564 19.8198 21.3006 19.3965 21.5164C18.9152 21.7616 18.2851 21.7616 17.025 21.7616H16.875H13.875H13.725C12.4649 21.7616 11.8348 21.7616 11.3535 21.5164C10.9302 21.3006 10.586 20.9564 10.3702 20.5331C10.125 20.0518 10.125 19.4217 10.125 18.1616V13.3447L12.6984 10.485C13.625 9.45526 14.0883 8.9404 14.634 8.75027C15.1132 8.58328 15.6349 8.58324 16.1142 8.75016C16.66 8.94021 17.1233 9.455 18.0501 10.4846L20.625 13.3452Z" fill="white"/>
<path fill-rule="evenodd" clip-rule="evenodd" d="M14.4283 8.16007C15.0407 7.94669 15.7073 7.94664 16.3198 8.15993C16.711 8.29617 17.0382 8.53858 17.3667 8.84658C17.6861 9.14597 18.0484 9.54852 18.4959 10.0457L22.5895 14.5935C22.8205 14.85 22.7997 15.2452 22.5431 15.4761C22.2866 15.7071 21.8914 15.6863 21.6605 15.4297L21.25 14.9737V18.188C21.25 18.7957 21.25 19.2895 21.2173 19.6903C21.1835 20.1041 21.1116 20.4734 20.9366 20.8168C20.661 21.3578 20.2212 21.7976 19.6802 22.0732C19.3368 22.2482 18.9675 22.3201 18.5537 22.3539C18.1529 22.3866 17.6591 22.3866 17.0515 22.3866H13.6986C13.0909 22.3866 12.5971 22.3866 12.1963 22.3539C11.7825 22.3201 11.4132 22.2482 11.0698 22.0732C10.5288 21.7976 10.089 21.3578 9.81336 20.8168C9.63837 20.4734 9.56655 20.1041 9.53274 19.6903C9.49999 19.2895 9.5 18.7956 9.50001 18.188L9.50001 14.9736L9.0896 15.4297C8.8587 15.6862 8.46352 15.7071 8.20694 15.4762C7.95035 15.2453 7.92952 14.8501 8.16042 14.5935L12.2525 10.0461C12.6999 9.54891 13.0622 9.14631 13.3815 8.84687C13.71 8.53882 14.0372 8.29636 14.4283 8.16007ZM10.75 13.5845V18.1616C10.75 18.802 10.7505 19.2447 10.7786 19.5885C10.8061 19.925 10.8569 20.1115 10.9271 20.2493C11.0829 20.5551 11.3315 20.8037 11.6373 20.9595C11.7751 21.0297 11.9616 21.0805 12.2981 21.108C12.5496 21.1286 12.854 21.1343 13.25 21.136V17.2616C13.25 16.9164 13.5298 16.6366 13.875 16.6366H16.875C17.2202 16.6366 17.5 16.9164 17.5 17.2616V21.136C17.896 21.1343 18.2004 21.1286 18.4519 21.108C18.7884 21.0805 18.9749 21.0297 19.1127 20.9595C19.4185 20.8037 19.6671 20.5551 19.8229 20.2493C19.8931 20.1115 19.9439 19.925 19.9714 19.5885C19.9995 19.2447 20 18.802 20 18.1616V13.585L17.5856 10.9027C17.1149 10.3799 16.7878 10.0173 16.5118 9.75852C16.2406 9.50422 16.0632 9.39421 15.9087 9.3404C15.5625 9.21984 15.1857 9.21987 14.8396 9.34048C14.6851 9.39431 14.5077 9.50435 14.2365 9.75868C13.9605 10.0175 13.6335 10.3801 13.163 10.903L10.75 13.5845ZM16.25 21.1366V17.8866H14.5V21.1366H16.25Z" fill="#272B32"/>
</g>
<defs>
<filter id="filter0_dddf_6_119" x="-5.91304" y="-5.91304" width="36.2609" height="38.3478" filterUnits="userSpaceOnUse" color-interpolation-filters="sRGB">
<feFlood flood-opacity="0" result="BackgroundImageFix"/>
<feColorMatrix in="SourceAlpha" type="matrix" values="0 0 0 0 0 0 0 0 0 0 0 0 0 0 0 0 0 0 127 0" result="hardAlpha"/>
<feOffset dx="1.3913" dy="3.47826"/>
<feGaussianBlur stdDeviation="3.47826"/>
<feColorMatrix type="matrix" values="0 0 0 0 0.690938 0 0 0 0 0.765417 0 0 0 0 0.825 0 0 0 1 0"/>
<feBlend mode="normal" in2="BackgroundImageFix" result="effect1_dropShadow_6_119"/>
<feColorMatrix in="SourceAlpha" type="matrix" values="0 0 0 0 0 0 0 0 0 0 0 0 0 0 0 0 0 0 127 0" result="hardAlpha"/>
<feOffset dx="-3.47826" dy="-3.47826"/>
<feGaussianBlur stdDeviation="5.21739"/>
<feColorMatrix type="matrix" values="0 0 0 0 1 0 0 0 0 1 0 0 0 0 1 0 0 0 0.8 0"/>
<feBlend mode="normal" in2="effect1_dropShadow_6_119" result="effect2_dropShadow_6_119"/>
<feColorMatrix in="SourceAlpha" type="matrix" values="0 0 0 0 0 0 0 0 0 0 0 0 0 0 0 0 0 0 127 0" result="hardAlpha"/>
<feOffset dx="-4.86957" dy="-4.86957"/>
<feGaussianBlur stdDeviation="4.17391"/>
<feColorMatrix type="matrix" values="0 0 0 0 1 0 0 0 0 1 0 0 0 0 1 0 0 0 0.35 0"/>
<feBlend mode="normal" in2="effect2_dropShadow_6_119" result="effect3_dropShadow_6_119"/>
<feBlend mode="normal" in="SourceGraphic" in2="effect3_dropShadow_6_119" result="shape"/>
<feGaussianBlur stdDeviation="3.47826" result="effect4_foregroundBlur_6_119"/>
</filter>
<clipPath id="clip0_6_119">
<rect width="30" height="30" fill="white"/>
</clipPath>
</defs>
</svg>
