<svg width="30" height="30" xmlns="http://www.w3.org/2000/svg"><path fill-rule="evenodd" clip-rule="evenodd" d="M9.228 7.64a.625.625 0 0 1 .09.88c-1.165 1.433-1.537 3.364-1.097 5.12a.625.625 0 0 1-1.213.304c-.53-2.114-.09-4.456 1.34-6.213a.625.625 0 0 1 .88-.09Zm10.544 0a.625.625 0 0 1 .88.09c1.43 1.758 1.87 4.1 1.34 6.214a.625.625 0 0 1-1.213-.304c.44-1.756.068-3.687-1.097-5.12a.625.625 0 0 1 .09-.88Zm-8.42 2.124c.268.217.31.61.092.88a2.543 2.543 0 0 0-.479 2.274.625.625 0 1 1-1.205.33 3.792 3.792 0 0 1 .713-3.391.625.625 0 0 1 .878-.093Zm6.296 0a.625.625 0 0 1 .88.093 3.792 3.792 0 0 1 .712 3.392.625.625 0 1 1-1.205-.33 2.543 2.543 0 0 0-.48-2.276.625.625 0 0 1 .093-.879ZM14.5 11.75c.345 0 .625.28.625.625v2.917h3.508c.376 0 .695 0 .957.021.275.022.54.072.795.201.384.196.697.508.892.892.13.255.18.521.202.796.021.262.021.581.021.957v.474c0 .376 0 .695-.021.957a2.08 2.08 0 0 1-.201.795 2.042 2.042 0 0 1-.893.892 2.08 2.08 0 0 1-.795.202c-.262.021-.581.021-.957.021h-8.266c-.376 0-.695 0-.957-.021a2.08 2.08 0 0 1-.795-.201 2.042 2.042 0 0 1-.892-.893 2.081 2.081 0 0 1-.202-.795c-.021-.262-.021-.581-.021-.957v-.474c0-.376 0-.695.021-.957.023-.275.072-.541.202-.796.195-.384.508-.696.892-.892.254-.13.52-.178.795-.201.262-.021.581-.021.957-.021h3.508v-2.917c0-.345.28-.625.625-.625Zm-4.108 4.792c-.407 0-.675 0-.88.017-.197.016-.281.044-.33.069a.792.792 0 0 0-.346.346c-.025.049-.053.132-.069.33-.017.205-.017.472-.017.88v.424c0 .407 0 .675.017.88.016.198.044.281.07.33.075.149.196.27.345.346.049.024.133.053.33.069.205.017.473.017.88.017h8.216c.407 0 .675 0 .88-.017.198-.016.281-.044.33-.07a.791.791 0 0 0 .346-.345c.024-.049.053-.133.069-.33.017-.205.017-.473.017-.88v-.425c0-.407 0-.674-.017-.88-.016-.197-.044-.28-.07-.33a.792.792 0 0 0-.345-.345c-.049-.025-.133-.053-.33-.07a12.128 12.128 0 0 0-.88-.016h-8.216Zm-.413 1.854c0-.345.28-.625.625-.625h2.834a.625.625 0 0 1 0 1.25h-2.834a.625.625 0 0 1-.625-.625Z"/></svg>
