<svg width="14" height="15" viewBox="0 0 14 15" fill="none" xmlns="http://www.w3.org/2000/svg">
<path d="M9.33333 8.025V10.475C9.33333 12.5167 8.51666 13.3333 6.475 13.3333H4.025C1.98333 13.3333 1.16666 12.5167 1.16666 10.475V8.025C1.16666 5.98334 1.98333 5.16667 4.025 5.16667H6.475C8.51666 5.16667 9.33333 5.98334 9.33333 8.025Z" stroke="#292D32" stroke-width="1.2" stroke-linecap="round" stroke-linejoin="round"/>
<path d="M12.8333 4.52501V6.97501C12.8333 9.01667 12.0167 9.83334 9.975 9.83334H9.33333V8.025C9.33333 5.98334 8.51666 5.16667 6.475 5.16667H4.66666V4.52501C4.66666 2.48334 5.48333 1.66667 7.525 1.66667H9.975C12.0167 1.66667 12.8333 2.48334 12.8333 4.52501Z" stroke="#292D32" stroke-width="1.2" stroke-linecap="round" stroke-linejoin="round"/>
</svg>
