<svg width="583" height="217" viewBox="0 0 583 217" fill="none" xmlns="http://www.w3.org/2000/svg">
<path d="M102.354 214H147.324V176.5H181.309V135.191H147.324V4.9668H92.2461L0.400391 141.93V176.5H102.354V214ZM48.4473 135.191L102.354 54.1855V135.191H48.4473ZM292.783 216.344C346.25 216.344 375.693 180.748 375.693 114.537V102.672C375.693 36.4609 346.25 0.865234 292.783 0.865234C239.463 0.865234 210.166 36.4609 210.166 102.672V114.537C210.166 180.748 239.463 216.344 292.783 216.344ZM255.723 115.416V101.793C255.723 59.8984 267.881 42.0273 292.783 42.0273C317.832 42.0273 329.99 59.8984 329.99 101.793V115.416C329.99 157.311 317.832 175.182 292.783 175.182C267.881 175.182 255.723 157.311 255.723 115.416ZM503.428 214H548.398V176.5H582.383V135.191H548.398V4.9668H493.32L401.475 141.93V176.5H503.428V214ZM449.521 135.191L503.428 54.1855V135.191H449.521Z" fill="#C1DBEA"/>
</svg>
