<svg xmlns="http://www.w3.org/2000/svg" width="400" height="240" fill="none"><path fill="url(#a)" d="M347.562 188.618v-24.906H279.85v-22.959l60.999-90.964h36.58v86.488H400v27.435h-22.571v24.906h-29.867Zm-35.801-52.341h35.801v-53.8l-35.801 53.8Z"/><path fill="url(#b)" d="M67.712 188.618v-24.906H0v-22.959l61-90.964h36.58v86.488h22.57v27.435H97.58v24.906H67.711ZM31.91 136.277h35.802v-53.8l-35.802 53.8Z"/><path fill="#E5E6E9" d="M195.093 226c58.726 0 106.333-47.607 106.333-106.333 0-58.727-47.607-106.334-106.333-106.334S88.76 60.94 88.76 119.667C88.76 178.393 136.367 226 195.093 226Z"/><path fill="#C7CCD3" d="m301.193 126.68-64.58-59.24-86.88 101.727 60.74 55.72c49.167-7.127 87.44-47.894 90.72-98.207Z" opacity=".5"/><path fill="#0061FF" d="M274.733 222.093c10.656 0 19.293-8.638 19.293-19.293s-8.637-19.293-19.293-19.293c-10.655 0-19.293 8.638-19.293 19.293s8.638 19.293 19.293 19.293Z"/><path fill="#98A2B3" d="M288.446 27.847a8.334 8.334 0 1 0 0-16.667 8.334 8.334 0 0 0 0 16.667Z"/><path fill="#FF7C10" d="M94.58 157.007c7.857 0 14.226-6.37 14.226-14.227s-6.369-14.227-14.226-14.227c-7.857 0-14.227 6.37-14.227 14.227s6.37 14.227 14.227 14.227Z"/><path fill="#D5DAE1" d="M166.366 143.167a4.307 4.307 0 1 0 0-8.614 4.307 4.307 0 0 0 0 8.614Z"/><path fill="#98A2B3" d="M115.093 224.887a6.28 6.28 0 1 0 0-12.56 6.28 6.28 0 0 0 0 12.56Z"/><path fill="#D5DAE1" d="M104.846 34a6.153 6.153 0 1 0 .001-12.307A6.153 6.153 0 0 0 104.846 34Z"/><path fill="#fff" d="M195.093 186.987c37.18 0 67.32-30.141 67.32-67.32 0-37.18-30.14-67.32-67.32-67.32-37.18 0-67.32 30.14-67.32 67.32 0 37.179 30.14 67.32 67.32 67.32Z"/><path fill="#000" d="M195.093 53.147c36.68 0 66.52 29.84 66.52 66.52 0 36.68-29.84 66.52-66.52 66.52-36.68 0-66.52-29.84-66.52-66.52 0-36.68 29.84-66.52 66.52-66.52Zm0-1.6c-37.62 0-68.12 30.5-68.12 68.12 0 37.62 30.5 68.12 68.12 68.12 37.62 0 68.12-30.5 68.12-68.12 0-37.62-30.5-68.12-68.12-68.12Z"/><path fill="url(#c)" d="M254.446 126.667 225.78 99l-52.334 52 31.334 32.333 49.666-56.666Z"/><path fill="#0061FF" d="M225.82 139.293 206.526 120l19.294-19.293c.52-.52.52-1.367 0-1.887l-9.86-9.86a1.336 1.336 0 0 0-1.887 0l-19.293 19.293-19.294-19.293a1.335 1.335 0 0 0-1.886 0l-9.86 9.86c-.52.52-.52 1.367 0 1.887L183.033 120l-19.293 19.293c-.52.52-.52 1.367 0 1.887l9.86 9.86c.52.52 1.366.52 1.886 0l19.294-19.293 19.293 19.293c.52.52 1.367.52 1.887 0l9.86-9.86c.52-.52.52-1.367 0-1.887Z"/><defs><linearGradient id="a" x1="348.276" x2="289.31" y1="130.69" y2="155.517" gradientUnits="userSpaceOnUse"><stop stop-color="#B9DAED"/><stop offset="1" stop-color="#89B2C9"/></linearGradient><linearGradient id="b" x1="63.448" x2="103.448" y1="128.276" y2="144.828" gradientUnits="userSpaceOnUse"><stop stop-color="#B9DAED"/><stop offset="1" stop-color="#89B2C9"/></linearGradient><linearGradient id="c" x1="199.446" x2="235.78" y1="126" y2="163.667" gradientUnits="userSpaceOnUse"><stop stop-color="#D7E4F7"/><stop offset="1" stop-color="#fff" stop-opacity="0"/></linearGradient></defs></svg>