<svg width="200" height="200" viewBox="0 0 140 140" fill="none" xmlns="http://www.w3.org/2000/svg">
	<path d="M70.0001 115.469C95.1119 115.469 115.469 95.1119 115.469 70.0001C115.469 44.8884 95.1119 24.5312 70.0001 24.5312C44.8884 24.5312 24.5312 44.8884 24.5312 70.0001C24.5312 95.1119 44.8884 115.469 70.0001 115.469Z" fill="#EFEFF4"/>
	<path d="M66.4102 72.7607V132.082" stroke="black" stroke-width="0.933333" stroke-linecap="round" stroke-linejoin="round"/>
	<path d="M47.7676 132.082H79.3259" stroke="black" stroke-width="0.933333" stroke-linecap="round" stroke-linejoin="round"/>
	<path d="M22.3299 125.969C29.6065 125.969 35.5054 120.07 35.5054 112.794C35.5054 105.517 29.6065 99.6182 22.3299 99.6182C15.0532 99.6182 9.1543 105.517 9.1543 112.794C9.1543 120.07 15.0532 125.969 22.3299 125.969Z" fill="#0061FF"/>
	<path d="M123.876 27.2457C128.55 27.2457 132.339 23.4571 132.339 18.7835C132.339 14.11 128.55 10.3213 123.876 10.3213C119.203 10.3213 115.414 14.11 115.414 18.7835C115.414 23.4571 119.203 27.2457 123.876 27.2457Z" fill="#FF7C10"/>
	<path d="M28.5404 26.0095C31.7599 26.0095 34.3698 23.3995 34.3698 20.18C34.3698 16.9605 31.7599 14.3506 28.5404 14.3506C25.3209 14.3506 22.7109 16.9605 22.7109 20.18C22.7109 23.3995 25.3209 26.0095 28.5404 26.0095Z" fill="#98A2B3"/>
	<path d="M96.8059 24.2935C97.7423 24.2935 98.5015 23.5343 98.5015 22.5979C98.5015 21.6615 97.7423 20.9023 96.8059 20.9023C95.8695 20.9023 95.1104 21.6615 95.1104 22.5979C95.1104 23.5343 95.8695 24.2935 96.8059 24.2935Z" fill="#D5DAE1"/>
	<path d="M52.8462 90.4552C54.1091 90.4552 55.1329 89.4314 55.1329 88.1685C55.1329 86.9056 54.1091 85.8818 52.8462 85.8818C51.5833 85.8818 50.5596 86.9056 50.5596 88.1685C50.5596 89.4314 51.5833 90.4552 52.8462 90.4552Z" fill="#D5DAE1"/>
	<path d="M121.492 108.516C123.649 108.516 125.397 106.768 125.397 104.611C125.397 102.455 123.649 100.707 121.492 100.707C119.336 100.707 117.588 102.455 117.588 104.611C117.588 106.768 119.336 108.516 121.492 108.516Z" fill="#D5DAE1"/>
	<path d="M64.7383 8.49707L73.3599 54.3743" stroke="black" stroke-width="0.933333" stroke-linecap="round" stroke-linejoin="round"/>
	<path d="M55.8094 15.4042C55.6499 15.3576 55.6111 15.2253 55.6033 15.1709C55.5955 15.1164 55.5877 14.9764 55.7199 14.8792L64.4738 8.44701C64.5283 8.40812 64.5866 8.38867 64.6488 8.38867C64.7733 8.38867 64.9172 8.47423 64.9444 8.63756L66.6711 18.6903L55.8094 15.4081V15.4042Z" fill="white"/>
	<path d="M64.5324 8.9796L65.2635 13.2418L66.0841 18.0213L56.2646 15.054L64.5285 8.9796M64.6452 7.91793C64.4896 7.91793 64.3341 7.9646 64.1941 8.06571L55.4402 14.4979C54.9308 14.8713 55.0669 15.6646 55.6735 15.8474L67.2585 19.3474L66.1813 13.0785L65.4035 8.54793C65.3374 8.15904 64.9991 7.91016 64.6452 7.91016V7.91793Z" fill="black"/>
	<path d="M92.2792 33.7637H91.2876C83.2506 33.7637 76.7354 40.2789 76.7354 48.3159V99.0037C76.7354 107.041 83.2506 113.556 91.2876 113.556H92.2792C100.316 113.556 106.831 107.041 106.831 99.0037V48.3159C106.831 40.2789 100.316 33.7637 92.2792 33.7637Z" fill="white"/>
	<path d="M92.283 34.2302C100.049 34.2302 106.369 40.5497 106.369 48.3158V99.0035C106.369 106.77 100.049 113.089 92.283 113.089H91.2874C83.5213 113.089 77.2019 106.77 77.2019 99.0035V48.3158C77.2019 40.5497 83.5213 34.2302 91.2874 34.2302H92.283ZM92.283 33.2969H91.2874C82.9924 33.2969 76.2686 40.0208 76.2686 48.3158V99.0035C76.2686 107.299 82.9924 114.022 91.2874 114.022H92.283C100.578 114.022 107.302 107.299 107.302 99.0035V48.3158C107.302 40.0208 100.578 33.2969 92.283 33.2969Z" fill="black"/>
	<path d="M91.7854 33.2968H48.4943C39.8182 33.2968 32.7832 40.3318 32.7832 49.008V71.688C32.7832 73.4613 34.2221 74.9002 35.9954 74.9002H76.2688V48.8057C76.2688 40.2385 83.2143 33.2891 91.7854 33.2891V33.2968Z" fill="#0061FF"/>
	<path d="M91.2875 33.2969H92.283C100.57 33.2969 107.302 40.0247 107.302 48.3158V74.908H76.2725V48.3158C76.2725 40.0285 83.0002 33.2969 91.2913 33.2969H91.2875Z" fill="black"/>
	<path d="M129.228 42.2949H96.9579C95.4974 42.2949 94.3135 43.4789 94.3135 44.9394V65.5777C94.3135 67.0382 95.4974 68.2221 96.9579 68.2221H129.228C130.688 68.2221 131.872 67.0382 131.872 65.5777V44.9394C131.872 43.4789 130.688 42.2949 129.228 42.2949Z" fill="#EFEFF4"/>
	<path d="M129.228 42.7615C130.429 42.7615 131.406 43.7376 131.406 44.9392V65.5776C131.406 66.7792 130.429 67.7553 129.228 67.7553H96.9578C95.7561 67.7553 94.78 66.7792 94.78 65.5776V44.9392C94.78 43.7376 95.7561 42.7615 96.9578 42.7615H129.228ZM129.228 41.8281H96.9578C95.2389 41.8281 93.8467 43.2203 93.8467 44.9392V65.5776C93.8467 67.2965 95.2389 68.6887 96.9578 68.6887H129.228C130.947 68.6887 132.339 67.2965 132.339 65.5776V44.9392C132.339 43.2203 130.947 41.8281 129.228 41.8281Z" fill="black"/>
	<path d="M113.092 57.7455C112.377 57.7455 111.7 57.4733 111.179 56.9794L96.1641 42.5166C96.518 42.3727 96.8991 42.2949 97.288 42.2949H128.893C129.309 42.2949 129.714 42.3805 130.087 42.5477L115.002 56.9794C114.485 57.4733 113.804 57.7455 113.092 57.7455Z" fill="white"/>
	<path d="M128.893 42.7615C128.987 42.7615 129.08 42.7653 129.169 42.777L114.679 56.6409C114.248 57.0531 113.684 57.2787 113.089 57.2787C112.494 57.2787 111.93 57.0531 111.502 56.6448L97.0978 42.7692C97.16 42.7653 97.2222 42.7615 97.2884 42.7615H128.893ZM128.893 41.8281H97.2884C96.5806 41.8281 95.9234 42.042 95.3789 42.4076L110.857 57.3176C111.483 57.9126 112.288 58.212 113.089 58.212C113.89 58.212 114.699 57.9126 115.321 57.3176L130.861 42.4503C130.301 42.0615 129.624 41.8281 128.889 41.8281H128.893Z" fill="black"/>
	<path d="M94.5777 56.3193H83.1094" stroke="#D5DAE1" stroke-width="0.7" stroke-miterlimit="10"/>
	<path d="M93.8465 61.1758H89.4326" stroke="#D5DAE1" stroke-width="0.777778" stroke-miterlimit="10"/>
	<path d="M93.8466 51.6836H79.835" stroke="#D5DAE1" stroke-width="0.933333" stroke-miterlimit="10"/>
	<path d="M91.6375 45.7217H85.0225" stroke="#D5DAE1" stroke-width="0.933333" stroke-miterlimit="10"/>
	<path d="M93.8464 65.5508H77.3848" stroke="#D5DAE1" stroke-width="0.933333" stroke-miterlimit="10"/>
	<path d="M76.2688 60.1299H32.7832" stroke="#D5DAE1" stroke-width="0.7" stroke-miterlimit="10"/>
	<path d="M102.951 56.3193H93.8467" stroke="#B4BDC5" stroke-width="0.7" stroke-miterlimit="10"/>
	<path d="M93.8467 51.6836H110.328" stroke="#B4BDC5" stroke-width="0.933333" stroke-miterlimit="10"/>
	<path d="M93.8467 65.5508H99.6606" stroke="#B4BDC5" stroke-width="0.933333" stroke-miterlimit="10"/>
</svg>
