<svg width="200" height="200" viewBox="0 0 140 140" fill="none" xmlns="http://www.w3.org/2000/svg">
	<g clip-path="url(#clip0_254_2686)">
		<path d="M70.0001 115.469C95.1119 115.469 115.469 95.1119 115.469 70.0001C115.469 44.8884 95.1119 24.5312 70.0001 24.5312C44.8884 24.5312 24.5312 44.8884 24.5312 70.0001C24.5312 95.1119 44.8884 115.469 70.0001 115.469Z" fill="#EFEFF4"/>
		<path d="M36.8896 112.563C36.8896 115.857 51.7141 118.533 69.9996 118.533C88.2852 118.533 103.11 115.861 103.11 112.563V105.163H36.8896V112.563Z" fill="#0061FF"/>
		<path d="M69.9996 111.136C88.2858 111.136 103.11 108.464 103.11 105.167C103.11 101.87 88.2858 99.1973 69.9996 99.1973C51.7135 99.1973 36.8896 101.87 36.8896 105.167C36.8896 108.464 51.7135 111.136 69.9996 111.136Z" fill="black"/>
		<path d="M66.6206 75.9189C52.7022 78.1161 42.3461 90.0006 42.3461 104.537L42.3539 104.724C48.2261 106.622 58.2361 107.302 70.0039 107.302C81.7717 107.302 91.6183 106.622 97.4906 104.728L97.7278 104.712C97.7278 90.1756 87.3095 78.1161 73.3911 75.9189C72.7533 75.8178 72.2906 75.2656 72.2906 74.62C72.2906 73.9745 72.7572 73.4222 73.395 73.3211C87.7722 71.0539 98.6572 58.2789 97.9261 43.1006L97.6033 42.7428C91.6728 40.9111 81.5306 39.7056 70.0078 39.7056C58.485 39.7056 48.5139 40.8917 42.56 42.6961L42.0895 43.1006C41.3583 58.275 52.2433 71.05 66.6206 73.3211C67.2583 73.4222 67.725 73.9745 67.725 74.62C67.725 75.2656 67.2583 75.8178 66.6245 75.9189H66.6206Z" fill="white"/>
		<path d="M97.3852 104.25C96.4441 96.744 77.5985 91.7817 69.9996 91.7817C64.948 91.7817 43.388 97.0823 42.3419 104.537C42.3069 105.02 58.368 107.302 69.9996 107.302C81.6313 107.302 97.4124 104.666 97.3852 104.25Z" fill="#CED5DD"/>
		<path d="M51.9668 65.1933C51.9668 65.1933 58.6946 73.1578 69.9996 73.1578C80.2896 73.1578 88.2501 65.1933 88.2501 65.1933L81.8335 62.685C74.2307 59.7139 65.784 59.7294 58.1929 62.7317L51.9668 65.1933Z" fill="#CED5DD"/>
		<path d="M64.9482 71.3572C64.9482 71.3572 69.1288 70.3189 68.1138 81.725C67.5382 88.1845 67.8416 91.9606 64.9482 92.5711L69.8988 98.5289L75.6932 92.4622C72.9127 91.7856 72.586 88.1883 72.0105 81.725C70.9955 70.3228 75.176 71.3572 75.176 71.3572L70.0038 67.5967L64.9521 71.3572H64.9482Z" fill="#CED5DD"/>
		<path d="M70.0031 40.6428C80.8414 40.6428 90.8903 41.7239 97.0036 43.5439C97.4975 57.8084 87.3475 70.1789 73.2425 72.4034C72.1459 72.5745 71.3525 73.5117 71.3525 74.6239C71.3525 75.7361 72.1459 76.6695 73.2425 76.8445C79.807 77.8789 85.8231 81.235 90.1864 86.2906C94.4525 91.2334 96.8636 97.5139 97.0153 104.039C90.9059 105.863 80.8959 106.944 70.0031 106.944C59.1103 106.944 49.1042 105.863 42.9909 104.039C43.1425 97.5139 45.5536 91.2373 49.8198 86.2906C54.1831 81.235 60.1992 77.8789 66.7636 76.8445C67.8603 76.6734 68.6536 75.74 68.6536 74.6239C68.6536 73.5078 67.8564 72.5784 66.7636 72.4034C52.6625 70.1789 42.5125 57.8123 43.0025 43.5478L43.0142 43.5361C49.1275 41.7239 59.192 40.6428 70.0031 40.6428ZM70.0031 39.7095C58.5814 39.7095 48.5092 40.8956 42.5553 42.7L42.0848 43.1045C41.3536 58.2789 52.2386 71.0539 66.6159 73.325C67.2536 73.4261 67.7203 73.9784 67.7203 74.6239C67.7203 75.2695 67.2536 75.8217 66.6198 75.9228C52.7014 78.12 42.0536 90.16 42.0536 104.701L42.0381 104.724C47.9103 106.622 58.2353 107.882 70.007 107.882C81.7786 107.882 92.092 106.622 97.9681 104.728L97.9603 104.704C97.9603 90.1678 87.3125 78.1239 73.3942 75.9267C72.7564 75.8256 72.2936 75.2734 72.2936 74.6278C72.2936 73.9823 72.7603 73.43 73.3981 73.3289C87.7753 71.0617 98.6603 58.2867 97.9292 43.1084L97.6064 42.7506C91.6759 40.9189 81.5336 39.7134 70.0109 39.7134L70.0031 39.7095Z" fill="black"/>
		<path d="M36.8896 41.7321C36.8896 44.2521 51.7141 46.2937 69.9996 46.2937C88.2852 46.2937 103.11 44.2521 103.11 41.7321V36.0776H36.8896V41.7321Z" fill="#272B32"/>
		<path d="M69.9996 40.639C88.2858 40.639 103.11 38.5966 103.11 36.0773C103.11 33.558 88.2858 31.5156 69.9996 31.5156C51.7135 31.5156 36.8896 33.558 36.8896 36.0773C36.8896 38.5966 51.7135 40.639 69.9996 40.639Z" fill="#0061FF"/>
		<path d="M119.16 131.709C126.437 131.709 132.335 125.81 132.335 118.533C132.335 111.257 126.437 105.358 119.16 105.358C111.883 105.358 105.984 111.257 105.984 118.533C105.984 125.81 111.883 131.709 119.16 131.709Z" fill="#0061FF"/>
		<path d="M16.0882 31.0602C20.7618 31.0602 24.5504 27.2715 24.5504 22.598C24.5504 17.9244 20.7618 14.1357 16.0882 14.1357C11.4146 14.1357 7.62598 17.9244 7.62598 22.598C7.62598 27.2715 11.4146 31.0602 16.0882 31.0602Z" fill="#FF7C10"/>
		<path d="M124.608 20.1794C127.827 20.1794 130.437 17.5695 130.437 14.35C130.437 11.1304 127.827 8.52051 124.608 8.52051C121.388 8.52051 118.778 11.1304 118.778 14.35C118.778 17.5695 121.388 20.1794 124.608 20.1794Z" fill="#98A2B3"/>
		<path d="M44.6838 21.875C45.6203 21.875 46.3794 21.1159 46.3794 20.1794C46.3794 19.243 45.6203 18.4839 44.6838 18.4839C43.7474 18.4839 42.9883 19.243 42.9883 20.1794C42.9883 21.1159 43.7474 21.875 44.6838 21.875Z" fill="#D5DAE1"/>
		<path d="M124.608 64.7149C125.871 64.7149 126.895 63.6912 126.895 62.4283C126.895 61.1654 125.871 60.1416 124.608 60.1416C123.345 60.1416 122.321 61.1654 122.321 62.4283C122.321 63.6912 123.345 64.7149 124.608 64.7149Z" fill="#D5DAE1"/>
		<path d="M16.466 116.807C18.6223 116.807 20.3704 115.059 20.3704 112.902C20.3704 110.746 18.6223 108.998 16.466 108.998C14.3096 108.998 12.5615 110.746 12.5615 112.902C12.5615 115.059 14.3096 116.807 16.466 116.807Z" fill="#D5DAE1"/>
	</g>
	<defs>
		<clipPath id="clip0_254_2686">
			<rect width="140" height="140" fill="white"/>
		</clipPath>
	</defs>
</svg>
