<svg width="200" height="200" viewBox="0 0 140 140" fill="none" xmlns="http://www.w3.org/2000/svg">
	<g clip-path="url(#clip0_254_2780)">
		<path d="M70.1831 131.833C104.44 131.833 132.211 104.063 132.211 69.8056C132.211 35.5486 104.44 7.77783 70.1831 7.77783C35.9261 7.77783 8.15527 35.5486 8.15527 69.8056C8.15527 104.063 35.9261 131.833 70.1831 131.833Z" fill="#EFEFF4"/>
		<g opacity="0.5">
			<path d="M132.074 73.8965L94.4027 39.3398L43.7227 98.6804L79.1543 131.184C107.835 127.027 130.161 103.246 132.074 73.8965Z" fill="#D5DAE1"/>
		</g>
		<path d="M116.639 129.554C122.855 129.554 127.894 124.516 127.894 118.3C127.894 112.084 122.855 107.045 116.639 107.045C110.424 107.045 105.385 112.084 105.385 118.3C105.385 124.516 110.424 129.554 116.639 129.554Z" fill="#0061FF"/>
		<path d="M124.638 16.2437C127.323 16.2437 129.5 14.0673 129.5 11.3826C129.5 8.69788 127.323 6.52148 124.638 6.52148C121.954 6.52148 119.777 8.69788 119.777 11.3826C119.777 14.0673 121.954 16.2437 124.638 16.2437Z" fill="#98A2B3"/>
		<path d="M11.5499 91.587C16.1332 91.587 19.8488 87.8715 19.8488 83.2881C19.8488 78.7048 16.1332 74.9893 11.5499 74.9893C6.96652 74.9893 3.25098 78.7048 3.25098 83.2881C3.25098 87.8715 6.96652 91.587 11.5499 91.587Z" fill="#FF7C10"/>
		<path d="M53.4253 83.5137C54.8128 83.5137 55.9375 82.3889 55.9375 81.0015C55.9375 79.614 54.8128 78.4893 53.4253 78.4893C52.0378 78.4893 50.9131 79.614 50.9131 81.0015C50.9131 82.3889 52.0378 83.5137 53.4253 83.5137Z" fill="#D5DAE1"/>
		<path d="M23.5159 131.184C25.5391 131.184 27.1792 129.544 27.1792 127.521C27.1792 125.498 25.5391 123.857 23.5159 123.857C21.4927 123.857 19.8525 125.498 19.8525 127.521C19.8525 129.544 21.4927 131.184 23.5159 131.184Z" fill="#D5DAE1"/>
		<path d="M17.5387 19.8332C19.5211 19.8332 21.1281 18.2261 21.1281 16.2437C21.1281 14.2613 19.5211 12.6543 17.5387 12.6543C15.5563 12.6543 13.9492 14.2613 13.9492 16.2437C13.9492 18.2261 15.5563 19.8332 17.5387 19.8332Z" fill="#D5DAE1"/>
		<path d="M70.1831 109.076C91.8713 109.076 109.453 91.4939 109.453 69.8056C109.453 48.1174 91.8713 30.5356 70.1831 30.5356C48.4949 30.5356 30.9131 48.1174 30.9131 69.8056C30.9131 91.4939 48.4949 109.076 70.1831 109.076Z" fill="white"/>
		<path d="M70.183 31.0022C91.5796 31.0022 108.986 48.4088 108.986 69.8055C108.986 91.2022 91.5796 108.609 70.183 108.609C48.7863 108.609 31.3796 91.2022 31.3796 69.8055C31.3796 48.4088 48.7863 31.0022 70.183 31.0022ZM70.183 30.0688C48.238 30.0688 30.4463 47.8605 30.4463 69.8055C30.4463 91.7505 48.238 109.542 70.183 109.542C92.128 109.542 109.92 91.7505 109.92 69.8055C109.92 47.8605 92.128 30.0688 70.183 30.0688Z" fill="black"/>
		<path d="M104.806 73.8889L88.0834 57.75L57.5557 88.0833L75.8334 106.944L104.806 73.8889Z" fill="url(#paint0_linear_254_2780)"/>
		<path d="M88.1068 81.2546L76.8524 70.0002L88.1068 58.7457C88.4102 58.4424 88.4102 57.9485 88.1068 57.6452L82.3552 51.8935C82.0518 51.5902 81.558 51.5902 81.2546 51.8935L70.0002 63.148L58.7457 51.8935C58.4424 51.5902 57.9485 51.5902 57.6452 51.8935L51.8935 57.6452C51.5902 57.9485 51.5902 58.4424 51.8935 58.7457L63.148 70.0002L51.8935 81.2546C51.5902 81.558 51.5902 82.0518 51.8935 82.3552L57.6452 88.1068C57.9485 88.4102 58.4424 88.4102 58.7457 88.1068L70.0002 76.8524L81.2546 88.1068C81.558 88.4102 82.0518 88.4102 82.3552 88.1068L88.1068 82.3552C88.4102 82.0518 88.4102 81.558 88.1068 81.2546Z" fill="#0061FF"/>
	</g>
	<defs>
		<linearGradient id="paint0_linear_254_2780" x1="72.7223" y1="73.5" x2="93.9168" y2="95.4722" gradientUnits="userSpaceOnUse">
			<stop stop-color="#D7E4F7"/>
			<stop offset="1" stop-color="white" stop-opacity="0"/>
		</linearGradient>
		<clipPath id="clip0_254_2780">
			<rect width="140" height="140" fill="white"/>
		</clipPath>
	</defs>
</svg>
