<svg width="200" height="200" viewBox="0 0 140 140" fill="none" xmlns="http://www.w3.org/2000/svg">
	<path d="M70.0005 131.857C104.163 131.857 131.856 104.163 131.856 70.001C131.856 35.8389 104.163 8.14502 70.0005 8.14502C35.8384 8.14502 8.14453 35.8389 8.14453 70.001C8.14453 104.163 35.8384 131.857 70.0005 131.857Z" fill="#EFEFF4"/>
	<g opacity="0.5">
		<path d="M131.721 74.0806L94.1539 39.6196L43.6143 98.7958L78.9478 131.209C107.549 127.063 129.813 103.349 131.721 74.0806Z" fill="#D5DAE1"/>
	</g>
	<path d="M97.1547 26.5814C97.9408 26.5814 98.578 25.9442 98.578 25.1581C98.578 24.3721 97.9408 23.7349 97.1547 23.7349C96.3687 23.7349 95.7314 24.3721 95.7314 25.1581C95.7314 25.9442 96.3687 26.5814 97.1547 26.5814Z" fill="#D5DAE1"/>
	<path d="M53.4721 83.4773C54.8557 83.4773 55.9773 82.3557 55.9773 80.9721C55.9773 79.5884 54.8557 78.4668 53.4721 78.4668C52.0884 78.4668 50.9668 79.5884 50.9668 80.9721C50.9668 82.3557 52.0884 83.4773 53.4721 83.4773Z" fill="#D5DAE1"/>
	<path d="M70.0011 109.162C91.6292 109.162 109.162 91.6287 109.162 70.0006C109.162 48.3724 91.6292 30.8394 70.0011 30.8394C48.3729 30.8394 30.8398 48.3724 30.8398 70.0006C30.8398 91.6287 48.3729 109.162 70.0011 109.162Z" fill="white"/>
	<path d="M70.0006 31.3043C91.338 31.3043 108.696 48.6627 108.696 70.0001C108.696 91.3375 91.338 108.696 70.0006 108.696C48.6632 108.696 31.3048 91.3375 31.3048 70.0001C31.3048 48.6627 48.6632 31.3043 70.0006 31.3043ZM70.0006 30.3735C48.1164 30.3735 30.374 48.1159 30.374 70.0001C30.374 91.8843 48.1164 109.627 70.0006 109.627C91.8848 109.627 109.627 91.8843 109.627 70.0001C109.627 48.1159 91.8848 30.3735 70.0006 30.3735Z" fill="black"/>
	<path d="M108.112 72.7226L90.6122 57.9448L64.5566 86.7226L82.8344 105.584L108.112 72.7226Z" fill="url(#paint0_linear_254_2735)"/>
	<path d="M55.3067 65.9556L64.4125 75.0614L84.3189 53.2082C84.6136 52.8863 85.11 52.8592 85.4358 53.15L90.6479 57.8193C90.9737 58.114 91.0009 58.6143 90.7061 58.944L65.572 86.7578C65.2696 87.0952 64.7421 87.1068 64.4241 86.785L49.346 71.7068C49.0319 71.3927 49.0358 70.8808 49.3576 70.5705L54.2014 65.9439C54.5117 65.6453 55.0042 65.6531 55.3105 65.9556H55.3067Z" fill="#0061FF"/>
	<path d="M19.8756 130.534C26.0741 130.534 31.0989 125.51 31.0989 119.311C31.0989 113.113 26.0741 108.088 19.8756 108.088C13.6772 108.088 8.65234 113.113 8.65234 119.311C8.65234 125.51 13.6772 130.534 19.8756 130.534Z" fill="#0161FF"/>
	<path d="M11.8984 17.5376C14.5757 17.5376 16.7461 15.3672 16.7461 12.6899C16.7461 10.0127 14.5757 7.84229 11.8984 7.84229C9.22115 7.84229 7.05078 10.0127 7.05078 12.6899C7.05078 15.3672 9.22115 17.5376 11.8984 17.5376Z" fill="#98A2B3"/>
	<path d="M124.674 98.0977C129.245 98.0977 132.95 94.3925 132.95 89.8218C132.95 85.2511 129.245 81.5459 124.674 81.5459C120.104 81.5459 116.398 85.2511 116.398 89.8218C116.398 94.3925 120.104 98.0977 124.674 98.0977Z" fill="#FF7C10"/>
	<path d="M112.745 132.155C114.763 132.155 116.398 130.519 116.398 128.502C116.398 126.484 114.763 124.849 112.745 124.849C110.727 124.849 109.092 126.484 109.092 128.502C109.092 130.519 110.727 132.155 112.745 132.155Z" fill="#D5DAE1"/>
	<path d="M118.702 21.117C120.678 21.117 122.281 19.5144 122.281 17.5375C122.281 15.5606 120.678 13.958 118.702 13.958C116.725 13.958 115.122 15.5606 115.122 17.5375C115.122 19.5144 116.725 21.117 118.702 21.117Z" fill="#D5DAE1"/>
	<defs>
		<linearGradient id="paint0_linear_254_2735" x1="79.7233" y1="72.1393" x2="100.918" y2="94.1115" gradientUnits="userSpaceOnUse">
			<stop stop-color="#D7E4F7"/>
			<stop offset="1" stop-color="white" stop-opacity="0"/>
		</linearGradient>
	</defs>
</svg>
