<svg width="30" height="31" viewBox="0 0 30 31" fill="none" xmlns="http://www.w3.org/2000/svg">
<g id="vuesax/linear/keyboard-open">
<g id="Icon">
<path d="M4.20654 21.4023C4.20654 20.0502 4.20654 19.3742 4.46784 18.8578C4.69769 18.4035 5.06446 18.0342 5.51557 17.8027C6.02841 17.5396 6.69976 17.5396 8.04246 17.5396H21.9477C23.2904 17.5396 23.9617 17.5396 24.4745 17.8027C24.9257 18.0342 25.2924 18.4035 25.5223 18.8578C25.7836 19.3742 25.7836 20.0502 25.7836 21.4023V22.1265C25.7836 23.4786 25.7836 24.1546 25.5223 24.671C25.2924 25.1253 24.9257 25.4946 24.4745 25.7261C23.9617 25.9892 23.2904 25.9892 21.9477 25.9892H8.04246C6.69976 25.9892 6.02841 25.9892 5.51557 25.7261C5.06446 25.4946 4.69769 25.1253 4.46784 24.671C4.20654 24.1546 4.20654 23.4786 4.20654 22.1265V21.4023Z" fill="white"/>
<path d="M7.99316 12.7113C7.54766 11.0742 7.88375 9.27394 9.00143 7.88296M21.997 12.7113C22.4425 11.0742 22.1064 9.27394 20.9887 7.88296M3.34299 13.9184C2.52192 10.622 3.20935 6.98069 5.40526 4.26172M26.6471 13.9184C27.4682 10.622 26.7808 6.98069 24.5849 4.26172M14.9951 17.5396V11.5042M8.40207 21.7644H13.197M8.04246 25.9892H21.9477C23.2904 25.9892 23.9617 25.9892 24.4745 25.7261C24.9257 25.4946 25.2924 25.1253 25.5223 24.671C25.7836 24.1546 25.7836 23.4786 25.7836 22.1265V21.4023C25.7836 20.0502 25.7836 19.3742 25.5223 18.8578C25.2924 18.4035 24.9257 18.0342 24.4745 17.8027C23.9617 17.5396 23.2904 17.5396 21.9477 17.5396H8.04246C6.69976 17.5396 6.02841 17.5396 5.51557 17.8027C5.06446 18.0342 4.69769 18.4035 4.46784 18.8578C4.20654 19.3742 4.20654 20.0502 4.20654 21.4023V22.1265C4.20654 23.4786 4.20654 24.1546 4.46784 24.671C4.69769 25.1253 5.06446 25.4946 5.51557 25.7261C6.02841 25.9892 6.69976 25.9892 8.04246 25.9892Z" stroke="#292D32" stroke-width="1.20205" stroke-linecap="round" stroke-linejoin="round"/>
</g>
</g>
</svg>
