<svg width="30" height="31" viewBox="0 0 30 31" fill="none" xmlns="http://www.w3.org/2000/svg">
<g id="vuesax/linear/keyboard-open">
<g id="Group 427320754">
<path id="Vector 266" d="M21.0043 25.25V27.5001C21.0043 27.9143 20.6685 28.2501 20.2542 28.2501H9.75393C9.3397 28.2501 9.00391 27.9143 9.00391 27.5001V25.25" stroke="#292D32" stroke-width="1.2" stroke-linecap="round" stroke-linejoin="round"/>
<g id="Group">
<path id="Vector" d="M19.9736 2.9H10.0348C9.34531 2.9 8.70191 2.92476 8.11125 3.01855C6.54913 3.22766 5.4191 3.79544 4.73633 5.02473C4.09379 6.1816 3.90391 7.8389 3.90391 10.0596V17.941C3.90391 20.1617 4.09379 21.819 4.73633 22.9759C5.4191 24.2052 6.54914 24.7729 8.11129 24.9821C8.70193 25.0758 9.34532 25.1006 10.0348 25.1006H19.9736C20.6738 25.1006 21.3067 25.0758 21.8971 24.9821C23.4593 24.7729 24.5893 24.2052 25.2721 22.9759C25.9146 21.819 26.1045 20.1617 26.1045 17.941V10.0596C26.1045 7.83889 25.9146 6.1816 25.2721 5.02473C24.5893 3.79544 23.4593 3.22766 21.8971 3.01855C21.3065 2.92476 20.6631 2.9 19.9736 2.9Z" stroke="#292D32" stroke-width="1.2" stroke-linecap="round" stroke-linejoin="round"/>
<path id="Vector_2" d="M7.50391 18.5L7.52669 18.4772L19.5042 6.49966" stroke="#292D32" stroke-width="0.8" stroke-linecap="round" stroke-linejoin="round"/>
<path id="Vector_3" d="M7.50391 15.5L7.52099 15.4829L16.5042 6.49974" stroke="#292D32" stroke-width="0.8" stroke-linecap="round" stroke-linejoin="round"/>
<path id="Vector_4" d="M7.50391 12.5L7.5153 12.4886L13.5041 6.49983" stroke="#292D32" stroke-width="0.8" stroke-linecap="round" stroke-linejoin="round"/>
<path id="Vector_5" d="M7.50391 9.5L7.5096 9.4943L10.504 6.49991" stroke="#292D32" stroke-width="0.8" stroke-linecap="round" stroke-linejoin="round"/>
<path id="Vector_6" d="M7.50391 21.5L7.53238 21.4715L22.5043 6.49957" stroke="#292D32" stroke-width="0.8" stroke-linecap="round" stroke-linejoin="round"/>
<path id="Vector_7" d="M10.5039 21.5L10.5267 21.4772L22.5042 9.49966" stroke="#292D32" stroke-width="0.8" stroke-linecap="round" stroke-linejoin="round"/>
<path id="Vector_8" d="M13.5039 21.5L13.521 21.4829L22.5042 12.4997" stroke="#292D32" stroke-width="0.8" stroke-linecap="round" stroke-linejoin="round"/>
<path id="Vector_9" d="M16.5039 21.5L16.5153 21.4886L22.5041 15.4998" stroke="#292D32" stroke-width="0.8" stroke-linecap="round" stroke-linejoin="round"/>
<path id="Vector_10" d="M19.5039 21.5L19.5096 21.4943L22.504 18.4999" stroke="#292D32" stroke-width="0.8" stroke-linecap="round" stroke-linejoin="round"/>
</g>
</g>
</g>
</svg>
