<svg width="30" height="30" viewBox="0 0 30 30" fill="none" xmlns="http://www.w3.org/2000/svg">
<path d="M17.5384 14.2124C18.0033 12.2575 16.2987 10.5528 14.3437 11.0177C13.4258 11.2442 12.6748 11.9952 12.4484 12.9131C11.9835 14.868 13.6881 16.5727 15.643 16.1078C16.5728 15.8813 17.3238 15.1303 17.5384 14.2124Z" stroke="#292D32" stroke-width="1.2" stroke-linecap="round" stroke-linejoin="round"/>
<path d="M22.1618 21.1863C24.2002 19.279 25.4757 16.5731 25.4757 13.5572C25.4757 7.76382 20.7791 3.0791 14.9976 3.0791C9.21619 3.0791 4.51953 7.77574 4.51953 13.5572C4.51953 16.585 5.80694 19.3148 7.86918 21.222" stroke="#292D32" stroke-width="1.2" stroke-linecap="round" stroke-linejoin="round"/>
<path d="M10.2293 18.0391C9.1326 16.8709 8.45312 15.2974 8.45312 13.557C8.45312 9.94512 11.3856 7.0127 14.9975 7.0127C18.6094 7.0127 21.5418 9.94512 21.5418 13.557C21.5418 15.2974 20.8623 16.859 19.7657 18.0391" stroke="#292D32" stroke-width="1.2" stroke-linecap="round" stroke-linejoin="round"/>
<path d="M12.9706 20.5556L11.254 22.6894C9.89509 24.394 11.099 26.9092 13.2805 26.9092H16.7017C18.8831 26.9092 20.099 24.3821 18.7282 22.6894L17.0116 20.5556C15.9865 19.2562 14.0077 19.2562 12.9706 20.5556Z" stroke="#292D32" stroke-width="1.2" stroke-linecap="round" stroke-linejoin="round"/>
</svg>
